%TF.GenerationSoftware,KiCad,Pcbnew,9.0.2*%
%TF.CreationDate,2025-06-27T15:59:54-04:00*%
%TF.ProjectId,PassPad_KiCAD,50617373-5061-4645-9f4b-694341442e6b,rev?*%
%TF.SameCoordinates,Original*%
%TF.FileFunction,Legend,Top*%
%TF.FilePolarity,Positive*%
%FSLAX46Y46*%
G04 Gerber Fmt 4.6, Leading zero omitted, Abs format (unit mm)*
G04 Created by KiCad (PCBNEW 9.0.2) date 2025-06-27 15:59:54*
%MOMM*%
%LPD*%
G01*
G04 APERTURE LIST*
%ADD10C,0.100000*%
%ADD11C,0.300000*%
%ADD12C,0.150000*%
%ADD13C,0.101600*%
%ADD14C,0.000000*%
%ADD15C,0.127000*%
%ADD16C,0.504000*%
%ADD17C,0.120000*%
%ADD18C,0.040000*%
G04 APERTURE END LIST*
D10*
G36*
X165483903Y-81056185D02*
G01*
X165483710Y-81072060D01*
X165478061Y-81141917D01*
X165464903Y-81207995D01*
X165443781Y-81272509D01*
X165415505Y-81332961D01*
X165378237Y-81392611D01*
X165334008Y-81447694D01*
X165279263Y-81501878D01*
X165217792Y-81550769D01*
X165144662Y-81597619D01*
X165065370Y-81638295D01*
X164974862Y-81674922D01*
X164879382Y-81704503D01*
X164775704Y-81727839D01*
X164668984Y-81743516D01*
X164559465Y-81751569D01*
X164449312Y-81751824D01*
X164237226Y-81729857D01*
X164046214Y-81681456D01*
X163883954Y-81611914D01*
X163752932Y-81526100D01*
X163652486Y-81427349D01*
X163580931Y-81317076D01*
X163537239Y-81194877D01*
X163525985Y-81128787D01*
X163522145Y-81058994D01*
X163774081Y-81058994D01*
X163775368Y-81089049D01*
X163783910Y-81140270D01*
X163800013Y-81188085D01*
X163825292Y-81235886D01*
X163858131Y-81279719D01*
X163902764Y-81323830D01*
X163955052Y-81363031D01*
X164021420Y-81401022D01*
X164094972Y-81432889D01*
X164181818Y-81460642D01*
X164274087Y-81481131D01*
X164373816Y-81494714D01*
X164475832Y-81500486D01*
X164675467Y-81489155D01*
X164851743Y-81451454D01*
X164993820Y-81394407D01*
X165099993Y-81324220D01*
X165173192Y-81244510D01*
X165216836Y-81155847D01*
X165228014Y-81107592D01*
X165231844Y-81056185D01*
X165231844Y-80921729D01*
X163774081Y-80921729D01*
X163774081Y-81058994D01*
X163522145Y-81058994D01*
X163522145Y-80641827D01*
X165483903Y-80641827D01*
X165483903Y-81056185D01*
G37*
G36*
X165231844Y-82717647D02*
G01*
X165483903Y-82717647D01*
X165483903Y-81919705D01*
X163522145Y-81919705D01*
X163522145Y-82717647D01*
X163774081Y-82717647D01*
X163774081Y-82199608D01*
X164215794Y-82199608D01*
X164215794Y-82563652D01*
X164467853Y-82563652D01*
X164467853Y-82199608D01*
X165231844Y-82199608D01*
X165231844Y-82717647D01*
G37*
G36*
X164064119Y-83739559D02*
G01*
X164217019Y-83724993D01*
X164360785Y-83682405D01*
X164501001Y-83611347D01*
X164646164Y-83507693D01*
X164755043Y-83415596D01*
X164834137Y-83348165D01*
X164908156Y-83292675D01*
X164978963Y-83255041D01*
X165048418Y-83241181D01*
X165090872Y-83244975D01*
X165128781Y-83255903D01*
X165190428Y-83296648D01*
X165232540Y-83360461D01*
X165251028Y-83444737D01*
X165249507Y-83493037D01*
X165240021Y-83543131D01*
X165230135Y-83574329D01*
X165482071Y-83574329D01*
X165494924Y-83507041D01*
X165499871Y-83440578D01*
X165497038Y-83375227D01*
X165486539Y-83312204D01*
X165468788Y-83252891D01*
X165443882Y-83197309D01*
X165412947Y-83147504D01*
X165375560Y-83102582D01*
X165333487Y-83064466D01*
X165285686Y-83032121D01*
X165233997Y-83006835D01*
X165177184Y-82988087D01*
X165116541Y-82976569D01*
X165051207Y-82972399D01*
X165048418Y-82972392D01*
X164933548Y-82986961D01*
X164824254Y-83030021D01*
X164709156Y-83105847D01*
X164582567Y-83213600D01*
X164472584Y-83308368D01*
X164354196Y-83391719D01*
X164289656Y-83425161D01*
X164220381Y-83451005D01*
X164145495Y-83467672D01*
X164064119Y-83473578D01*
X164002756Y-83469769D01*
X163949460Y-83458732D01*
X163905637Y-83441939D01*
X163868511Y-83419578D01*
X163813040Y-83360309D01*
X163778849Y-83279891D01*
X163766852Y-83174272D01*
X163781889Y-83040668D01*
X163818045Y-82913530D01*
X163552186Y-82913530D01*
X163528327Y-82998868D01*
X163513114Y-83081793D01*
X163506354Y-83161091D01*
X163507644Y-83237151D01*
X163516562Y-83308399D01*
X163532860Y-83375680D01*
X163555787Y-83437345D01*
X163585412Y-83494420D01*
X163620748Y-83545515D01*
X163662151Y-83591465D01*
X163708694Y-83631347D01*
X163760778Y-83665534D01*
X163817875Y-83693528D01*
X163880108Y-83715207D01*
X163947548Y-83730268D01*
X164019820Y-83738279D01*
X164064119Y-83739559D01*
G37*
G36*
X163522145Y-83990152D02*
G01*
X163522145Y-84270176D01*
X165482071Y-84270176D01*
X165482071Y-83990152D01*
X163522145Y-83990152D01*
G37*
G36*
X165482071Y-85185232D02*
G01*
X164460037Y-85185232D01*
X165482071Y-84600026D01*
X165482071Y-84549712D01*
X163522145Y-84549712D01*
X163522145Y-84829615D01*
X164544057Y-84829615D01*
X163522145Y-85414821D01*
X163522145Y-85465257D01*
X165482071Y-85465257D01*
X165482071Y-85185232D01*
G37*
G36*
X164428774Y-86819950D02*
G01*
X164428774Y-86363582D01*
X164215916Y-86363582D01*
X164215916Y-86568013D01*
X163794720Y-86568013D01*
X163775842Y-86521193D01*
X163764702Y-86471141D01*
X163761258Y-86419636D01*
X163765089Y-86360322D01*
X163776274Y-86304653D01*
X163819611Y-86202968D01*
X163890936Y-86112706D01*
X163992009Y-86034010D01*
X164124654Y-85969551D01*
X164287806Y-85924344D01*
X164474171Y-85904529D01*
X164479088Y-85904405D01*
X164574065Y-85906169D01*
X164667983Y-85915722D01*
X164758148Y-85932743D01*
X164844544Y-85957292D01*
X164921495Y-85987390D01*
X164992718Y-86024177D01*
X165052183Y-86063900D01*
X165104939Y-86109254D01*
X165146580Y-86155681D01*
X165181171Y-86206803D01*
X165206410Y-86258540D01*
X165224412Y-86314319D01*
X165236851Y-86419636D01*
X165232992Y-86480027D01*
X165221611Y-86536729D01*
X165203241Y-86589037D01*
X165178081Y-86637439D01*
X165150145Y-86677190D01*
X165362881Y-86831185D01*
X165402605Y-86769644D01*
X165435611Y-86703414D01*
X165460591Y-86635283D01*
X165478520Y-86562807D01*
X165491719Y-86419636D01*
X165487878Y-86340842D01*
X165476621Y-86266186D01*
X165433048Y-86128346D01*
X165362366Y-86004663D01*
X165264590Y-85894724D01*
X165139127Y-85799569D01*
X164985986Y-85721863D01*
X164807338Y-85665648D01*
X164609035Y-85635526D01*
X164442696Y-85632807D01*
X164338456Y-85641013D01*
X164235869Y-85657010D01*
X164138019Y-85680212D01*
X164043700Y-85710870D01*
X163957708Y-85747148D01*
X163876665Y-85790232D01*
X163805587Y-85837049D01*
X163740355Y-85889899D01*
X163685046Y-85945019D01*
X163636097Y-86005451D01*
X163596179Y-86067495D01*
X163562965Y-86134286D01*
X163537850Y-86202848D01*
X163519802Y-86275776D01*
X163506513Y-86419636D01*
X163521548Y-86552907D01*
X163567293Y-86687696D01*
X163642767Y-86815018D01*
X163646464Y-86819950D01*
X164428774Y-86819950D01*
G37*
G36*
X165231844Y-87852608D02*
G01*
X165483903Y-87852608D01*
X165483903Y-87054667D01*
X163522145Y-87054667D01*
X163522145Y-87852608D01*
X163774081Y-87852608D01*
X163774081Y-87334569D01*
X164215794Y-87334569D01*
X164215794Y-87698613D01*
X164467853Y-87698613D01*
X164467853Y-87334569D01*
X165231844Y-87334569D01*
X165231844Y-87852608D01*
G37*
G36*
X165483903Y-88490937D02*
G01*
X165483710Y-88506812D01*
X165478061Y-88576669D01*
X165464903Y-88642747D01*
X165443781Y-88707261D01*
X165415505Y-88767713D01*
X165378237Y-88827363D01*
X165334008Y-88882447D01*
X165279263Y-88936630D01*
X165217792Y-88985522D01*
X165144662Y-89032371D01*
X165065370Y-89073047D01*
X164974862Y-89109674D01*
X164879382Y-89139255D01*
X164775704Y-89162592D01*
X164668984Y-89178269D01*
X164559465Y-89186321D01*
X164449312Y-89186576D01*
X164237226Y-89164609D01*
X164046214Y-89116208D01*
X163883954Y-89046666D01*
X163752932Y-88960852D01*
X163652486Y-88862102D01*
X163580931Y-88751828D01*
X163537239Y-88629629D01*
X163525985Y-88563539D01*
X163522145Y-88493746D01*
X163774081Y-88493746D01*
X163775368Y-88523801D01*
X163783910Y-88575022D01*
X163800013Y-88622837D01*
X163825292Y-88670638D01*
X163858131Y-88714471D01*
X163902764Y-88758582D01*
X163955052Y-88797783D01*
X164021420Y-88835774D01*
X164094972Y-88867642D01*
X164181818Y-88895394D01*
X164274087Y-88915883D01*
X164373816Y-88929467D01*
X164475832Y-88935238D01*
X164675467Y-88923907D01*
X164851743Y-88886207D01*
X164993820Y-88829159D01*
X165099993Y-88758973D01*
X165173192Y-88679262D01*
X165216836Y-88590599D01*
X165228014Y-88542345D01*
X165231844Y-88490937D01*
X165231844Y-88356481D01*
X163774081Y-88356481D01*
X163774081Y-88493746D01*
X163522145Y-88493746D01*
X163522145Y-88076579D01*
X165483903Y-88076579D01*
X165483903Y-88490937D01*
G37*
G36*
X165483903Y-90333872D02*
G01*
X165469262Y-90498948D01*
X165451072Y-90575238D01*
X165426337Y-90645618D01*
X165394743Y-90711626D01*
X165357398Y-90771423D01*
X165313331Y-90826732D01*
X165264354Y-90875393D01*
X165209047Y-90918834D01*
X165149841Y-90955122D01*
X165085520Y-90985021D01*
X165018578Y-91007325D01*
X164948827Y-91022182D01*
X164877974Y-91029232D01*
X164737086Y-91020062D01*
X164604420Y-90981357D01*
X164486288Y-90915988D01*
X164386642Y-90826754D01*
X164312362Y-90909747D01*
X164263454Y-90946303D01*
X164210407Y-90975753D01*
X164151903Y-90998808D01*
X164090891Y-91014198D01*
X164027852Y-91021950D01*
X163964296Y-91021905D01*
X163842535Y-90999318D01*
X163734870Y-90949848D01*
X163646539Y-90877409D01*
X163580130Y-90784518D01*
X163555838Y-90730869D01*
X163537681Y-90671774D01*
X163526308Y-90607723D01*
X163522145Y-90538303D01*
X163522145Y-90535494D01*
X163774081Y-90535494D01*
X163778036Y-90584957D01*
X163789433Y-90628983D01*
X163807332Y-90667064D01*
X163832473Y-90701068D01*
X163862779Y-90728334D01*
X163899349Y-90749911D01*
X163939102Y-90763888D01*
X164023575Y-90768933D01*
X164100931Y-90744749D01*
X164161641Y-90696268D01*
X164201294Y-90626579D01*
X164212028Y-90583811D01*
X164215794Y-90535494D01*
X164215794Y-90333872D01*
X164467853Y-90333872D01*
X164470625Y-90394052D01*
X164480732Y-90459784D01*
X164497605Y-90519332D01*
X164521226Y-90573952D01*
X164550535Y-90622074D01*
X164586165Y-90665111D01*
X164626336Y-90701159D01*
X164671919Y-90731155D01*
X164720626Y-90753639D01*
X164772565Y-90768828D01*
X164825874Y-90776212D01*
X164932027Y-90767746D01*
X165029688Y-90730087D01*
X165112346Y-90666338D01*
X165175925Y-90578794D01*
X165199469Y-90526532D01*
X165217073Y-90468161D01*
X165228044Y-90404038D01*
X165231844Y-90333872D01*
X164467853Y-90333872D01*
X164215794Y-90333872D01*
X163774081Y-90333872D01*
X163774081Y-90535494D01*
X163522145Y-90535494D01*
X163522145Y-90053969D01*
X165483903Y-90053969D01*
X165483903Y-90333872D01*
G37*
G36*
X165483903Y-92207092D02*
G01*
X164562619Y-91837553D01*
X165483903Y-91456778D01*
X165483903Y-91168327D01*
X164218237Y-91700288D01*
X163526663Y-91700288D01*
X163526663Y-91980313D01*
X164218237Y-91980313D01*
X165483903Y-92495543D01*
X165483903Y-92207092D01*
G37*
G36*
X165482438Y-93896764D02*
G01*
X165482438Y-93947200D01*
X163522389Y-94535093D01*
X163522389Y-94252382D01*
X163780065Y-94173980D01*
X163780065Y-94095578D01*
X164032001Y-94095578D01*
X164600355Y-93921921D01*
X164032001Y-93762308D01*
X164032001Y-94095578D01*
X163780065Y-94095578D01*
X163780065Y-93689524D01*
X163522389Y-93616740D01*
X163522389Y-93333906D01*
X165482438Y-93896764D01*
G37*
G36*
X165483903Y-94982301D02*
G01*
X165479456Y-95070377D01*
X165467519Y-95147710D01*
X165448571Y-95219777D01*
X165422345Y-95288278D01*
X165389784Y-95351232D01*
X165349762Y-95410837D01*
X165304062Y-95464440D01*
X165250703Y-95514200D01*
X165192455Y-95557363D01*
X165127032Y-95595463D01*
X165057809Y-95626345D01*
X164983245Y-95650642D01*
X164906353Y-95667256D01*
X164827334Y-95676233D01*
X164747729Y-95677398D01*
X164592811Y-95656885D01*
X164450789Y-95608405D01*
X164327620Y-95535716D01*
X164226364Y-95442096D01*
X164148505Y-95329493D01*
X163524098Y-95659953D01*
X163524098Y-95357581D01*
X164070103Y-95066321D01*
X164067295Y-94982301D01*
X164319353Y-94982301D01*
X164333106Y-95101733D01*
X164351082Y-95158467D01*
X164375606Y-95209740D01*
X164407776Y-95257821D01*
X164445698Y-95299847D01*
X164491466Y-95337892D01*
X164541935Y-95369090D01*
X164599005Y-95394492D01*
X164659159Y-95412335D01*
X164722369Y-95422727D01*
X164786520Y-95425306D01*
X164910400Y-95407761D01*
X165019843Y-95363311D01*
X165108899Y-95296538D01*
X165175139Y-95210535D01*
X165217000Y-95106119D01*
X165228035Y-95046740D01*
X165231844Y-94982301D01*
X164319353Y-94982301D01*
X164067295Y-94982301D01*
X163524098Y-94982301D01*
X163524098Y-94702399D01*
X165483903Y-94702399D01*
X165483903Y-94982301D01*
G37*
G36*
X165483903Y-96687483D02*
G01*
X164562619Y-96317943D01*
X165483903Y-95937169D01*
X165483903Y-95648718D01*
X164218237Y-96180679D01*
X163526663Y-96180679D01*
X163526663Y-96460703D01*
X164218237Y-96460703D01*
X165483903Y-96975934D01*
X165483903Y-96687483D01*
G37*
G36*
X165482438Y-97398229D02*
G01*
X165482438Y-97448666D01*
X163522389Y-98036558D01*
X163522389Y-97753847D01*
X163780065Y-97675445D01*
X163780065Y-97597043D01*
X164032001Y-97597043D01*
X164600355Y-97423387D01*
X164032001Y-97263774D01*
X164032001Y-97597043D01*
X163780065Y-97597043D01*
X163780065Y-97190989D01*
X163522389Y-97118205D01*
X163522389Y-96835372D01*
X165482438Y-97398229D01*
G37*
G36*
X155370259Y-101935525D02*
G01*
X155355693Y-101782625D01*
X155313105Y-101638859D01*
X155242047Y-101498643D01*
X155138394Y-101353480D01*
X155046296Y-101244601D01*
X154978866Y-101165507D01*
X154923375Y-101091488D01*
X154885741Y-101020681D01*
X154871882Y-100951226D01*
X154875676Y-100908772D01*
X154886603Y-100870863D01*
X154927348Y-100809216D01*
X154991161Y-100767104D01*
X155075437Y-100748616D01*
X155123738Y-100750137D01*
X155173831Y-100759623D01*
X155205029Y-100769509D01*
X155205029Y-100517573D01*
X155137741Y-100504720D01*
X155071278Y-100499773D01*
X155005928Y-100502606D01*
X154942904Y-100513105D01*
X154883591Y-100530856D01*
X154828009Y-100555762D01*
X154778205Y-100586697D01*
X154733282Y-100624084D01*
X154695166Y-100666157D01*
X154662822Y-100713958D01*
X154637536Y-100765647D01*
X154618788Y-100822460D01*
X154607270Y-100883103D01*
X154603099Y-100948437D01*
X154603092Y-100951226D01*
X154617661Y-101066096D01*
X154660721Y-101175390D01*
X154736547Y-101290488D01*
X154844301Y-101417077D01*
X154939068Y-101527060D01*
X155022419Y-101645448D01*
X155055861Y-101709988D01*
X155081706Y-101779263D01*
X155098372Y-101854149D01*
X155104279Y-101935525D01*
X155100469Y-101996888D01*
X155089432Y-102050184D01*
X155072639Y-102094007D01*
X155050278Y-102131133D01*
X154991009Y-102186604D01*
X154910591Y-102220795D01*
X154804972Y-102232792D01*
X154671368Y-102217755D01*
X154544230Y-102181599D01*
X154544230Y-102447458D01*
X154629568Y-102471317D01*
X154712493Y-102486530D01*
X154791791Y-102493290D01*
X154867851Y-102492000D01*
X154939099Y-102483082D01*
X155006380Y-102466784D01*
X155068046Y-102443857D01*
X155125121Y-102414232D01*
X155176215Y-102378896D01*
X155222166Y-102337493D01*
X155262047Y-102290950D01*
X155296234Y-102238866D01*
X155324228Y-102181769D01*
X155345908Y-102119536D01*
X155360968Y-102052096D01*
X155368979Y-101979824D01*
X155370259Y-101935525D01*
G37*
G36*
X155994016Y-100528977D02*
G01*
X156067755Y-100546659D01*
X156136146Y-100571079D01*
X156201145Y-100602822D01*
X156260444Y-100640649D01*
X156316303Y-100686058D01*
X156365941Y-100736861D01*
X156411329Y-100795264D01*
X156449870Y-100858168D01*
X156482739Y-100927700D01*
X156508175Y-101000490D01*
X156526505Y-101077462D01*
X156537056Y-101156085D01*
X156534851Y-101314443D01*
X156502834Y-101465054D01*
X156444328Y-101599968D01*
X156363046Y-101714521D01*
X156261781Y-101806475D01*
X156141860Y-101874578D01*
X156075124Y-101899195D01*
X156003218Y-101917350D01*
X155926577Y-101928521D01*
X155844823Y-101932349D01*
X155844823Y-102475546D01*
X155564921Y-102475546D01*
X155564921Y-101680291D01*
X155844823Y-101680291D01*
X155964254Y-101666538D01*
X156020989Y-101648562D01*
X156072262Y-101624038D01*
X156120343Y-101591868D01*
X156162369Y-101553946D01*
X156200414Y-101508178D01*
X156231612Y-101457709D01*
X156257014Y-101400639D01*
X156274857Y-101340485D01*
X156285249Y-101277275D01*
X156287828Y-101213124D01*
X156270283Y-101089244D01*
X156225833Y-100979801D01*
X156159060Y-100890745D01*
X156073056Y-100824505D01*
X155968640Y-100782644D01*
X155909262Y-100771609D01*
X155844823Y-100767800D01*
X155844823Y-101680291D01*
X155564921Y-101680291D01*
X155564921Y-100515741D01*
X155844823Y-100515741D01*
X155994016Y-100528977D01*
G37*
G36*
X157447911Y-100515497D02*
G01*
X157447911Y-101531791D01*
X156985926Y-101531791D01*
X156985926Y-100515497D01*
X156706023Y-100515497D01*
X156706023Y-102475423D01*
X156985926Y-102475423D01*
X156985926Y-101783850D01*
X157447911Y-101783850D01*
X157447911Y-102475423D01*
X157727935Y-102475423D01*
X157727935Y-100515497D01*
X157447911Y-100515497D01*
G37*
G36*
X158748626Y-100767800D02*
G01*
X158748626Y-100515741D01*
X157950685Y-100515741D01*
X157950685Y-102477500D01*
X158748626Y-102477500D01*
X158748626Y-102225563D01*
X158230587Y-102225563D01*
X158230587Y-101783850D01*
X158594631Y-101783850D01*
X158594631Y-101531791D01*
X158230587Y-101531791D01*
X158230587Y-100767800D01*
X158748626Y-100767800D01*
G37*
G36*
X159340575Y-100520188D02*
G01*
X159417908Y-100532125D01*
X159489975Y-100551073D01*
X159558476Y-100577299D01*
X159621430Y-100609860D01*
X159681035Y-100649882D01*
X159734638Y-100695582D01*
X159784398Y-100748941D01*
X159827561Y-100807189D01*
X159865661Y-100872612D01*
X159896543Y-100941835D01*
X159920840Y-101016399D01*
X159937454Y-101093291D01*
X159946431Y-101172310D01*
X159947596Y-101251915D01*
X159927083Y-101406833D01*
X159878603Y-101548855D01*
X159805914Y-101672024D01*
X159712294Y-101773280D01*
X159599690Y-101851139D01*
X159930151Y-102475546D01*
X159627778Y-102475546D01*
X159336519Y-101929541D01*
X159252499Y-101932349D01*
X159252499Y-102475546D01*
X158972597Y-102475546D01*
X158972597Y-101680291D01*
X159252499Y-101680291D01*
X159371930Y-101666538D01*
X159428665Y-101648562D01*
X159479938Y-101624038D01*
X159528019Y-101591868D01*
X159570045Y-101553946D01*
X159608090Y-101508178D01*
X159639288Y-101457709D01*
X159664690Y-101400639D01*
X159682533Y-101340485D01*
X159692925Y-101277275D01*
X159695504Y-101213124D01*
X159677959Y-101089244D01*
X159633509Y-100979801D01*
X159566736Y-100890745D01*
X159480733Y-100824505D01*
X159376316Y-100782644D01*
X159316938Y-100771609D01*
X159252499Y-100767800D01*
X159252499Y-101680291D01*
X158972597Y-101680291D01*
X158972597Y-100515741D01*
X159252499Y-100515741D01*
X159340575Y-100520188D01*
G37*
G36*
X160198940Y-102477500D02*
G01*
X160478965Y-102477500D01*
X160478965Y-100517573D01*
X160198940Y-100517573D01*
X160198940Y-102477500D01*
G37*
G36*
X161769300Y-102134949D02*
G01*
X161719792Y-102171753D01*
X161665794Y-102201228D01*
X161612149Y-102221185D01*
X161554455Y-102233760D01*
X161489275Y-102238386D01*
X161430011Y-102234555D01*
X161374385Y-102223371D01*
X161272751Y-102180031D01*
X161182501Y-102108687D01*
X161103784Y-102007571D01*
X161039283Y-101874861D01*
X160994028Y-101711650D01*
X160974174Y-101525300D01*
X160974045Y-101520190D01*
X160975809Y-101425246D01*
X160985362Y-101331364D01*
X161002382Y-101241241D01*
X161026930Y-101154887D01*
X161057028Y-101077976D01*
X161093813Y-101006791D01*
X161133537Y-100947356D01*
X161178892Y-100894627D01*
X161225325Y-100853006D01*
X161276453Y-100818433D01*
X161328201Y-100793206D01*
X161383993Y-100775215D01*
X161489275Y-100762793D01*
X161549666Y-100766650D01*
X161606368Y-100778024D01*
X161658717Y-100796392D01*
X161707152Y-100821541D01*
X161746829Y-100849377D01*
X161900824Y-100636763D01*
X161839284Y-100597039D01*
X161773053Y-100564033D01*
X161704923Y-100539053D01*
X161632447Y-100521124D01*
X161489275Y-100507925D01*
X161410464Y-100511766D01*
X161335792Y-100523023D01*
X161197927Y-100566595D01*
X161074229Y-100637272D01*
X160964282Y-100735037D01*
X160869131Y-100860479D01*
X160791438Y-101013584D01*
X160735244Y-101192178D01*
X160705150Y-101390405D01*
X160702447Y-101556460D01*
X160710654Y-101660711D01*
X160726651Y-101763323D01*
X160749858Y-101861216D01*
X160780521Y-101955587D01*
X160816808Y-102041632D01*
X160859901Y-102122731D01*
X160906725Y-102193856D01*
X160959583Y-102259134D01*
X161014704Y-102314478D01*
X161075137Y-102363460D01*
X161137172Y-102403401D01*
X161203951Y-102436635D01*
X161272491Y-102461763D01*
X161345395Y-102479824D01*
X161489275Y-102493131D01*
X161567429Y-102489298D01*
X161641480Y-102478096D01*
X161779015Y-102434609D01*
X161903025Y-102363969D01*
X161917677Y-102353180D01*
X161769300Y-102134949D01*
G37*
G36*
X163201662Y-102477255D02*
G01*
X162918951Y-102477255D01*
X162840549Y-102219579D01*
X162356093Y-102219579D01*
X162283309Y-102477255D01*
X162000476Y-102477255D01*
X162146819Y-101967643D01*
X162428878Y-101967643D01*
X162762147Y-101967643D01*
X162588490Y-101399289D01*
X162428878Y-101967643D01*
X162146819Y-101967643D01*
X162563333Y-100517206D01*
X162613769Y-100517206D01*
X163201662Y-102477255D01*
G37*
G36*
X163676226Y-102225563D02*
G01*
X163676226Y-100517573D01*
X163396323Y-100517573D01*
X163396323Y-102477500D01*
X164194265Y-102477500D01*
X164194265Y-102225563D01*
X163676226Y-102225563D01*
G37*
G36*
X161314031Y-105494949D02*
G01*
X161264523Y-105531753D01*
X161210525Y-105561228D01*
X161156880Y-105581185D01*
X161099186Y-105593760D01*
X161034006Y-105598386D01*
X160974742Y-105594555D01*
X160919116Y-105583371D01*
X160817482Y-105540031D01*
X160727232Y-105468687D01*
X160648515Y-105367571D01*
X160584015Y-105234861D01*
X160538759Y-105071650D01*
X160518905Y-104885300D01*
X160518776Y-104880190D01*
X160520540Y-104785246D01*
X160530093Y-104691364D01*
X160547113Y-104601241D01*
X160571661Y-104514887D01*
X160601759Y-104437976D01*
X160638544Y-104366791D01*
X160678269Y-104307356D01*
X160723623Y-104254627D01*
X160770056Y-104213006D01*
X160821184Y-104178433D01*
X160872933Y-104153206D01*
X160928725Y-104135215D01*
X161034006Y-104122793D01*
X161094397Y-104126650D01*
X161151100Y-104138024D01*
X161203448Y-104156392D01*
X161251883Y-104181541D01*
X161291561Y-104209377D01*
X161445556Y-103996763D01*
X161384015Y-103957039D01*
X161317784Y-103924033D01*
X161249654Y-103899053D01*
X161177178Y-103881124D01*
X161034006Y-103867925D01*
X160955195Y-103871766D01*
X160880523Y-103883023D01*
X160742658Y-103926595D01*
X160618960Y-103997272D01*
X160509014Y-104095037D01*
X160413862Y-104220479D01*
X160336169Y-104373584D01*
X160279975Y-104552178D01*
X160249881Y-104750405D01*
X160247178Y-104916460D01*
X160255385Y-105020711D01*
X160271382Y-105123323D01*
X160294589Y-105221216D01*
X160325253Y-105315587D01*
X160361539Y-105401632D01*
X160404632Y-105482731D01*
X160451456Y-105553856D01*
X160504314Y-105619134D01*
X160559435Y-105674478D01*
X160619868Y-105723460D01*
X160681903Y-105763401D01*
X160748683Y-105796635D01*
X160817222Y-105821763D01*
X160890126Y-105839824D01*
X161034006Y-105853131D01*
X161112160Y-105849298D01*
X161186212Y-105838096D01*
X161323746Y-105794609D01*
X161447756Y-105723969D01*
X161462408Y-105713180D01*
X161314031Y-105494949D01*
G37*
G36*
X162196712Y-103856558D02*
G01*
X162254895Y-103872222D01*
X162311050Y-103895405D01*
X162365114Y-103926310D01*
X162416493Y-103964879D01*
X162465617Y-104011956D01*
X162511302Y-104067024D01*
X162554098Y-104131612D01*
X162592593Y-104204630D01*
X162627163Y-104288132D01*
X162656468Y-104380552D01*
X162680567Y-104484203D01*
X162698364Y-104597252D01*
X162709584Y-104722018D01*
X162713420Y-104856620D01*
X162702047Y-105082754D01*
X162664418Y-105300557D01*
X162605028Y-105478953D01*
X162528101Y-105620603D01*
X162437020Y-105728329D01*
X162386949Y-105770254D01*
X162334093Y-105804559D01*
X162278438Y-105831416D01*
X162220621Y-105850636D01*
X162159808Y-105862406D01*
X162097440Y-105866320D01*
X162004025Y-105857503D01*
X161889987Y-105819769D01*
X161836244Y-105789510D01*
X161785271Y-105751646D01*
X161736499Y-105705225D01*
X161691208Y-105650837D01*
X161648669Y-105586705D01*
X161610446Y-105514102D01*
X161576000Y-105430593D01*
X161546822Y-105338043D01*
X161522740Y-105233661D01*
X161504967Y-105119665D01*
X161493725Y-104993212D01*
X161489886Y-104856620D01*
X161769910Y-104856620D01*
X161770206Y-104894728D01*
X161775878Y-105021588D01*
X161788216Y-105134554D01*
X161806105Y-105232330D01*
X161829035Y-105317611D01*
X161855614Y-105389187D01*
X161885712Y-105449691D01*
X161917814Y-105498373D01*
X161952072Y-105537305D01*
X161987327Y-105566467D01*
X162023547Y-105586903D01*
X162060573Y-105599057D01*
X162097440Y-105603026D01*
X162105352Y-105602850D01*
X162142639Y-105597281D01*
X162180046Y-105583626D01*
X162217498Y-105561162D01*
X162253867Y-105529648D01*
X162289305Y-105487677D01*
X162322328Y-105435457D01*
X162352879Y-105371143D01*
X162379542Y-105295305D01*
X162401941Y-105206005D01*
X162418886Y-105103923D01*
X162429735Y-104987262D01*
X162433518Y-104856620D01*
X162433136Y-104814385D01*
X162427138Y-104690042D01*
X162414443Y-104579105D01*
X162396047Y-104482177D01*
X162372572Y-104397502D01*
X162345225Y-104325736D01*
X162314362Y-104265023D01*
X162281331Y-104215803D01*
X162246240Y-104176457D01*
X162210268Y-104146964D01*
X162173561Y-104126335D01*
X162136641Y-104114183D01*
X162100249Y-104110214D01*
X162092857Y-104110385D01*
X162056739Y-104116058D01*
X162020057Y-104130034D01*
X161982944Y-104153088D01*
X161946645Y-104185462D01*
X161911332Y-104228285D01*
X161878322Y-104281529D01*
X161848022Y-104346413D01*
X161821596Y-104422797D01*
X161799669Y-104511783D01*
X161783225Y-104613289D01*
X161773017Y-104728213D01*
X161769910Y-104856620D01*
X161489886Y-104856620D01*
X161500834Y-104632599D01*
X161537917Y-104413228D01*
X161596624Y-104234119D01*
X161672693Y-104092330D01*
X161762772Y-103984751D01*
X161812316Y-103942934D01*
X161864682Y-103908712D01*
X161919899Y-103881912D01*
X161977348Y-103862727D01*
X162037965Y-103850957D01*
X162100249Y-103847042D01*
X162196712Y-103856558D01*
G37*
G36*
X163509774Y-104994740D02*
G01*
X163322196Y-105837500D01*
X163098225Y-105837500D01*
X162795730Y-103877573D01*
X163078563Y-103877573D01*
X163246602Y-104958347D01*
X163509774Y-103958784D01*
X163772946Y-104958347D01*
X163940985Y-103877573D01*
X164223696Y-103877573D01*
X163921323Y-105837500D01*
X163697353Y-105837500D01*
X163509774Y-104994740D01*
G37*
G36*
X161663787Y-108854949D02*
G01*
X161614279Y-108891753D01*
X161560281Y-108921228D01*
X161506636Y-108941185D01*
X161448942Y-108953760D01*
X161383762Y-108958386D01*
X161324498Y-108954555D01*
X161268872Y-108943371D01*
X161167238Y-108900031D01*
X161076988Y-108828687D01*
X160998271Y-108727571D01*
X160933771Y-108594861D01*
X160888515Y-108431650D01*
X160868661Y-108245300D01*
X160868532Y-108240190D01*
X160870296Y-108145246D01*
X160879849Y-108051364D01*
X160896869Y-107961241D01*
X160921417Y-107874887D01*
X160951515Y-107797976D01*
X160988300Y-107726791D01*
X161028025Y-107667356D01*
X161073379Y-107614627D01*
X161119812Y-107573006D01*
X161170940Y-107538433D01*
X161222689Y-107513206D01*
X161278481Y-107495215D01*
X161383762Y-107482793D01*
X161444153Y-107486650D01*
X161500856Y-107498024D01*
X161553204Y-107516392D01*
X161601639Y-107541541D01*
X161641317Y-107569377D01*
X161795312Y-107356763D01*
X161733771Y-107317039D01*
X161667540Y-107284033D01*
X161599410Y-107259053D01*
X161526934Y-107241124D01*
X161383762Y-107227925D01*
X161304951Y-107231766D01*
X161230279Y-107243023D01*
X161092414Y-107286595D01*
X160968716Y-107357272D01*
X160858770Y-107455037D01*
X160763618Y-107580479D01*
X160685925Y-107733584D01*
X160629731Y-107912178D01*
X160599637Y-108110405D01*
X160596934Y-108276460D01*
X160605141Y-108380711D01*
X160621138Y-108483323D01*
X160644345Y-108581216D01*
X160675009Y-108675587D01*
X160711295Y-108761632D01*
X160754388Y-108842731D01*
X160801212Y-108913856D01*
X160854070Y-108979134D01*
X160909191Y-109034478D01*
X160969624Y-109083460D01*
X161031659Y-109123401D01*
X161098439Y-109156635D01*
X161166978Y-109181763D01*
X161239882Y-109199824D01*
X161383762Y-109213131D01*
X161461916Y-109209298D01*
X161535968Y-109198096D01*
X161673502Y-109154609D01*
X161797512Y-109083969D01*
X161812164Y-109073180D01*
X161663787Y-108854949D01*
G37*
G36*
X162546468Y-107216558D02*
G01*
X162604651Y-107232222D01*
X162660806Y-107255405D01*
X162714870Y-107286310D01*
X162766249Y-107324879D01*
X162815373Y-107371956D01*
X162861058Y-107427024D01*
X162903854Y-107491612D01*
X162942349Y-107564630D01*
X162976919Y-107648132D01*
X163006224Y-107740552D01*
X163030323Y-107844203D01*
X163048120Y-107957252D01*
X163059340Y-108082018D01*
X163063176Y-108216620D01*
X163051803Y-108442754D01*
X163014174Y-108660557D01*
X162954784Y-108838953D01*
X162877857Y-108980603D01*
X162786776Y-109088329D01*
X162736705Y-109130254D01*
X162683849Y-109164559D01*
X162628194Y-109191416D01*
X162570377Y-109210636D01*
X162509564Y-109222406D01*
X162447196Y-109226320D01*
X162353781Y-109217503D01*
X162239743Y-109179769D01*
X162186000Y-109149510D01*
X162135027Y-109111646D01*
X162086255Y-109065225D01*
X162040964Y-109010837D01*
X161998425Y-108946705D01*
X161960202Y-108874102D01*
X161925756Y-108790593D01*
X161896578Y-108698043D01*
X161872496Y-108593661D01*
X161854723Y-108479665D01*
X161843481Y-108353212D01*
X161839642Y-108216620D01*
X162119666Y-108216620D01*
X162119962Y-108254728D01*
X162125634Y-108381588D01*
X162137972Y-108494554D01*
X162155861Y-108592330D01*
X162178791Y-108677611D01*
X162205370Y-108749187D01*
X162235468Y-108809691D01*
X162267570Y-108858373D01*
X162301828Y-108897305D01*
X162337083Y-108926467D01*
X162373303Y-108946903D01*
X162410329Y-108959057D01*
X162447196Y-108963026D01*
X162455108Y-108962850D01*
X162492395Y-108957281D01*
X162529802Y-108943626D01*
X162567254Y-108921162D01*
X162603623Y-108889648D01*
X162639061Y-108847677D01*
X162672084Y-108795457D01*
X162702635Y-108731143D01*
X162729298Y-108655305D01*
X162751697Y-108566005D01*
X162768642Y-108463923D01*
X162779491Y-108347262D01*
X162783274Y-108216620D01*
X162782892Y-108174385D01*
X162776894Y-108050042D01*
X162764199Y-107939105D01*
X162745803Y-107842177D01*
X162722328Y-107757502D01*
X162694981Y-107685736D01*
X162664118Y-107625023D01*
X162631087Y-107575803D01*
X162595996Y-107536457D01*
X162560024Y-107506964D01*
X162523317Y-107486335D01*
X162486397Y-107474183D01*
X162450005Y-107470214D01*
X162442613Y-107470385D01*
X162406495Y-107476058D01*
X162369813Y-107490034D01*
X162332700Y-107513088D01*
X162296401Y-107545462D01*
X162261088Y-107588285D01*
X162228078Y-107641529D01*
X162197778Y-107706413D01*
X162171352Y-107782797D01*
X162149425Y-107871783D01*
X162132981Y-107973289D01*
X162122773Y-108088213D01*
X162119666Y-108216620D01*
X161839642Y-108216620D01*
X161850590Y-107992599D01*
X161887673Y-107773228D01*
X161946380Y-107594119D01*
X162022449Y-107452330D01*
X162112528Y-107344751D01*
X162162072Y-107302934D01*
X162214438Y-107268712D01*
X162269655Y-107241912D01*
X162327104Y-107222727D01*
X162387721Y-107210957D01*
X162450005Y-107207042D01*
X162546468Y-107216558D01*
G37*
G36*
X163230238Y-108931519D02*
G01*
X163230238Y-109197500D01*
X163496219Y-109197500D01*
X163496219Y-108931519D01*
X163230238Y-108931519D01*
G37*
G36*
X99763402Y-98119147D02*
G01*
X100026972Y-98175177D01*
X100263070Y-98277563D01*
X100463539Y-98419806D01*
X100624457Y-98597019D01*
X100743638Y-98806882D01*
X100786717Y-98923670D01*
X100818489Y-99049505D01*
X100838037Y-99183626D01*
X100844738Y-99326696D01*
X101795331Y-99326696D01*
X101795331Y-99816525D01*
X98365673Y-99816525D01*
X98365673Y-99326696D01*
X98806776Y-99326696D01*
X100403635Y-99326696D01*
X100379568Y-99117692D01*
X100348110Y-99018406D01*
X100305193Y-98928679D01*
X100248896Y-98844536D01*
X100182533Y-98770991D01*
X100102438Y-98704412D01*
X100014117Y-98649816D01*
X99914245Y-98605362D01*
X99808975Y-98574137D01*
X99698357Y-98555951D01*
X99586094Y-98551438D01*
X99369304Y-98582142D01*
X99177778Y-98659929D01*
X99021929Y-98776781D01*
X98906010Y-98927288D01*
X98832753Y-99110016D01*
X98813442Y-99213928D01*
X98806776Y-99326696D01*
X98365673Y-99326696D01*
X98388836Y-99065608D01*
X98419780Y-98936565D01*
X98462514Y-98816882D01*
X98518065Y-98703132D01*
X98584263Y-98599360D01*
X98663729Y-98501606D01*
X98752634Y-98414741D01*
X98854838Y-98335310D01*
X98964920Y-98267864D01*
X99086601Y-98210343D01*
X99213984Y-98165830D01*
X99348685Y-98133752D01*
X99486275Y-98115289D01*
X99763402Y-98119147D01*
G37*
G36*
X101798323Y-96651229D02*
G01*
X101347390Y-96788433D01*
X101347390Y-97636230D01*
X101798323Y-97763603D01*
X101798323Y-98258561D01*
X98368238Y-97273560D01*
X98368238Y-97229535D01*
X99911883Y-97229535D01*
X100906501Y-97508858D01*
X100906501Y-96925636D01*
X99911883Y-97229535D01*
X98368238Y-97229535D01*
X98368238Y-97185297D01*
X101798323Y-96156485D01*
X101798323Y-96651229D01*
G37*
G36*
X100850294Y-94467301D02*
G01*
X100582719Y-94492792D01*
X100331129Y-94567321D01*
X100085751Y-94691672D01*
X99831717Y-94873066D01*
X99641178Y-95034237D01*
X99502764Y-95152240D01*
X99373230Y-95249349D01*
X99249318Y-95315208D01*
X99127772Y-95339462D01*
X99053478Y-95332822D01*
X98987137Y-95313700D01*
X98879254Y-95242396D01*
X98805559Y-95130723D01*
X98773204Y-94983240D01*
X98775866Y-94898714D01*
X98792466Y-94811051D01*
X98809768Y-94756454D01*
X98368879Y-94756454D01*
X98346386Y-94874209D01*
X98337729Y-94990518D01*
X98342688Y-95104882D01*
X98361060Y-95215173D01*
X98392125Y-95318971D01*
X98435711Y-95416239D01*
X98489845Y-95503397D01*
X98555273Y-95582011D01*
X98628901Y-95648714D01*
X98712553Y-95705317D01*
X98803009Y-95749568D01*
X98902432Y-95782377D01*
X99008556Y-95802533D01*
X99122892Y-95809832D01*
X99127772Y-95809843D01*
X99328794Y-95784348D01*
X99520059Y-95708993D01*
X99721480Y-95576298D01*
X99943011Y-95387729D01*
X100135481Y-95221886D01*
X100342661Y-95076021D01*
X100455606Y-95017498D01*
X100576836Y-94972270D01*
X100707887Y-94943104D01*
X100850294Y-94932767D01*
X100957680Y-94939434D01*
X101050948Y-94958749D01*
X101127638Y-94988137D01*
X101192609Y-95027268D01*
X101289684Y-95130989D01*
X101349517Y-95271720D01*
X101370512Y-95456554D01*
X101344197Y-95690361D01*
X101280925Y-95912853D01*
X101746177Y-95912853D01*
X101787931Y-95763511D01*
X101814554Y-95618392D01*
X101826383Y-95479621D01*
X101824126Y-95346515D01*
X101808521Y-95221832D01*
X101779998Y-95104089D01*
X101739876Y-94996175D01*
X101688033Y-94896294D01*
X101626194Y-94806879D01*
X101553740Y-94726465D01*
X101472289Y-94656672D01*
X101381142Y-94596845D01*
X101281223Y-94547855D01*
X101172314Y-94509917D01*
X101054294Y-94483561D01*
X100927818Y-94469541D01*
X100850294Y-94467301D01*
G37*
G36*
X100850294Y-92730246D02*
G01*
X100582719Y-92755737D01*
X100331129Y-92830266D01*
X100085751Y-92954617D01*
X99831717Y-93136011D01*
X99641178Y-93297182D01*
X99502764Y-93415185D01*
X99373230Y-93512294D01*
X99249318Y-93578153D01*
X99127772Y-93602407D01*
X99053478Y-93595767D01*
X98987137Y-93576645D01*
X98879254Y-93505341D01*
X98805559Y-93393668D01*
X98773204Y-93246185D01*
X98775866Y-93161659D01*
X98792466Y-93073996D01*
X98809768Y-93019399D01*
X98368879Y-93019399D01*
X98346386Y-93137153D01*
X98337729Y-93253463D01*
X98342688Y-93367827D01*
X98361060Y-93478118D01*
X98392125Y-93581916D01*
X98435711Y-93679184D01*
X98489845Y-93766342D01*
X98555273Y-93844956D01*
X98628901Y-93911659D01*
X98712553Y-93968262D01*
X98803009Y-94012513D01*
X98902432Y-94045322D01*
X99008556Y-94065478D01*
X99122892Y-94072777D01*
X99127772Y-94072788D01*
X99328794Y-94047293D01*
X99520059Y-93971938D01*
X99721480Y-93839243D01*
X99943011Y-93650674D01*
X100135481Y-93484831D01*
X100342661Y-93338966D01*
X100455606Y-93280443D01*
X100576836Y-93235215D01*
X100707887Y-93206049D01*
X100850294Y-93195712D01*
X100957680Y-93202379D01*
X101050948Y-93221693D01*
X101127638Y-93251082D01*
X101192609Y-93290213D01*
X101289684Y-93393934D01*
X101349517Y-93534665D01*
X101370512Y-93719499D01*
X101344197Y-93953306D01*
X101280925Y-94175798D01*
X101746177Y-94175798D01*
X101787931Y-94026456D01*
X101814554Y-93881337D01*
X101826383Y-93742566D01*
X101824126Y-93609460D01*
X101808521Y-93484777D01*
X101779998Y-93367034D01*
X101739876Y-93259120D01*
X101688033Y-93159239D01*
X101626194Y-93069824D01*
X101553740Y-92989410D01*
X101472289Y-92919617D01*
X101381142Y-92859790D01*
X101281223Y-92810800D01*
X101172314Y-92772862D01*
X101054294Y-92746506D01*
X100927818Y-92732486D01*
X100850294Y-92730246D01*
G37*
G36*
X99763402Y-90692210D02*
G01*
X100026972Y-90748240D01*
X100263070Y-90850626D01*
X100463539Y-90992870D01*
X100624457Y-91170083D01*
X100743638Y-91379946D01*
X100786717Y-91496734D01*
X100818489Y-91622568D01*
X100838037Y-91756690D01*
X100844738Y-91899760D01*
X101795331Y-91899760D01*
X101795331Y-92389589D01*
X98365673Y-92389589D01*
X98365673Y-91899760D01*
X98806776Y-91899760D01*
X100403635Y-91899760D01*
X100379568Y-91690755D01*
X100348110Y-91591469D01*
X100305193Y-91501742D01*
X100248896Y-91417600D01*
X100182533Y-91344055D01*
X100102438Y-91277475D01*
X100014117Y-91222879D01*
X99914245Y-91178426D01*
X99808975Y-91147200D01*
X99698357Y-91129014D01*
X99586094Y-91124501D01*
X99369304Y-91155205D01*
X99177778Y-91232993D01*
X99021929Y-91349845D01*
X98906010Y-91500351D01*
X98832753Y-91683080D01*
X98813442Y-91786992D01*
X98806776Y-91899760D01*
X98365673Y-91899760D01*
X98388836Y-91638671D01*
X98419780Y-91509629D01*
X98462514Y-91389945D01*
X98518065Y-91276196D01*
X98584263Y-91172423D01*
X98663729Y-91074670D01*
X98752634Y-90987804D01*
X98854838Y-90908374D01*
X98964920Y-90840928D01*
X99086601Y-90783407D01*
X99213984Y-90738893D01*
X99348685Y-90706816D01*
X99486275Y-90688352D01*
X99763402Y-90692210D01*
G37*
G36*
X101798323Y-89224293D02*
G01*
X101347390Y-89361496D01*
X101347390Y-90209294D01*
X101798323Y-90336666D01*
X101798323Y-90831625D01*
X98368238Y-89846624D01*
X98368238Y-89802599D01*
X99911883Y-89802599D01*
X100906501Y-90081921D01*
X100906501Y-89498700D01*
X99911883Y-89802599D01*
X98368238Y-89802599D01*
X98368238Y-89758360D01*
X101798323Y-88729549D01*
X101798323Y-89224293D01*
G37*
G36*
X100547358Y-86484838D02*
G01*
X100881629Y-86569540D01*
X101165584Y-86691238D01*
X101394873Y-86841413D01*
X101570652Y-87014227D01*
X101695874Y-87207204D01*
X101772335Y-87421053D01*
X101792029Y-87536711D01*
X101798751Y-87658849D01*
X101798751Y-88388891D01*
X98365673Y-88388891D01*
X98365673Y-87663764D01*
X98806776Y-87663764D01*
X98806776Y-87899062D01*
X101357862Y-87899062D01*
X101357862Y-87658849D01*
X101355609Y-87606253D01*
X101340661Y-87516616D01*
X101312480Y-87432940D01*
X101268242Y-87349288D01*
X101210773Y-87272580D01*
X101132667Y-87195386D01*
X101041162Y-87126784D01*
X100925018Y-87060299D01*
X100796303Y-87004531D01*
X100644321Y-86955965D01*
X100482851Y-86920109D01*
X100308325Y-86896338D01*
X100129798Y-86886237D01*
X99780437Y-86906067D01*
X99471954Y-86972043D01*
X99223318Y-87071876D01*
X99037515Y-87194702D01*
X98909418Y-87334195D01*
X98833041Y-87489356D01*
X98813478Y-87573801D01*
X98806776Y-87663764D01*
X98365673Y-87663764D01*
X98366011Y-87635982D01*
X98375897Y-87513734D01*
X98398923Y-87398097D01*
X98435886Y-87285197D01*
X98485369Y-87179406D01*
X98550589Y-87075019D01*
X98627990Y-86978623D01*
X98723793Y-86883801D01*
X98831367Y-86798241D01*
X98959344Y-86716255D01*
X99098105Y-86645071D01*
X99256496Y-86580975D01*
X99423585Y-86529207D01*
X99605021Y-86488369D01*
X99791782Y-86460934D01*
X99983440Y-86446842D01*
X100176207Y-86446396D01*
X100547358Y-86484838D01*
G37*
G36*
X101798751Y-83904348D02*
G01*
X98368879Y-82875536D01*
X98368879Y-83370280D01*
X100255319Y-83948586D01*
X98368879Y-84482654D01*
X98368879Y-84977612D01*
X101798751Y-83992611D01*
X101798751Y-83904348D01*
G37*
G36*
X101798751Y-82388058D02*
G01*
X101798751Y-81922378D01*
X98368879Y-81922378D01*
X98368879Y-82010642D01*
X98966633Y-82388058D01*
X101798751Y-82388058D01*
G37*
D11*
X148697322Y-104024757D02*
X148554465Y-103953328D01*
X148554465Y-103953328D02*
X148340179Y-103953328D01*
X148340179Y-103953328D02*
X148125893Y-104024757D01*
X148125893Y-104024757D02*
X147983036Y-104167614D01*
X147983036Y-104167614D02*
X147911607Y-104310471D01*
X147911607Y-104310471D02*
X147840179Y-104596185D01*
X147840179Y-104596185D02*
X147840179Y-104810471D01*
X147840179Y-104810471D02*
X147911607Y-105096185D01*
X147911607Y-105096185D02*
X147983036Y-105239042D01*
X147983036Y-105239042D02*
X148125893Y-105381900D01*
X148125893Y-105381900D02*
X148340179Y-105453328D01*
X148340179Y-105453328D02*
X148483036Y-105453328D01*
X148483036Y-105453328D02*
X148697322Y-105381900D01*
X148697322Y-105381900D02*
X148768750Y-105310471D01*
X148768750Y-105310471D02*
X148768750Y-104810471D01*
X148768750Y-104810471D02*
X148483036Y-104810471D01*
X149625893Y-103953328D02*
X149625893Y-104310471D01*
X149268750Y-104167614D02*
X149625893Y-104310471D01*
X149625893Y-104310471D02*
X149983036Y-104167614D01*
X149411607Y-104596185D02*
X149625893Y-104310471D01*
X149625893Y-104310471D02*
X149840179Y-104596185D01*
X150768750Y-103953328D02*
X150768750Y-104310471D01*
X150411607Y-104167614D02*
X150768750Y-104310471D01*
X150768750Y-104310471D02*
X151125893Y-104167614D01*
X150554464Y-104596185D02*
X150768750Y-104310471D01*
X150768750Y-104310471D02*
X150983036Y-104596185D01*
X151911607Y-103953328D02*
X151911607Y-104310471D01*
X151554464Y-104167614D02*
X151911607Y-104310471D01*
X151911607Y-104310471D02*
X152268750Y-104167614D01*
X151697321Y-104596185D02*
X151911607Y-104310471D01*
X151911607Y-104310471D02*
X152125893Y-104596185D01*
D12*
X165479646Y-68694287D02*
X165479646Y-67694287D01*
X165479646Y-68170477D02*
X166051074Y-68170477D01*
X166051074Y-68694287D02*
X166051074Y-67694287D01*
X166955836Y-68027620D02*
X166955836Y-68694287D01*
X166717741Y-67646668D02*
X166479646Y-68360953D01*
X166479646Y-68360953D02*
X167098693Y-68360953D01*
X165424954Y-108280593D02*
X165424954Y-107280593D01*
X165424954Y-107756783D02*
X165996382Y-107756783D01*
X165996382Y-108280593D02*
X165996382Y-107280593D01*
X166377335Y-107280593D02*
X166996382Y-107280593D01*
X166996382Y-107280593D02*
X166663049Y-107661545D01*
X166663049Y-107661545D02*
X166805906Y-107661545D01*
X166805906Y-107661545D02*
X166901144Y-107709164D01*
X166901144Y-107709164D02*
X166948763Y-107756783D01*
X166948763Y-107756783D02*
X166996382Y-107852021D01*
X166996382Y-107852021D02*
X166996382Y-108090116D01*
X166996382Y-108090116D02*
X166948763Y-108185354D01*
X166948763Y-108185354D02*
X166901144Y-108232974D01*
X166901144Y-108232974D02*
X166805906Y-108280593D01*
X166805906Y-108280593D02*
X166520192Y-108280593D01*
X166520192Y-108280593D02*
X166424954Y-108232974D01*
X166424954Y-108232974D02*
X166377335Y-108185354D01*
X97255744Y-108312027D02*
X97255744Y-107312027D01*
X97255744Y-107788217D02*
X97827172Y-107788217D01*
X97827172Y-108312027D02*
X97827172Y-107312027D01*
X98255744Y-107407265D02*
X98303363Y-107359646D01*
X98303363Y-107359646D02*
X98398601Y-107312027D01*
X98398601Y-107312027D02*
X98636696Y-107312027D01*
X98636696Y-107312027D02*
X98731934Y-107359646D01*
X98731934Y-107359646D02*
X98779553Y-107407265D01*
X98779553Y-107407265D02*
X98827172Y-107502503D01*
X98827172Y-107502503D02*
X98827172Y-107597741D01*
X98827172Y-107597741D02*
X98779553Y-107740598D01*
X98779553Y-107740598D02*
X98208125Y-108312027D01*
X98208125Y-108312027D02*
X98827172Y-108312027D01*
X97294929Y-68663371D02*
X97294929Y-67663371D01*
X97294929Y-68139561D02*
X97866357Y-68139561D01*
X97866357Y-68663371D02*
X97866357Y-67663371D01*
X98866357Y-68663371D02*
X98294929Y-68663371D01*
X98580643Y-68663371D02*
X98580643Y-67663371D01*
X98580643Y-67663371D02*
X98485405Y-67806228D01*
X98485405Y-67806228D02*
X98390167Y-67901466D01*
X98390167Y-67901466D02*
X98294929Y-67949085D01*
D13*
X141605276Y-67167829D02*
X141605276Y-67681876D01*
X141605276Y-67681876D02*
X141635514Y-67742352D01*
X141635514Y-67742352D02*
X141665752Y-67772591D01*
X141665752Y-67772591D02*
X141726228Y-67802829D01*
X141726228Y-67802829D02*
X141847181Y-67802829D01*
X141847181Y-67802829D02*
X141907657Y-67772591D01*
X141907657Y-67772591D02*
X141937895Y-67742352D01*
X141937895Y-67742352D02*
X141968133Y-67681876D01*
X141968133Y-67681876D02*
X141968133Y-67167829D01*
X142603133Y-67802829D02*
X142240276Y-67802829D01*
X142421704Y-67802829D02*
X142421704Y-67167829D01*
X142421704Y-67167829D02*
X142361228Y-67258543D01*
X142361228Y-67258543D02*
X142300752Y-67319019D01*
X142300752Y-67319019D02*
X142240276Y-67349257D01*
D12*
X127570117Y-74354228D02*
X127712974Y-74401847D01*
X127712974Y-74401847D02*
X127951069Y-74401847D01*
X127951069Y-74401847D02*
X128046307Y-74354228D01*
X128046307Y-74354228D02*
X128093926Y-74306608D01*
X128093926Y-74306608D02*
X128141545Y-74211370D01*
X128141545Y-74211370D02*
X128141545Y-74116132D01*
X128141545Y-74116132D02*
X128093926Y-74020894D01*
X128093926Y-74020894D02*
X128046307Y-73973275D01*
X128046307Y-73973275D02*
X127951069Y-73925656D01*
X127951069Y-73925656D02*
X127760593Y-73878037D01*
X127760593Y-73878037D02*
X127665355Y-73830418D01*
X127665355Y-73830418D02*
X127617736Y-73782799D01*
X127617736Y-73782799D02*
X127570117Y-73687561D01*
X127570117Y-73687561D02*
X127570117Y-73592323D01*
X127570117Y-73592323D02*
X127617736Y-73497085D01*
X127617736Y-73497085D02*
X127665355Y-73449466D01*
X127665355Y-73449466D02*
X127760593Y-73401847D01*
X127760593Y-73401847D02*
X127998688Y-73401847D01*
X127998688Y-73401847D02*
X128141545Y-73449466D01*
X128474879Y-73401847D02*
X128712974Y-74401847D01*
X128712974Y-74401847D02*
X128903450Y-73687561D01*
X128903450Y-73687561D02*
X129093926Y-74401847D01*
X129093926Y-74401847D02*
X129332022Y-73401847D01*
X129665355Y-73497085D02*
X129712974Y-73449466D01*
X129712974Y-73449466D02*
X129808212Y-73401847D01*
X129808212Y-73401847D02*
X130046307Y-73401847D01*
X130046307Y-73401847D02*
X130141545Y-73449466D01*
X130141545Y-73449466D02*
X130189164Y-73497085D01*
X130189164Y-73497085D02*
X130236783Y-73592323D01*
X130236783Y-73592323D02*
X130236783Y-73687561D01*
X130236783Y-73687561D02*
X130189164Y-73830418D01*
X130189164Y-73830418D02*
X129617736Y-74401847D01*
X129617736Y-74401847D02*
X130236783Y-74401847D01*
X122804167Y-93219700D02*
X122947024Y-93267319D01*
X122947024Y-93267319D02*
X123185119Y-93267319D01*
X123185119Y-93267319D02*
X123280357Y-93219700D01*
X123280357Y-93219700D02*
X123327976Y-93172080D01*
X123327976Y-93172080D02*
X123375595Y-93076842D01*
X123375595Y-93076842D02*
X123375595Y-92981604D01*
X123375595Y-92981604D02*
X123327976Y-92886366D01*
X123327976Y-92886366D02*
X123280357Y-92838747D01*
X123280357Y-92838747D02*
X123185119Y-92791128D01*
X123185119Y-92791128D02*
X122994643Y-92743509D01*
X122994643Y-92743509D02*
X122899405Y-92695890D01*
X122899405Y-92695890D02*
X122851786Y-92648271D01*
X122851786Y-92648271D02*
X122804167Y-92553033D01*
X122804167Y-92553033D02*
X122804167Y-92457795D01*
X122804167Y-92457795D02*
X122851786Y-92362557D01*
X122851786Y-92362557D02*
X122899405Y-92314938D01*
X122899405Y-92314938D02*
X122994643Y-92267319D01*
X122994643Y-92267319D02*
X123232738Y-92267319D01*
X123232738Y-92267319D02*
X123375595Y-92314938D01*
X123708929Y-92267319D02*
X123947024Y-93267319D01*
X123947024Y-93267319D02*
X124137500Y-92553033D01*
X124137500Y-92553033D02*
X124327976Y-93267319D01*
X124327976Y-93267319D02*
X124566072Y-92267319D01*
X125470833Y-93267319D02*
X124899405Y-93267319D01*
X125185119Y-93267319D02*
X125185119Y-92267319D01*
X125185119Y-92267319D02*
X125089881Y-92410176D01*
X125089881Y-92410176D02*
X124994643Y-92505414D01*
X124994643Y-92505414D02*
X124899405Y-92553033D01*
X110542916Y-107873569D02*
X110542916Y-108587854D01*
X110542916Y-108587854D02*
X110495297Y-108730711D01*
X110495297Y-108730711D02*
X110400059Y-108825950D01*
X110400059Y-108825950D02*
X110257202Y-108873569D01*
X110257202Y-108873569D02*
X110161964Y-108873569D01*
X111542916Y-108873569D02*
X110971488Y-108873569D01*
X111257202Y-108873569D02*
X111257202Y-107873569D01*
X111257202Y-107873569D02*
X111161964Y-108016426D01*
X111161964Y-108016426D02*
X111066726Y-108111664D01*
X111066726Y-108111664D02*
X110971488Y-108159283D01*
X110421069Y-95247321D02*
X110421069Y-95056845D01*
X110421069Y-95056845D02*
X110468688Y-94961607D01*
X110468688Y-94961607D02*
X110563926Y-94866369D01*
X110563926Y-94866369D02*
X110754402Y-94818750D01*
X110754402Y-94818750D02*
X111087735Y-94818750D01*
X111087735Y-94818750D02*
X111278211Y-94866369D01*
X111278211Y-94866369D02*
X111373450Y-94961607D01*
X111373450Y-94961607D02*
X111421069Y-95056845D01*
X111421069Y-95056845D02*
X111421069Y-95247321D01*
X111421069Y-95247321D02*
X111373450Y-95342559D01*
X111373450Y-95342559D02*
X111278211Y-95437797D01*
X111278211Y-95437797D02*
X111087735Y-95485416D01*
X111087735Y-95485416D02*
X110754402Y-95485416D01*
X110754402Y-95485416D02*
X110563926Y-95437797D01*
X110563926Y-95437797D02*
X110468688Y-95342559D01*
X110468688Y-95342559D02*
X110421069Y-95247321D01*
X111421069Y-93913988D02*
X111421069Y-94390178D01*
X111421069Y-94390178D02*
X110421069Y-94390178D01*
X110897259Y-93580654D02*
X110897259Y-93247321D01*
X111421069Y-93104464D02*
X111421069Y-93580654D01*
X111421069Y-93580654D02*
X110421069Y-93580654D01*
X110421069Y-93580654D02*
X110421069Y-93104464D01*
X111421069Y-92675892D02*
X110421069Y-92675892D01*
X110421069Y-92675892D02*
X110421069Y-92437797D01*
X110421069Y-92437797D02*
X110468688Y-92294940D01*
X110468688Y-92294940D02*
X110563926Y-92199702D01*
X110563926Y-92199702D02*
X110659164Y-92152083D01*
X110659164Y-92152083D02*
X110849640Y-92104464D01*
X110849640Y-92104464D02*
X110992497Y-92104464D01*
X110992497Y-92104464D02*
X111182973Y-92152083D01*
X111182973Y-92152083D02*
X111278211Y-92199702D01*
X111278211Y-92199702D02*
X111373450Y-92294940D01*
X111373450Y-92294940D02*
X111421069Y-92437797D01*
X111421069Y-92437797D02*
X111421069Y-92675892D01*
X111421069Y-90913987D02*
X110421069Y-90913987D01*
X110421069Y-90913987D02*
X110421069Y-90533035D01*
X110421069Y-90533035D02*
X110468688Y-90437797D01*
X110468688Y-90437797D02*
X110516307Y-90390178D01*
X110516307Y-90390178D02*
X110611545Y-90342559D01*
X110611545Y-90342559D02*
X110754402Y-90342559D01*
X110754402Y-90342559D02*
X110849640Y-90390178D01*
X110849640Y-90390178D02*
X110897259Y-90437797D01*
X110897259Y-90437797D02*
X110944878Y-90533035D01*
X110944878Y-90533035D02*
X110944878Y-90913987D01*
X111421069Y-89485416D02*
X110897259Y-89485416D01*
X110897259Y-89485416D02*
X110802021Y-89533035D01*
X110802021Y-89533035D02*
X110754402Y-89628273D01*
X110754402Y-89628273D02*
X110754402Y-89818749D01*
X110754402Y-89818749D02*
X110802021Y-89913987D01*
X111373450Y-89485416D02*
X111421069Y-89580654D01*
X111421069Y-89580654D02*
X111421069Y-89818749D01*
X111421069Y-89818749D02*
X111373450Y-89913987D01*
X111373450Y-89913987D02*
X111278211Y-89961606D01*
X111278211Y-89961606D02*
X111182973Y-89961606D01*
X111182973Y-89961606D02*
X111087735Y-89913987D01*
X111087735Y-89913987D02*
X111040116Y-89818749D01*
X111040116Y-89818749D02*
X111040116Y-89580654D01*
X111040116Y-89580654D02*
X110992497Y-89485416D01*
X110754402Y-89009225D02*
X111421069Y-89009225D01*
X110849640Y-89009225D02*
X110802021Y-88961606D01*
X110802021Y-88961606D02*
X110754402Y-88866368D01*
X110754402Y-88866368D02*
X110754402Y-88723511D01*
X110754402Y-88723511D02*
X110802021Y-88628273D01*
X110802021Y-88628273D02*
X110897259Y-88580654D01*
X110897259Y-88580654D02*
X111421069Y-88580654D01*
X111373450Y-87723511D02*
X111421069Y-87818749D01*
X111421069Y-87818749D02*
X111421069Y-88009225D01*
X111421069Y-88009225D02*
X111373450Y-88104463D01*
X111373450Y-88104463D02*
X111278211Y-88152082D01*
X111278211Y-88152082D02*
X110897259Y-88152082D01*
X110897259Y-88152082D02*
X110802021Y-88104463D01*
X110802021Y-88104463D02*
X110754402Y-88009225D01*
X110754402Y-88009225D02*
X110754402Y-87818749D01*
X110754402Y-87818749D02*
X110802021Y-87723511D01*
X110802021Y-87723511D02*
X110897259Y-87675892D01*
X110897259Y-87675892D02*
X110992497Y-87675892D01*
X110992497Y-87675892D02*
X111087735Y-88152082D01*
X111421069Y-87104463D02*
X111373450Y-87199701D01*
X111373450Y-87199701D02*
X111278211Y-87247320D01*
X111278211Y-87247320D02*
X110421069Y-87247320D01*
X106584821Y-75443628D02*
X106513393Y-75407914D01*
X106513393Y-75407914D02*
X106406250Y-75407914D01*
X106406250Y-75407914D02*
X106299107Y-75443628D01*
X106299107Y-75443628D02*
X106227678Y-75515057D01*
X106227678Y-75515057D02*
X106191964Y-75586485D01*
X106191964Y-75586485D02*
X106156250Y-75729342D01*
X106156250Y-75729342D02*
X106156250Y-75836485D01*
X106156250Y-75836485D02*
X106191964Y-75979342D01*
X106191964Y-75979342D02*
X106227678Y-76050771D01*
X106227678Y-76050771D02*
X106299107Y-76122200D01*
X106299107Y-76122200D02*
X106406250Y-76157914D01*
X106406250Y-76157914D02*
X106477678Y-76157914D01*
X106477678Y-76157914D02*
X106584821Y-76122200D01*
X106584821Y-76122200D02*
X106620535Y-76086485D01*
X106620535Y-76086485D02*
X106620535Y-75836485D01*
X106620535Y-75836485D02*
X106477678Y-75836485D01*
X106941964Y-76157914D02*
X106941964Y-75407914D01*
X106941964Y-75407914D02*
X107370535Y-76157914D01*
X107370535Y-76157914D02*
X107370535Y-75407914D01*
X107727678Y-76157914D02*
X107727678Y-75407914D01*
X107727678Y-75407914D02*
X107906249Y-75407914D01*
X107906249Y-75407914D02*
X108013392Y-75443628D01*
X108013392Y-75443628D02*
X108084821Y-75515057D01*
X108084821Y-75515057D02*
X108120535Y-75586485D01*
X108120535Y-75586485D02*
X108156249Y-75729342D01*
X108156249Y-75729342D02*
X108156249Y-75836485D01*
X108156249Y-75836485D02*
X108120535Y-75979342D01*
X108120535Y-75979342D02*
X108084821Y-76050771D01*
X108084821Y-76050771D02*
X108013392Y-76122200D01*
X108013392Y-76122200D02*
X107906249Y-76157914D01*
X107906249Y-76157914D02*
X107727678Y-76157914D01*
X108696250Y-75407914D02*
X108946250Y-76157914D01*
X108946250Y-76157914D02*
X109196250Y-75407914D01*
X109874821Y-76086485D02*
X109839107Y-76122200D01*
X109839107Y-76122200D02*
X109731964Y-76157914D01*
X109731964Y-76157914D02*
X109660536Y-76157914D01*
X109660536Y-76157914D02*
X109553393Y-76122200D01*
X109553393Y-76122200D02*
X109481964Y-76050771D01*
X109481964Y-76050771D02*
X109446250Y-75979342D01*
X109446250Y-75979342D02*
X109410536Y-75836485D01*
X109410536Y-75836485D02*
X109410536Y-75729342D01*
X109410536Y-75729342D02*
X109446250Y-75586485D01*
X109446250Y-75586485D02*
X109481964Y-75515057D01*
X109481964Y-75515057D02*
X109553393Y-75443628D01*
X109553393Y-75443628D02*
X109660536Y-75407914D01*
X109660536Y-75407914D02*
X109731964Y-75407914D01*
X109731964Y-75407914D02*
X109839107Y-75443628D01*
X109839107Y-75443628D02*
X109874821Y-75479342D01*
X110624821Y-76086485D02*
X110589107Y-76122200D01*
X110589107Y-76122200D02*
X110481964Y-76157914D01*
X110481964Y-76157914D02*
X110410536Y-76157914D01*
X110410536Y-76157914D02*
X110303393Y-76122200D01*
X110303393Y-76122200D02*
X110231964Y-76050771D01*
X110231964Y-76050771D02*
X110196250Y-75979342D01*
X110196250Y-75979342D02*
X110160536Y-75836485D01*
X110160536Y-75836485D02*
X110160536Y-75729342D01*
X110160536Y-75729342D02*
X110196250Y-75586485D01*
X110196250Y-75586485D02*
X110231964Y-75515057D01*
X110231964Y-75515057D02*
X110303393Y-75443628D01*
X110303393Y-75443628D02*
X110410536Y-75407914D01*
X110410536Y-75407914D02*
X110481964Y-75407914D01*
X110481964Y-75407914D02*
X110589107Y-75443628D01*
X110589107Y-75443628D02*
X110624821Y-75479342D01*
X111343393Y-76122200D02*
X111450536Y-76157914D01*
X111450536Y-76157914D02*
X111629107Y-76157914D01*
X111629107Y-76157914D02*
X111700536Y-76122200D01*
X111700536Y-76122200D02*
X111736250Y-76086485D01*
X111736250Y-76086485D02*
X111771964Y-76015057D01*
X111771964Y-76015057D02*
X111771964Y-75943628D01*
X111771964Y-75943628D02*
X111736250Y-75872200D01*
X111736250Y-75872200D02*
X111700536Y-75836485D01*
X111700536Y-75836485D02*
X111629107Y-75800771D01*
X111629107Y-75800771D02*
X111486250Y-75765057D01*
X111486250Y-75765057D02*
X111414821Y-75729342D01*
X111414821Y-75729342D02*
X111379107Y-75693628D01*
X111379107Y-75693628D02*
X111343393Y-75622200D01*
X111343393Y-75622200D02*
X111343393Y-75550771D01*
X111343393Y-75550771D02*
X111379107Y-75479342D01*
X111379107Y-75479342D02*
X111414821Y-75443628D01*
X111414821Y-75443628D02*
X111486250Y-75407914D01*
X111486250Y-75407914D02*
X111664821Y-75407914D01*
X111664821Y-75407914D02*
X111771964Y-75443628D01*
X112521964Y-76086485D02*
X112486250Y-76122200D01*
X112486250Y-76122200D02*
X112379107Y-76157914D01*
X112379107Y-76157914D02*
X112307679Y-76157914D01*
X112307679Y-76157914D02*
X112200536Y-76122200D01*
X112200536Y-76122200D02*
X112129107Y-76050771D01*
X112129107Y-76050771D02*
X112093393Y-75979342D01*
X112093393Y-75979342D02*
X112057679Y-75836485D01*
X112057679Y-75836485D02*
X112057679Y-75729342D01*
X112057679Y-75729342D02*
X112093393Y-75586485D01*
X112093393Y-75586485D02*
X112129107Y-75515057D01*
X112129107Y-75515057D02*
X112200536Y-75443628D01*
X112200536Y-75443628D02*
X112307679Y-75407914D01*
X112307679Y-75407914D02*
X112379107Y-75407914D01*
X112379107Y-75407914D02*
X112486250Y-75443628D01*
X112486250Y-75443628D02*
X112521964Y-75479342D01*
X113200536Y-76157914D02*
X112843393Y-76157914D01*
X112843393Y-76157914D02*
X112843393Y-75407914D01*
X113865536Y-76122200D02*
X113972679Y-76157914D01*
X113972679Y-76157914D02*
X114151250Y-76157914D01*
X114151250Y-76157914D02*
X114222679Y-76122200D01*
X114222679Y-76122200D02*
X114258393Y-76086485D01*
X114258393Y-76086485D02*
X114294107Y-76015057D01*
X114294107Y-76015057D02*
X114294107Y-75943628D01*
X114294107Y-75943628D02*
X114258393Y-75872200D01*
X114258393Y-75872200D02*
X114222679Y-75836485D01*
X114222679Y-75836485D02*
X114151250Y-75800771D01*
X114151250Y-75800771D02*
X114008393Y-75765057D01*
X114008393Y-75765057D02*
X113936964Y-75729342D01*
X113936964Y-75729342D02*
X113901250Y-75693628D01*
X113901250Y-75693628D02*
X113865536Y-75622200D01*
X113865536Y-75622200D02*
X113865536Y-75550771D01*
X113865536Y-75550771D02*
X113901250Y-75479342D01*
X113901250Y-75479342D02*
X113936964Y-75443628D01*
X113936964Y-75443628D02*
X114008393Y-75407914D01*
X114008393Y-75407914D02*
X114186964Y-75407914D01*
X114186964Y-75407914D02*
X114294107Y-75443628D01*
X114615536Y-76157914D02*
X114615536Y-75407914D01*
X114615536Y-75407914D02*
X114794107Y-75407914D01*
X114794107Y-75407914D02*
X114901250Y-75443628D01*
X114901250Y-75443628D02*
X114972679Y-75515057D01*
X114972679Y-75515057D02*
X115008393Y-75586485D01*
X115008393Y-75586485D02*
X115044107Y-75729342D01*
X115044107Y-75729342D02*
X115044107Y-75836485D01*
X115044107Y-75836485D02*
X115008393Y-75979342D01*
X115008393Y-75979342D02*
X114972679Y-76050771D01*
X114972679Y-76050771D02*
X114901250Y-76122200D01*
X114901250Y-76122200D02*
X114794107Y-76157914D01*
X114794107Y-76157914D02*
X114615536Y-76157914D01*
X115329822Y-75943628D02*
X115686965Y-75943628D01*
X115258393Y-76157914D02*
X115508393Y-75407914D01*
X115508393Y-75407914D02*
X115758393Y-76157914D01*
X142894794Y-97793741D02*
X142894794Y-96793741D01*
X142894794Y-96793741D02*
X143132889Y-96793741D01*
X143132889Y-96793741D02*
X143275746Y-96841360D01*
X143275746Y-96841360D02*
X143370984Y-96936598D01*
X143370984Y-96936598D02*
X143418603Y-97031836D01*
X143418603Y-97031836D02*
X143466222Y-97222312D01*
X143466222Y-97222312D02*
X143466222Y-97365169D01*
X143466222Y-97365169D02*
X143418603Y-97555645D01*
X143418603Y-97555645D02*
X143370984Y-97650883D01*
X143370984Y-97650883D02*
X143275746Y-97746122D01*
X143275746Y-97746122D02*
X143132889Y-97793741D01*
X143132889Y-97793741D02*
X142894794Y-97793741D01*
X143799556Y-96793741D02*
X144418603Y-96793741D01*
X144418603Y-96793741D02*
X144085270Y-97174693D01*
X144085270Y-97174693D02*
X144228127Y-97174693D01*
X144228127Y-97174693D02*
X144323365Y-97222312D01*
X144323365Y-97222312D02*
X144370984Y-97269931D01*
X144370984Y-97269931D02*
X144418603Y-97365169D01*
X144418603Y-97365169D02*
X144418603Y-97603264D01*
X144418603Y-97603264D02*
X144370984Y-97698502D01*
X144370984Y-97698502D02*
X144323365Y-97746122D01*
X144323365Y-97746122D02*
X144228127Y-97793741D01*
X144228127Y-97793741D02*
X143942413Y-97793741D01*
X143942413Y-97793741D02*
X143847175Y-97746122D01*
X143847175Y-97746122D02*
X143799556Y-97698502D01*
X147180984Y-97473741D02*
X147180984Y-96473741D01*
X147752412Y-97473741D02*
X147323841Y-96902312D01*
X147752412Y-96473741D02*
X147180984Y-97045169D01*
X154043155Y-93584819D02*
X154043155Y-92584819D01*
X154043155Y-92584819D02*
X154281250Y-92584819D01*
X154281250Y-92584819D02*
X154424107Y-92632438D01*
X154424107Y-92632438D02*
X154519345Y-92727676D01*
X154519345Y-92727676D02*
X154566964Y-92822914D01*
X154566964Y-92822914D02*
X154614583Y-93013390D01*
X154614583Y-93013390D02*
X154614583Y-93156247D01*
X154614583Y-93156247D02*
X154566964Y-93346723D01*
X154566964Y-93346723D02*
X154519345Y-93441961D01*
X154519345Y-93441961D02*
X154424107Y-93537200D01*
X154424107Y-93537200D02*
X154281250Y-93584819D01*
X154281250Y-93584819D02*
X154043155Y-93584819D01*
X155566964Y-93584819D02*
X154995536Y-93584819D01*
X155281250Y-93584819D02*
X155281250Y-92584819D01*
X155281250Y-92584819D02*
X155186012Y-92727676D01*
X155186012Y-92727676D02*
X155090774Y-92822914D01*
X155090774Y-92822914D02*
X154995536Y-92870533D01*
X150709345Y-93904819D02*
X150709345Y-92904819D01*
X151280773Y-93904819D02*
X150852202Y-93333390D01*
X151280773Y-92904819D02*
X150709345Y-93476247D01*
D14*
%TO.C,G\u002A\u002A\u002A*%
G36*
X144750339Y-108127228D02*
G01*
X144777304Y-108137433D01*
X144806651Y-108160893D01*
X144844105Y-108202888D01*
X144895391Y-108268696D01*
X144938893Y-108326789D01*
X145175258Y-108629823D01*
X145414642Y-108905878D01*
X145662608Y-109159790D01*
X145924719Y-109396395D01*
X146206539Y-109620529D01*
X146513631Y-109837027D01*
X146851560Y-110050727D01*
X147068750Y-110178080D01*
X147135855Y-110219494D01*
X147174268Y-110252879D01*
X147191957Y-110286208D01*
X147195465Y-110304856D01*
X147187768Y-110363977D01*
X147166643Y-110389013D01*
X147140837Y-110393540D01*
X147078619Y-110397681D01*
X146983424Y-110401433D01*
X146858688Y-110404795D01*
X146707845Y-110407765D01*
X146534333Y-110410342D01*
X146341585Y-110412523D01*
X146133038Y-110414306D01*
X145912127Y-110415691D01*
X145682287Y-110416674D01*
X145446955Y-110417254D01*
X145209566Y-110417430D01*
X144973554Y-110417199D01*
X144742356Y-110416559D01*
X144519407Y-110415510D01*
X144308143Y-110414048D01*
X144111999Y-110412172D01*
X143934410Y-110409881D01*
X143778813Y-110407172D01*
X143648642Y-110404044D01*
X143547333Y-110400495D01*
X143478322Y-110396522D01*
X143445044Y-110392125D01*
X143442750Y-110391000D01*
X143424468Y-110353514D01*
X143419626Y-110316000D01*
X143429635Y-110289281D01*
X143458314Y-110230774D01*
X143504151Y-110143226D01*
X143565638Y-110029384D01*
X143641264Y-109891996D01*
X143729517Y-109733808D01*
X143828887Y-109557570D01*
X143937865Y-109366027D01*
X144035907Y-109195000D01*
X144651312Y-108125000D01*
X144720031Y-108125000D01*
X144750339Y-108127228D01*
G37*
G36*
X149841364Y-99265535D02*
G01*
X149878750Y-99295000D01*
X149882781Y-99299360D01*
X149886532Y-99305028D01*
X149890012Y-99313404D01*
X149893232Y-99325890D01*
X149896203Y-99343888D01*
X149898933Y-99368799D01*
X149901434Y-99402025D01*
X149903715Y-99444969D01*
X149905786Y-99499030D01*
X149907658Y-99565611D01*
X149909340Y-99646115D01*
X149910843Y-99741941D01*
X149912177Y-99854493D01*
X149913351Y-99985172D01*
X149914377Y-100135378D01*
X149915264Y-100306515D01*
X149916022Y-100499984D01*
X149916661Y-100717186D01*
X149917192Y-100959523D01*
X149917624Y-101228397D01*
X149917968Y-101525209D01*
X149918233Y-101851362D01*
X149918431Y-102208256D01*
X149918570Y-102597293D01*
X149918661Y-103019876D01*
X149918715Y-103477405D01*
X149918741Y-103971282D01*
X149918749Y-104502910D01*
X149918750Y-104843571D01*
X149918735Y-105402149D01*
X149918685Y-105922101D01*
X149918593Y-106404800D01*
X149918450Y-106851619D01*
X149918249Y-107263933D01*
X149917982Y-107643113D01*
X149917641Y-107990535D01*
X149917219Y-108307571D01*
X149916707Y-108595595D01*
X149916099Y-108855980D01*
X149915385Y-109090100D01*
X149914558Y-109299328D01*
X149913611Y-109485038D01*
X149912536Y-109648604D01*
X149911324Y-109791398D01*
X149909968Y-109914794D01*
X149908461Y-110020166D01*
X149906794Y-110108888D01*
X149904960Y-110182332D01*
X149902951Y-110241872D01*
X149900759Y-110288882D01*
X149898377Y-110324735D01*
X149895795Y-110350804D01*
X149893008Y-110368464D01*
X149890007Y-110379087D01*
X149887321Y-110383571D01*
X149847946Y-110400431D01*
X149773367Y-110410203D01*
X149667757Y-110412823D01*
X149535292Y-110408224D01*
X149380145Y-110396340D01*
X149338750Y-110392268D01*
X148866532Y-110324003D01*
X148404593Y-110217369D01*
X147954642Y-110073066D01*
X147518388Y-109891796D01*
X147097539Y-109674261D01*
X146693804Y-109421161D01*
X146347902Y-109164675D01*
X146213038Y-109050879D01*
X146064192Y-108915272D01*
X145911076Y-108767422D01*
X145763401Y-108616899D01*
X145630878Y-108473275D01*
X145546579Y-108375000D01*
X145448112Y-108251942D01*
X145351759Y-108125492D01*
X145260753Y-108000455D01*
X145178327Y-107881641D01*
X145107713Y-107773857D01*
X145052142Y-107681910D01*
X145014848Y-107610609D01*
X144999063Y-107564761D01*
X144998750Y-107560158D01*
X145008570Y-107539165D01*
X145037325Y-107485375D01*
X145083955Y-107400637D01*
X145147400Y-107286797D01*
X145226601Y-107145702D01*
X145320496Y-106979202D01*
X145428027Y-106789142D01*
X145548135Y-106577371D01*
X145679758Y-106345736D01*
X145821837Y-106096086D01*
X145973313Y-105830266D01*
X146133125Y-105550125D01*
X146300214Y-105257511D01*
X146473520Y-104954271D01*
X146651984Y-104642252D01*
X146834545Y-104323302D01*
X147020143Y-103999269D01*
X147207719Y-103672000D01*
X147396214Y-103343343D01*
X147584566Y-103015146D01*
X147771717Y-102689255D01*
X147956607Y-102367519D01*
X148138175Y-102051784D01*
X148315362Y-101743900D01*
X148487109Y-101445712D01*
X148652355Y-101159069D01*
X148810041Y-100885818D01*
X148959106Y-100627808D01*
X149098492Y-100386884D01*
X149227137Y-100164895D01*
X149343983Y-99963689D01*
X149447970Y-99785113D01*
X149538038Y-99631014D01*
X149613126Y-99503241D01*
X149672176Y-99403640D01*
X149714127Y-99334059D01*
X149737920Y-99296347D01*
X149742697Y-99290000D01*
X149794497Y-99258978D01*
X149841364Y-99265535D01*
G37*
G36*
X150479063Y-99274870D02*
G01*
X150494831Y-99286247D01*
X150514009Y-99305530D01*
X150537414Y-99334107D01*
X150565864Y-99373369D01*
X150600179Y-99424703D01*
X150641177Y-99489500D01*
X150689676Y-99569149D01*
X150746496Y-99665038D01*
X150812455Y-99778557D01*
X150888372Y-99911095D01*
X150975064Y-100064041D01*
X151073352Y-100238784D01*
X151184053Y-100436714D01*
X151307986Y-100659219D01*
X151445970Y-100907690D01*
X151598823Y-101183514D01*
X151767364Y-101488082D01*
X151952412Y-101822782D01*
X152154785Y-102189003D01*
X152375302Y-102588136D01*
X152492843Y-102800880D01*
X152722741Y-103217050D01*
X152933987Y-103599633D01*
X153127333Y-103950025D01*
X153303531Y-104269617D01*
X153463333Y-104559803D01*
X153607491Y-104821976D01*
X153736757Y-105057529D01*
X153851883Y-105267855D01*
X153953621Y-105454347D01*
X154042723Y-105618398D01*
X154119940Y-105761402D01*
X154186025Y-105884751D01*
X154241730Y-105989838D01*
X154287807Y-106078057D01*
X154325007Y-106150800D01*
X154354083Y-106209461D01*
X154375786Y-106255433D01*
X154390869Y-106290108D01*
X154400083Y-106314881D01*
X154404180Y-106331143D01*
X154403913Y-106340288D01*
X154403668Y-106340880D01*
X154388181Y-106359164D01*
X154346933Y-106404300D01*
X154281849Y-106474268D01*
X154194854Y-106567052D01*
X154087874Y-106680632D01*
X153962833Y-106812993D01*
X153821658Y-106962114D01*
X153666275Y-107125979D01*
X153498607Y-107302570D01*
X153320581Y-107489868D01*
X153134123Y-107685855D01*
X152941157Y-107888514D01*
X152743609Y-108095826D01*
X152543405Y-108305774D01*
X152342469Y-108516340D01*
X152142728Y-108725505D01*
X151946106Y-108931252D01*
X151754530Y-109131563D01*
X151569924Y-109324420D01*
X151394215Y-109507804D01*
X151229326Y-109679698D01*
X151077185Y-109838084D01*
X150939716Y-109980944D01*
X150818844Y-110106260D01*
X150716496Y-110212014D01*
X150634597Y-110296188D01*
X150575071Y-110356764D01*
X150539844Y-110391724D01*
X150530987Y-110399693D01*
X150477190Y-110413082D01*
X150418826Y-110390851D01*
X150413714Y-110387132D01*
X150410184Y-110383089D01*
X150406902Y-110375582D01*
X150403861Y-110363221D01*
X150401053Y-110344618D01*
X150398471Y-110318381D01*
X150396107Y-110283120D01*
X150393954Y-110237445D01*
X150392004Y-110179966D01*
X150390250Y-110109292D01*
X150388683Y-110024034D01*
X150387298Y-109922802D01*
X150386085Y-109804204D01*
X150385039Y-109666852D01*
X150384150Y-109509355D01*
X150383412Y-109330322D01*
X150382817Y-109128364D01*
X150382358Y-108902090D01*
X150382026Y-108650110D01*
X150381815Y-108371034D01*
X150381718Y-108063473D01*
X150381725Y-107726034D01*
X150381831Y-107357329D01*
X150382027Y-106955968D01*
X150382307Y-106520560D01*
X150382661Y-106049714D01*
X150383084Y-105542042D01*
X150383567Y-104996152D01*
X150383714Y-104834948D01*
X150384232Y-104277494D01*
X150384742Y-103758656D01*
X150385253Y-103277048D01*
X150385774Y-102831286D01*
X150386316Y-102419986D01*
X150386889Y-102041763D01*
X150387501Y-101695232D01*
X150388163Y-101379009D01*
X150388884Y-101091709D01*
X150389674Y-100831948D01*
X150390544Y-100598340D01*
X150391502Y-100389501D01*
X150392558Y-100204048D01*
X150393722Y-100040594D01*
X150395004Y-99897756D01*
X150396414Y-99774148D01*
X150397961Y-99668387D01*
X150399655Y-99579087D01*
X150401505Y-99504864D01*
X150403522Y-99444334D01*
X150405716Y-99396111D01*
X150408095Y-99358812D01*
X150410669Y-99331051D01*
X150413449Y-99311444D01*
X150416445Y-99298606D01*
X150419665Y-99291153D01*
X150422694Y-99287947D01*
X150433700Y-99280634D01*
X150444021Y-99274280D01*
X150454476Y-99270275D01*
X150465884Y-99270009D01*
X150479063Y-99274870D01*
G37*
G36*
X154686690Y-106830422D02*
G01*
X154701990Y-106846801D01*
X154730621Y-106888558D01*
X154773148Y-106956683D01*
X154830140Y-107052167D01*
X154902163Y-107176002D01*
X154989783Y-107329176D01*
X155093569Y-107512683D01*
X155214087Y-107727511D01*
X155351905Y-107974652D01*
X155507588Y-108255097D01*
X155669592Y-108547913D01*
X155802926Y-108789648D01*
X155930766Y-109022224D01*
X156051772Y-109243160D01*
X156164606Y-109449975D01*
X156267929Y-109640191D01*
X156360402Y-109811325D01*
X156440687Y-109960898D01*
X156507446Y-110086429D01*
X156559338Y-110185438D01*
X156595027Y-110255444D01*
X156613172Y-110293967D01*
X156615224Y-110300045D01*
X156618549Y-110316466D01*
X156622137Y-110331252D01*
X156624016Y-110344486D01*
X156622209Y-110356256D01*
X156614743Y-110366645D01*
X156599643Y-110375741D01*
X156574935Y-110383628D01*
X156538643Y-110390391D01*
X156488793Y-110396117D01*
X156423412Y-110400891D01*
X156340523Y-110404798D01*
X156238153Y-110407924D01*
X156114327Y-110410354D01*
X155967071Y-110412174D01*
X155794409Y-110413469D01*
X155594368Y-110414324D01*
X155364973Y-110414826D01*
X155104249Y-110415060D01*
X154810221Y-110415111D01*
X154480916Y-110415065D01*
X154114359Y-110415007D01*
X153960301Y-110415000D01*
X153563704Y-110414917D01*
X153205520Y-110414660D01*
X152884165Y-110414214D01*
X152598051Y-110413564D01*
X152345593Y-110412697D01*
X152125204Y-110411597D01*
X151935299Y-110410250D01*
X151774292Y-110408643D01*
X151640597Y-110406759D01*
X151532627Y-110404586D01*
X151448798Y-110402108D01*
X151387522Y-110399311D01*
X151347213Y-110396181D01*
X151326287Y-110392703D01*
X151322750Y-110391000D01*
X151299432Y-110344558D01*
X151311003Y-110285285D01*
X151357996Y-110211514D01*
X151393750Y-110169967D01*
X151445240Y-110114607D01*
X151519316Y-110035896D01*
X151613872Y-109936026D01*
X151726800Y-109817187D01*
X151855996Y-109681573D01*
X151999353Y-109531373D01*
X152154765Y-109368780D01*
X152320126Y-109195984D01*
X152493330Y-109015177D01*
X152672271Y-108828551D01*
X152854843Y-108638296D01*
X153038939Y-108446605D01*
X153222454Y-108255668D01*
X153403282Y-108067677D01*
X153579316Y-107884823D01*
X153748450Y-107709297D01*
X153908579Y-107543292D01*
X154057597Y-107388998D01*
X154193397Y-107248606D01*
X154313872Y-107124309D01*
X154416919Y-107018297D01*
X154500429Y-106932762D01*
X154562297Y-106869895D01*
X154600417Y-106831888D01*
X154612572Y-106820765D01*
X154652024Y-106819939D01*
X154686690Y-106830422D01*
G37*
G36*
X149230629Y-99067386D02*
G01*
X149261554Y-99098897D01*
X149263325Y-99150362D01*
X149238073Y-99223412D01*
X149209250Y-99281251D01*
X149193011Y-99310296D01*
X149157783Y-99372374D01*
X149104509Y-99465837D01*
X149034133Y-99589040D01*
X148947601Y-99740334D01*
X148845855Y-99918075D01*
X148729839Y-100120614D01*
X148600499Y-100346306D01*
X148458777Y-100593503D01*
X148305619Y-100860559D01*
X148141967Y-101145826D01*
X147968767Y-101447660D01*
X147786962Y-101764412D01*
X147597497Y-102094435D01*
X147401315Y-102436084D01*
X147199360Y-102787712D01*
X146992578Y-103147672D01*
X146983438Y-103163580D01*
X146706862Y-103644726D01*
X146448321Y-104093978D01*
X146207935Y-104511128D01*
X145985828Y-104895967D01*
X145782121Y-105248286D01*
X145596935Y-105567875D01*
X145430393Y-105854527D01*
X145282615Y-106108031D01*
X145153725Y-106328178D01*
X145043844Y-106514761D01*
X144953094Y-106667569D01*
X144881596Y-106786393D01*
X144829473Y-106871025D01*
X144796846Y-106921256D01*
X144784284Y-106936866D01*
X144736083Y-106939528D01*
X144699725Y-106928285D01*
X144665473Y-106893090D01*
X144626059Y-106823021D01*
X144582816Y-106722676D01*
X144537079Y-106596650D01*
X144490181Y-106449540D01*
X144443457Y-106285940D01*
X144398240Y-106110449D01*
X144355866Y-105927661D01*
X144317666Y-105742172D01*
X144284977Y-105558580D01*
X144266275Y-105435000D01*
X144252720Y-105308604D01*
X144242287Y-105152443D01*
X144235047Y-104975744D01*
X144231068Y-104787740D01*
X144230418Y-104597659D01*
X144233166Y-104414732D01*
X144239383Y-104248190D01*
X144249135Y-104107261D01*
X144255904Y-104045000D01*
X144337617Y-103560349D01*
X144455456Y-103091333D01*
X144608536Y-102639306D01*
X144795972Y-102205623D01*
X145016880Y-101791641D01*
X145270373Y-101398713D01*
X145555568Y-101028196D01*
X145871580Y-100681443D01*
X146217522Y-100359812D01*
X146592511Y-100064656D01*
X146995661Y-99797332D01*
X147051590Y-99763808D01*
X147423150Y-99564618D01*
X147819448Y-99391214D01*
X148232387Y-99246542D01*
X148653867Y-99133549D01*
X148941612Y-99076245D01*
X149072790Y-99057693D01*
X149168418Y-99054196D01*
X149230629Y-99067386D01*
G37*
D15*
%TO.C,U1*%
X141699086Y-88023350D02*
X141699086Y-70878350D01*
X143604086Y-89928350D02*
X157574086Y-89928350D01*
X146094086Y-68973350D02*
X146097814Y-68063078D01*
X146597814Y-67563350D02*
X154593086Y-67563350D01*
X155093086Y-68063350D02*
X155093086Y-68973350D01*
D10*
X157574086Y-68973350D02*
X143604086Y-68973350D01*
D15*
X157574086Y-68973350D02*
X143604086Y-68973350D01*
X159479086Y-88023350D02*
X159479086Y-70878350D01*
X141699086Y-70878350D02*
G75*
G02*
X143604086Y-68973350I1905001J-1D01*
G01*
X143604086Y-89928350D02*
G75*
G02*
X141699086Y-88023350I1J1905001D01*
G01*
X146097814Y-68063078D02*
G75*
G02*
X146597814Y-67563351I500018J-291D01*
G01*
X154593086Y-67563350D02*
G75*
G02*
X155093086Y-68063350I0J-500000D01*
G01*
X157574086Y-68973350D02*
G75*
G02*
X159479086Y-70878350I0J-1905000D01*
G01*
X159479086Y-88023350D02*
G75*
G02*
X157574086Y-89928350I-1905000J0D01*
G01*
D16*
X141891086Y-69214350D02*
G75*
G02*
X141387086Y-69214350I-252000J0D01*
G01*
X141387086Y-69214350D02*
G75*
G02*
X141891086Y-69214350I252000J0D01*
G01*
X143034086Y-70094350D02*
G75*
G02*
X142530086Y-70094350I-252000J0D01*
G01*
X142530086Y-70094350D02*
G75*
G02*
X143034086Y-70094350I252000J0D01*
G01*
D17*
%TO.C,SW2*%
X121918450Y-74836028D02*
X135888450Y-74836028D01*
X121918450Y-88806028D02*
X121918450Y-74836028D01*
X135888450Y-74836028D02*
X135888450Y-88806028D01*
X135888450Y-88806028D02*
X121918450Y-88806028D01*
%TO.C,SW1*%
X128337500Y-100012500D02*
X129337500Y-100012500D01*
X128837500Y-99512500D02*
X128837500Y-100512500D01*
X134937500Y-103512500D02*
X134937500Y-105912500D01*
X134937500Y-98712500D02*
X134937500Y-101312500D01*
X134937500Y-94112500D02*
X134937500Y-96512500D01*
X121637500Y-95912500D02*
X121337500Y-96212500D01*
X121037500Y-95912500D02*
X121637500Y-95912500D01*
X121337500Y-96212500D02*
X121037500Y-95912500D01*
X122737500Y-94112500D02*
X122737500Y-105912500D01*
X126837500Y-94112500D02*
X122737500Y-94112500D01*
X126837500Y-105912500D02*
X122737500Y-105912500D01*
X134937500Y-105912500D02*
X130837500Y-105912500D01*
X130837500Y-94112500D02*
X134937500Y-94112500D01*
X131837500Y-100012500D02*
G75*
G02*
X125837500Y-100012500I-3000000J0D01*
G01*
X125837500Y-100012500D02*
G75*
G02*
X131837500Y-100012500I3000000J0D01*
G01*
D18*
%TO.C,J1*%
X104966250Y-106818750D02*
X116966250Y-106818750D01*
X104966250Y-77318750D02*
X116966250Y-77318750D01*
X104966250Y-72318750D02*
X104966250Y-110318750D01*
X104966250Y-110318750D02*
X116966250Y-110318750D01*
X116966250Y-110318750D02*
X116966250Y-72318750D01*
X116966250Y-72318750D02*
X104966250Y-72318750D01*
D17*
%TO.C,D3*%
X146402889Y-95218922D02*
X145752889Y-95218922D01*
X145152889Y-96338922D02*
X145152889Y-94098922D01*
X145032889Y-96338922D02*
X145032889Y-94098922D01*
X144912889Y-96338922D02*
X144912889Y-94098922D01*
X140862889Y-95218922D02*
X141512889Y-95218922D01*
X145752889Y-96338922D02*
X141512889Y-96338922D01*
X141512889Y-94098922D01*
X145752889Y-94098922D01*
X145752889Y-96338922D01*
%TO.C,D1*%
X152011250Y-95250000D02*
X152661250Y-95250000D01*
X153261250Y-94130000D02*
X153261250Y-96370000D01*
X153381250Y-94130000D02*
X153381250Y-96370000D01*
X153501250Y-94130000D02*
X153501250Y-96370000D01*
X157551250Y-95250000D02*
X156901250Y-95250000D01*
X152661250Y-94130000D02*
X156901250Y-94130000D01*
X156901250Y-96370000D01*
X152661250Y-96370000D01*
X152661250Y-94130000D01*
%TD*%
M02*
