%TF.GenerationSoftware,KiCad,Pcbnew,9.0.2*%
%TF.CreationDate,2025-06-27T15:59:43-04:00*%
%TF.ProjectId,PassPad_KiCAD,50617373-5061-4645-9f4b-694341442e6b,rev?*%
%TF.SameCoordinates,Original*%
%TF.FileFunction,Drillmap*%
%TF.FilePolarity,Positive*%
%FSLAX45Y45*%
G04 Gerber Fmt 4.5, Leading zero omitted, Abs format (unit mm)*
G04 Created by KiCad (PCBNEW 9.0.2) date 2025-06-27 15:59:43*
%MOMM*%
%LPD*%
G01*
G04 APERTURE LIST*
%ADD10C,0.050000*%
%ADD11C,0.200000*%
%ADD12C,0.100000*%
%ADD13C,0.150000*%
G04 APERTURE END LIST*
D10*
X9825000Y-11430000D02*
G75*
G02*
X9525000Y-11130000I0J300000D01*
G01*
X16906875Y-11130000D02*
G75*
G02*
X16606875Y-11430005I-300005J0D01*
G01*
X9525000Y-7205625D02*
G75*
G02*
X9825000Y-6905630I300000J-5D01*
G01*
X16606875Y-6905625D02*
G75*
G02*
X16906875Y-7205625I-5J-300005D01*
G01*
X9525000Y-11130000D02*
X9525000Y-7205625D01*
X16606875Y-11430000D02*
X9825000Y-11430000D01*
X16906875Y-7205625D02*
X16906875Y-11130000D01*
X9825000Y-6905625D02*
X16606875Y-6905625D01*
D11*
D12*
X13942289Y-9481892D02*
X14022289Y-9561892D01*
X14022289Y-9481892D02*
X13942289Y-9561892D01*
X14704289Y-9481892D02*
X14784289Y-9561892D01*
X14784289Y-9481892D02*
X14704289Y-9561892D01*
X15057125Y-9485000D02*
X15137125Y-9565000D01*
X15137125Y-9485000D02*
X15057125Y-9565000D01*
X15819125Y-9485000D02*
X15899125Y-9565000D01*
X15899125Y-9485000D02*
X15819125Y-9565000D01*
X14341359Y-7189435D02*
G75*
G02*
X14252459Y-7189435I-44450J0D01*
G01*
X14252459Y-7189435D02*
G75*
G02*
X14341359Y-7189435I44450J0D01*
G01*
X14341359Y-7443435D02*
G75*
G02*
X14252459Y-7443435I-44450J0D01*
G01*
X14252459Y-7443435D02*
G75*
G02*
X14341359Y-7443435I44450J0D01*
G01*
X14341359Y-7697435D02*
G75*
G02*
X14252459Y-7697435I-44450J0D01*
G01*
X14252459Y-7697435D02*
G75*
G02*
X14341359Y-7697435I44450J0D01*
G01*
X14341359Y-7951435D02*
G75*
G02*
X14252459Y-7951435I-44450J0D01*
G01*
X14252459Y-7951435D02*
G75*
G02*
X14341359Y-7951435I44450J0D01*
G01*
X14341359Y-8205435D02*
G75*
G02*
X14252459Y-8205435I-44450J0D01*
G01*
X14252459Y-8205435D02*
G75*
G02*
X14341359Y-8205435I44450J0D01*
G01*
X14341359Y-8459435D02*
G75*
G02*
X14252459Y-8459435I-44450J0D01*
G01*
X14252459Y-8459435D02*
G75*
G02*
X14341359Y-8459435I44450J0D01*
G01*
X14341359Y-8713435D02*
G75*
G02*
X14252459Y-8713435I-44450J0D01*
G01*
X14252459Y-8713435D02*
G75*
G02*
X14341359Y-8713435I44450J0D01*
G01*
X15865359Y-7189435D02*
G75*
G02*
X15776459Y-7189435I-44450J0D01*
G01*
X15776459Y-7189435D02*
G75*
G02*
X15865359Y-7189435I44450J0D01*
G01*
X15865359Y-7443435D02*
G75*
G02*
X15776459Y-7443435I-44450J0D01*
G01*
X15776459Y-7443435D02*
G75*
G02*
X15865359Y-7443435I44450J0D01*
G01*
X15865359Y-7697435D02*
G75*
G02*
X15776459Y-7697435I-44450J0D01*
G01*
X15776459Y-7697435D02*
G75*
G02*
X15865359Y-7697435I44450J0D01*
G01*
X15865359Y-7951435D02*
G75*
G02*
X15776459Y-7951435I-44450J0D01*
G01*
X15776459Y-7951435D02*
G75*
G02*
X15865359Y-7951435I44450J0D01*
G01*
X15865359Y-8205435D02*
G75*
G02*
X15776459Y-8205435I-44450J0D01*
G01*
X15776459Y-8205435D02*
G75*
G02*
X15865359Y-8205435I44450J0D01*
G01*
X15865359Y-8459435D02*
G75*
G02*
X15776459Y-8459435I-44450J0D01*
G01*
X15776459Y-8459435D02*
G75*
G02*
X15865359Y-8459435I44450J0D01*
G01*
X15865359Y-8713435D02*
G75*
G02*
X15776459Y-8713435I-44450J0D01*
G01*
X15776459Y-8713435D02*
G75*
G02*
X15865359Y-8713435I44450J0D01*
G01*
X10715625Y-7331875D02*
X10715625Y-7431875D01*
X10665625Y-7381875D02*
X10765625Y-7381875D01*
X10969625Y-7331875D02*
X10969625Y-7431875D01*
X10919625Y-7381875D02*
X11019625Y-7381875D01*
X11223625Y-7331875D02*
X11223625Y-7431875D01*
X11173625Y-7381875D02*
X11273625Y-7381875D01*
X11477625Y-7331875D02*
X11477625Y-7431875D01*
X11427625Y-7381875D02*
X11527625Y-7381875D01*
X12133750Y-9701250D02*
X12133750Y-9801250D01*
X12083750Y-9751250D02*
X12183750Y-9751250D01*
X12133750Y-9951250D02*
X12133750Y-10051250D01*
X12083750Y-10001250D02*
X12183750Y-10001250D01*
X12133750Y-10201250D02*
X12133750Y-10301250D01*
X12083750Y-10251250D02*
X12183750Y-10251250D01*
X13583750Y-9701250D02*
X13583750Y-9801250D01*
X13533750Y-9751250D02*
X13633750Y-9751250D01*
X13583750Y-10201250D02*
X13583750Y-10301250D01*
X13533750Y-10251250D02*
X13633750Y-10251250D01*
D13*
X12562378Y-7981136D02*
X12562378Y-7875069D01*
X12456311Y-7875069D01*
X12456311Y-7981136D01*
X12562378Y-7981136D01*
X12936783Y-9494284D02*
X12936783Y-9388217D01*
X12830716Y-9388217D01*
X12830716Y-9494284D01*
X12936783Y-9494284D01*
D12*
X12818750Y-9516250D02*
X12948750Y-9516250D01*
X12948750Y-9366250D02*
G75*
G02*
X12948750Y-9516250I0J-75000D01*
G01*
X12948750Y-9366250D02*
X12818750Y-9366250D01*
X12818750Y-9366250D02*
G75*
G03*
X12818750Y-9516250I0J-75000D01*
G01*
D13*
X12936783Y-10614284D02*
X12936783Y-10508217D01*
X12830716Y-10508217D01*
X12830716Y-10614284D01*
X12936783Y-10614284D01*
D12*
X12818750Y-10636250D02*
X12948750Y-10636250D01*
X12948750Y-10486250D02*
G75*
G02*
X12948750Y-10636250I0J-75000D01*
G01*
X12948750Y-10486250D02*
X12818750Y-10486250D01*
X12818750Y-10486250D02*
G75*
G03*
X12818750Y-10636250I0J-75000D01*
G01*
D13*
X13197378Y-7727136D02*
X13197378Y-7621069D01*
X13091311Y-7621069D01*
X13091311Y-7727136D01*
X13197378Y-7727136D01*
D11*
X9783277Y-11743984D02*
X9783277Y-11543984D01*
X9783277Y-11543984D02*
X9830896Y-11543984D01*
X9830896Y-11543984D02*
X9859467Y-11553508D01*
X9859467Y-11553508D02*
X9878515Y-11572555D01*
X9878515Y-11572555D02*
X9888039Y-11591603D01*
X9888039Y-11591603D02*
X9897563Y-11629698D01*
X9897563Y-11629698D02*
X9897563Y-11658269D01*
X9897563Y-11658269D02*
X9888039Y-11696365D01*
X9888039Y-11696365D02*
X9878515Y-11715412D01*
X9878515Y-11715412D02*
X9859467Y-11734460D01*
X9859467Y-11734460D02*
X9830896Y-11743984D01*
X9830896Y-11743984D02*
X9783277Y-11743984D01*
X9983277Y-11743984D02*
X9983277Y-11610650D01*
X9983277Y-11648746D02*
X9992801Y-11629698D01*
X9992801Y-11629698D02*
X10002324Y-11620174D01*
X10002324Y-11620174D02*
X10021372Y-11610650D01*
X10021372Y-11610650D02*
X10040420Y-11610650D01*
X10107086Y-11743984D02*
X10107086Y-11610650D01*
X10107086Y-11543984D02*
X10097563Y-11553508D01*
X10097563Y-11553508D02*
X10107086Y-11563031D01*
X10107086Y-11563031D02*
X10116610Y-11553508D01*
X10116610Y-11553508D02*
X10107086Y-11543984D01*
X10107086Y-11543984D02*
X10107086Y-11563031D01*
X10230896Y-11743984D02*
X10211848Y-11734460D01*
X10211848Y-11734460D02*
X10202324Y-11715412D01*
X10202324Y-11715412D02*
X10202324Y-11543984D01*
X10335658Y-11743984D02*
X10316610Y-11734460D01*
X10316610Y-11734460D02*
X10307086Y-11715412D01*
X10307086Y-11715412D02*
X10307086Y-11543984D01*
X10564229Y-11743984D02*
X10564229Y-11543984D01*
X10564229Y-11543984D02*
X10630896Y-11686841D01*
X10630896Y-11686841D02*
X10697563Y-11543984D01*
X10697563Y-11543984D02*
X10697563Y-11743984D01*
X10878515Y-11743984D02*
X10878515Y-11639222D01*
X10878515Y-11639222D02*
X10868991Y-11620174D01*
X10868991Y-11620174D02*
X10849944Y-11610650D01*
X10849944Y-11610650D02*
X10811848Y-11610650D01*
X10811848Y-11610650D02*
X10792801Y-11620174D01*
X10878515Y-11734460D02*
X10859467Y-11743984D01*
X10859467Y-11743984D02*
X10811848Y-11743984D01*
X10811848Y-11743984D02*
X10792801Y-11734460D01*
X10792801Y-11734460D02*
X10783277Y-11715412D01*
X10783277Y-11715412D02*
X10783277Y-11696365D01*
X10783277Y-11696365D02*
X10792801Y-11677317D01*
X10792801Y-11677317D02*
X10811848Y-11667793D01*
X10811848Y-11667793D02*
X10859467Y-11667793D01*
X10859467Y-11667793D02*
X10878515Y-11658269D01*
X10973753Y-11610650D02*
X10973753Y-11810650D01*
X10973753Y-11620174D02*
X10992801Y-11610650D01*
X10992801Y-11610650D02*
X11030896Y-11610650D01*
X11030896Y-11610650D02*
X11049944Y-11620174D01*
X11049944Y-11620174D02*
X11059467Y-11629698D01*
X11059467Y-11629698D02*
X11068991Y-11648746D01*
X11068991Y-11648746D02*
X11068991Y-11705888D01*
X11068991Y-11705888D02*
X11059467Y-11724936D01*
X11059467Y-11724936D02*
X11049944Y-11734460D01*
X11049944Y-11734460D02*
X11030896Y-11743984D01*
X11030896Y-11743984D02*
X10992801Y-11743984D01*
X10992801Y-11743984D02*
X10973753Y-11734460D01*
X11154705Y-11724936D02*
X11164229Y-11734460D01*
X11164229Y-11734460D02*
X11154705Y-11743984D01*
X11154705Y-11743984D02*
X11145182Y-11734460D01*
X11145182Y-11734460D02*
X11154705Y-11724936D01*
X11154705Y-11724936D02*
X11154705Y-11743984D01*
X11154705Y-11620174D02*
X11164229Y-11629698D01*
X11164229Y-11629698D02*
X11154705Y-11639222D01*
X11154705Y-11639222D02*
X11145182Y-11629698D01*
X11145182Y-11629698D02*
X11154705Y-11620174D01*
X11154705Y-11620174D02*
X11154705Y-11639222D01*
D12*
X9442500Y-12032500D02*
X9522500Y-12112500D01*
X9522500Y-12032500D02*
X9442500Y-12112500D01*
D11*
X9821372Y-11963984D02*
X9840420Y-11963984D01*
X9840420Y-11963984D02*
X9859467Y-11973508D01*
X9859467Y-11973508D02*
X9868991Y-11983031D01*
X9868991Y-11983031D02*
X9878515Y-12002079D01*
X9878515Y-12002079D02*
X9888039Y-12040174D01*
X9888039Y-12040174D02*
X9888039Y-12087793D01*
X9888039Y-12087793D02*
X9878515Y-12125888D01*
X9878515Y-12125888D02*
X9868991Y-12144936D01*
X9868991Y-12144936D02*
X9859467Y-12154460D01*
X9859467Y-12154460D02*
X9840420Y-12163984D01*
X9840420Y-12163984D02*
X9821372Y-12163984D01*
X9821372Y-12163984D02*
X9802324Y-12154460D01*
X9802324Y-12154460D02*
X9792801Y-12144936D01*
X9792801Y-12144936D02*
X9783277Y-12125888D01*
X9783277Y-12125888D02*
X9773753Y-12087793D01*
X9773753Y-12087793D02*
X9773753Y-12040174D01*
X9773753Y-12040174D02*
X9783277Y-12002079D01*
X9783277Y-12002079D02*
X9792801Y-11983031D01*
X9792801Y-11983031D02*
X9802324Y-11973508D01*
X9802324Y-11973508D02*
X9821372Y-11963984D01*
X9973753Y-12144936D02*
X9983277Y-12154460D01*
X9983277Y-12154460D02*
X9973753Y-12163984D01*
X9973753Y-12163984D02*
X9964229Y-12154460D01*
X9964229Y-12154460D02*
X9973753Y-12144936D01*
X9973753Y-12144936D02*
X9973753Y-12163984D01*
X10097563Y-12049698D02*
X10078515Y-12040174D01*
X10078515Y-12040174D02*
X10068991Y-12030650D01*
X10068991Y-12030650D02*
X10059467Y-12011603D01*
X10059467Y-12011603D02*
X10059467Y-12002079D01*
X10059467Y-12002079D02*
X10068991Y-11983031D01*
X10068991Y-11983031D02*
X10078515Y-11973508D01*
X10078515Y-11973508D02*
X10097563Y-11963984D01*
X10097563Y-11963984D02*
X10135658Y-11963984D01*
X10135658Y-11963984D02*
X10154705Y-11973508D01*
X10154705Y-11973508D02*
X10164229Y-11983031D01*
X10164229Y-11983031D02*
X10173753Y-12002079D01*
X10173753Y-12002079D02*
X10173753Y-12011603D01*
X10173753Y-12011603D02*
X10164229Y-12030650D01*
X10164229Y-12030650D02*
X10154705Y-12040174D01*
X10154705Y-12040174D02*
X10135658Y-12049698D01*
X10135658Y-12049698D02*
X10097563Y-12049698D01*
X10097563Y-12049698D02*
X10078515Y-12059222D01*
X10078515Y-12059222D02*
X10068991Y-12068746D01*
X10068991Y-12068746D02*
X10059467Y-12087793D01*
X10059467Y-12087793D02*
X10059467Y-12125888D01*
X10059467Y-12125888D02*
X10068991Y-12144936D01*
X10068991Y-12144936D02*
X10078515Y-12154460D01*
X10078515Y-12154460D02*
X10097563Y-12163984D01*
X10097563Y-12163984D02*
X10135658Y-12163984D01*
X10135658Y-12163984D02*
X10154705Y-12154460D01*
X10154705Y-12154460D02*
X10164229Y-12144936D01*
X10164229Y-12144936D02*
X10173753Y-12125888D01*
X10173753Y-12125888D02*
X10173753Y-12087793D01*
X10173753Y-12087793D02*
X10164229Y-12068746D01*
X10164229Y-12068746D02*
X10154705Y-12059222D01*
X10154705Y-12059222D02*
X10135658Y-12049698D01*
X10297563Y-11963984D02*
X10316610Y-11963984D01*
X10316610Y-11963984D02*
X10335658Y-11973508D01*
X10335658Y-11973508D02*
X10345182Y-11983031D01*
X10345182Y-11983031D02*
X10354705Y-12002079D01*
X10354705Y-12002079D02*
X10364229Y-12040174D01*
X10364229Y-12040174D02*
X10364229Y-12087793D01*
X10364229Y-12087793D02*
X10354705Y-12125888D01*
X10354705Y-12125888D02*
X10345182Y-12144936D01*
X10345182Y-12144936D02*
X10335658Y-12154460D01*
X10335658Y-12154460D02*
X10316610Y-12163984D01*
X10316610Y-12163984D02*
X10297563Y-12163984D01*
X10297563Y-12163984D02*
X10278515Y-12154460D01*
X10278515Y-12154460D02*
X10268991Y-12144936D01*
X10268991Y-12144936D02*
X10259467Y-12125888D01*
X10259467Y-12125888D02*
X10249944Y-12087793D01*
X10249944Y-12087793D02*
X10249944Y-12040174D01*
X10249944Y-12040174D02*
X10259467Y-12002079D01*
X10259467Y-12002079D02*
X10268991Y-11983031D01*
X10268991Y-11983031D02*
X10278515Y-11973508D01*
X10278515Y-11973508D02*
X10297563Y-11963984D01*
X10488039Y-11963984D02*
X10507086Y-11963984D01*
X10507086Y-11963984D02*
X10526134Y-11973508D01*
X10526134Y-11973508D02*
X10535658Y-11983031D01*
X10535658Y-11983031D02*
X10545182Y-12002079D01*
X10545182Y-12002079D02*
X10554705Y-12040174D01*
X10554705Y-12040174D02*
X10554705Y-12087793D01*
X10554705Y-12087793D02*
X10545182Y-12125888D01*
X10545182Y-12125888D02*
X10535658Y-12144936D01*
X10535658Y-12144936D02*
X10526134Y-12154460D01*
X10526134Y-12154460D02*
X10507086Y-12163984D01*
X10507086Y-12163984D02*
X10488039Y-12163984D01*
X10488039Y-12163984D02*
X10468991Y-12154460D01*
X10468991Y-12154460D02*
X10459467Y-12144936D01*
X10459467Y-12144936D02*
X10449944Y-12125888D01*
X10449944Y-12125888D02*
X10440420Y-12087793D01*
X10440420Y-12087793D02*
X10440420Y-12040174D01*
X10440420Y-12040174D02*
X10449944Y-12002079D01*
X10449944Y-12002079D02*
X10459467Y-11983031D01*
X10459467Y-11983031D02*
X10468991Y-11973508D01*
X10468991Y-11973508D02*
X10488039Y-11963984D01*
X10640420Y-12163984D02*
X10640420Y-12030650D01*
X10640420Y-12049698D02*
X10649944Y-12040174D01*
X10649944Y-12040174D02*
X10668991Y-12030650D01*
X10668991Y-12030650D02*
X10697563Y-12030650D01*
X10697563Y-12030650D02*
X10716610Y-12040174D01*
X10716610Y-12040174D02*
X10726134Y-12059222D01*
X10726134Y-12059222D02*
X10726134Y-12163984D01*
X10726134Y-12059222D02*
X10735658Y-12040174D01*
X10735658Y-12040174D02*
X10754705Y-12030650D01*
X10754705Y-12030650D02*
X10783277Y-12030650D01*
X10783277Y-12030650D02*
X10802325Y-12040174D01*
X10802325Y-12040174D02*
X10811848Y-12059222D01*
X10811848Y-12059222D02*
X10811848Y-12163984D01*
X10907086Y-12163984D02*
X10907086Y-12030650D01*
X10907086Y-12049698D02*
X10916610Y-12040174D01*
X10916610Y-12040174D02*
X10935658Y-12030650D01*
X10935658Y-12030650D02*
X10964229Y-12030650D01*
X10964229Y-12030650D02*
X10983277Y-12040174D01*
X10983277Y-12040174D02*
X10992801Y-12059222D01*
X10992801Y-12059222D02*
X10992801Y-12163984D01*
X10992801Y-12059222D02*
X11002325Y-12040174D01*
X11002325Y-12040174D02*
X11021372Y-12030650D01*
X11021372Y-12030650D02*
X11049944Y-12030650D01*
X11049944Y-12030650D02*
X11068991Y-12040174D01*
X11068991Y-12040174D02*
X11078515Y-12059222D01*
X11078515Y-12059222D02*
X11078515Y-12163984D01*
X11468991Y-11954460D02*
X11297563Y-12211603D01*
X11726134Y-11963984D02*
X11745182Y-11963984D01*
X11745182Y-11963984D02*
X11764229Y-11973508D01*
X11764229Y-11973508D02*
X11773753Y-11983031D01*
X11773753Y-11983031D02*
X11783277Y-12002079D01*
X11783277Y-12002079D02*
X11792801Y-12040174D01*
X11792801Y-12040174D02*
X11792801Y-12087793D01*
X11792801Y-12087793D02*
X11783277Y-12125888D01*
X11783277Y-12125888D02*
X11773753Y-12144936D01*
X11773753Y-12144936D02*
X11764229Y-12154460D01*
X11764229Y-12154460D02*
X11745182Y-12163984D01*
X11745182Y-12163984D02*
X11726134Y-12163984D01*
X11726134Y-12163984D02*
X11707086Y-12154460D01*
X11707086Y-12154460D02*
X11697563Y-12144936D01*
X11697563Y-12144936D02*
X11688039Y-12125888D01*
X11688039Y-12125888D02*
X11678515Y-12087793D01*
X11678515Y-12087793D02*
X11678515Y-12040174D01*
X11678515Y-12040174D02*
X11688039Y-12002079D01*
X11688039Y-12002079D02*
X11697563Y-11983031D01*
X11697563Y-11983031D02*
X11707086Y-11973508D01*
X11707086Y-11973508D02*
X11726134Y-11963984D01*
X11878515Y-12144936D02*
X11888039Y-12154460D01*
X11888039Y-12154460D02*
X11878515Y-12163984D01*
X11878515Y-12163984D02*
X11868991Y-12154460D01*
X11868991Y-12154460D02*
X11878515Y-12144936D01*
X11878515Y-12144936D02*
X11878515Y-12163984D01*
X12011848Y-11963984D02*
X12030896Y-11963984D01*
X12030896Y-11963984D02*
X12049944Y-11973508D01*
X12049944Y-11973508D02*
X12059467Y-11983031D01*
X12059467Y-11983031D02*
X12068991Y-12002079D01*
X12068991Y-12002079D02*
X12078515Y-12040174D01*
X12078515Y-12040174D02*
X12078515Y-12087793D01*
X12078515Y-12087793D02*
X12068991Y-12125888D01*
X12068991Y-12125888D02*
X12059467Y-12144936D01*
X12059467Y-12144936D02*
X12049944Y-12154460D01*
X12049944Y-12154460D02*
X12030896Y-12163984D01*
X12030896Y-12163984D02*
X12011848Y-12163984D01*
X12011848Y-12163984D02*
X11992801Y-12154460D01*
X11992801Y-12154460D02*
X11983277Y-12144936D01*
X11983277Y-12144936D02*
X11973753Y-12125888D01*
X11973753Y-12125888D02*
X11964229Y-12087793D01*
X11964229Y-12087793D02*
X11964229Y-12040174D01*
X11964229Y-12040174D02*
X11973753Y-12002079D01*
X11973753Y-12002079D02*
X11983277Y-11983031D01*
X11983277Y-11983031D02*
X11992801Y-11973508D01*
X11992801Y-11973508D02*
X12011848Y-11963984D01*
X12145182Y-11963984D02*
X12268991Y-11963984D01*
X12268991Y-11963984D02*
X12202325Y-12040174D01*
X12202325Y-12040174D02*
X12230896Y-12040174D01*
X12230896Y-12040174D02*
X12249944Y-12049698D01*
X12249944Y-12049698D02*
X12259467Y-12059222D01*
X12259467Y-12059222D02*
X12268991Y-12078269D01*
X12268991Y-12078269D02*
X12268991Y-12125888D01*
X12268991Y-12125888D02*
X12259467Y-12144936D01*
X12259467Y-12144936D02*
X12249944Y-12154460D01*
X12249944Y-12154460D02*
X12230896Y-12163984D01*
X12230896Y-12163984D02*
X12173753Y-12163984D01*
X12173753Y-12163984D02*
X12154706Y-12154460D01*
X12154706Y-12154460D02*
X12145182Y-12144936D01*
X12459467Y-12163984D02*
X12345182Y-12163984D01*
X12402325Y-12163984D02*
X12402325Y-11963984D01*
X12402325Y-11963984D02*
X12383277Y-11992555D01*
X12383277Y-11992555D02*
X12364229Y-12011603D01*
X12364229Y-12011603D02*
X12345182Y-12021127D01*
X12640420Y-11963984D02*
X12545182Y-11963984D01*
X12545182Y-11963984D02*
X12535658Y-12059222D01*
X12535658Y-12059222D02*
X12545182Y-12049698D01*
X12545182Y-12049698D02*
X12564229Y-12040174D01*
X12564229Y-12040174D02*
X12611848Y-12040174D01*
X12611848Y-12040174D02*
X12630896Y-12049698D01*
X12630896Y-12049698D02*
X12640420Y-12059222D01*
X12640420Y-12059222D02*
X12649944Y-12078269D01*
X12649944Y-12078269D02*
X12649944Y-12125888D01*
X12649944Y-12125888D02*
X12640420Y-12144936D01*
X12640420Y-12144936D02*
X12630896Y-12154460D01*
X12630896Y-12154460D02*
X12611848Y-12163984D01*
X12611848Y-12163984D02*
X12564229Y-12163984D01*
X12564229Y-12163984D02*
X12545182Y-12154460D01*
X12545182Y-12154460D02*
X12535658Y-12144936D01*
X12726134Y-11963984D02*
X12726134Y-12002079D01*
X12802325Y-11963984D02*
X12802325Y-12002079D01*
X13097563Y-12240174D02*
X13088039Y-12230650D01*
X13088039Y-12230650D02*
X13068991Y-12202079D01*
X13068991Y-12202079D02*
X13059468Y-12183031D01*
X13059468Y-12183031D02*
X13049944Y-12154460D01*
X13049944Y-12154460D02*
X13040420Y-12106841D01*
X13040420Y-12106841D02*
X13040420Y-12068746D01*
X13040420Y-12068746D02*
X13049944Y-12021127D01*
X13049944Y-12021127D02*
X13059468Y-11992555D01*
X13059468Y-11992555D02*
X13068991Y-11973508D01*
X13068991Y-11973508D02*
X13088039Y-11944936D01*
X13088039Y-11944936D02*
X13097563Y-11935412D01*
X13259468Y-12030650D02*
X13259468Y-12163984D01*
X13211848Y-11954460D02*
X13164229Y-12097317D01*
X13164229Y-12097317D02*
X13288039Y-12097317D01*
X13516610Y-12163984D02*
X13516610Y-11963984D01*
X13602325Y-12163984D02*
X13602325Y-12059222D01*
X13602325Y-12059222D02*
X13592801Y-12040174D01*
X13592801Y-12040174D02*
X13573753Y-12030650D01*
X13573753Y-12030650D02*
X13545182Y-12030650D01*
X13545182Y-12030650D02*
X13526134Y-12040174D01*
X13526134Y-12040174D02*
X13516610Y-12049698D01*
X13726134Y-12163984D02*
X13707087Y-12154460D01*
X13707087Y-12154460D02*
X13697563Y-12144936D01*
X13697563Y-12144936D02*
X13688039Y-12125888D01*
X13688039Y-12125888D02*
X13688039Y-12068746D01*
X13688039Y-12068746D02*
X13697563Y-12049698D01*
X13697563Y-12049698D02*
X13707087Y-12040174D01*
X13707087Y-12040174D02*
X13726134Y-12030650D01*
X13726134Y-12030650D02*
X13754706Y-12030650D01*
X13754706Y-12030650D02*
X13773753Y-12040174D01*
X13773753Y-12040174D02*
X13783277Y-12049698D01*
X13783277Y-12049698D02*
X13792801Y-12068746D01*
X13792801Y-12068746D02*
X13792801Y-12125888D01*
X13792801Y-12125888D02*
X13783277Y-12144936D01*
X13783277Y-12144936D02*
X13773753Y-12154460D01*
X13773753Y-12154460D02*
X13754706Y-12163984D01*
X13754706Y-12163984D02*
X13726134Y-12163984D01*
X13907087Y-12163984D02*
X13888039Y-12154460D01*
X13888039Y-12154460D02*
X13878515Y-12135412D01*
X13878515Y-12135412D02*
X13878515Y-11963984D01*
X14059468Y-12154460D02*
X14040420Y-12163984D01*
X14040420Y-12163984D02*
X14002325Y-12163984D01*
X14002325Y-12163984D02*
X13983277Y-12154460D01*
X13983277Y-12154460D02*
X13973753Y-12135412D01*
X13973753Y-12135412D02*
X13973753Y-12059222D01*
X13973753Y-12059222D02*
X13983277Y-12040174D01*
X13983277Y-12040174D02*
X14002325Y-12030650D01*
X14002325Y-12030650D02*
X14040420Y-12030650D01*
X14040420Y-12030650D02*
X14059468Y-12040174D01*
X14059468Y-12040174D02*
X14068991Y-12059222D01*
X14068991Y-12059222D02*
X14068991Y-12078269D01*
X14068991Y-12078269D02*
X13973753Y-12097317D01*
X14145182Y-12154460D02*
X14164230Y-12163984D01*
X14164230Y-12163984D02*
X14202325Y-12163984D01*
X14202325Y-12163984D02*
X14221372Y-12154460D01*
X14221372Y-12154460D02*
X14230896Y-12135412D01*
X14230896Y-12135412D02*
X14230896Y-12125888D01*
X14230896Y-12125888D02*
X14221372Y-12106841D01*
X14221372Y-12106841D02*
X14202325Y-12097317D01*
X14202325Y-12097317D02*
X14173753Y-12097317D01*
X14173753Y-12097317D02*
X14154706Y-12087793D01*
X14154706Y-12087793D02*
X14145182Y-12068746D01*
X14145182Y-12068746D02*
X14145182Y-12059222D01*
X14145182Y-12059222D02*
X14154706Y-12040174D01*
X14154706Y-12040174D02*
X14173753Y-12030650D01*
X14173753Y-12030650D02*
X14202325Y-12030650D01*
X14202325Y-12030650D02*
X14221372Y-12040174D01*
X14297563Y-12240174D02*
X14307087Y-12230650D01*
X14307087Y-12230650D02*
X14326134Y-12202079D01*
X14326134Y-12202079D02*
X14335658Y-12183031D01*
X14335658Y-12183031D02*
X14345182Y-12154460D01*
X14345182Y-12154460D02*
X14354706Y-12106841D01*
X14354706Y-12106841D02*
X14354706Y-12068746D01*
X14354706Y-12068746D02*
X14345182Y-12021127D01*
X14345182Y-12021127D02*
X14335658Y-11992555D01*
X14335658Y-11992555D02*
X14326134Y-11973508D01*
X14326134Y-11973508D02*
X14307087Y-11944936D01*
X14307087Y-11944936D02*
X14297563Y-11935412D01*
D12*
X9522500Y-12336500D02*
G75*
G02*
X9433600Y-12336500I-44450J0D01*
G01*
X9433600Y-12336500D02*
G75*
G02*
X9522500Y-12336500I44450J0D01*
G01*
D11*
X9821372Y-12227984D02*
X9840420Y-12227984D01*
X9840420Y-12227984D02*
X9859467Y-12237508D01*
X9859467Y-12237508D02*
X9868991Y-12247031D01*
X9868991Y-12247031D02*
X9878515Y-12266079D01*
X9878515Y-12266079D02*
X9888039Y-12304174D01*
X9888039Y-12304174D02*
X9888039Y-12351793D01*
X9888039Y-12351793D02*
X9878515Y-12389888D01*
X9878515Y-12389888D02*
X9868991Y-12408936D01*
X9868991Y-12408936D02*
X9859467Y-12418460D01*
X9859467Y-12418460D02*
X9840420Y-12427984D01*
X9840420Y-12427984D02*
X9821372Y-12427984D01*
X9821372Y-12427984D02*
X9802324Y-12418460D01*
X9802324Y-12418460D02*
X9792801Y-12408936D01*
X9792801Y-12408936D02*
X9783277Y-12389888D01*
X9783277Y-12389888D02*
X9773753Y-12351793D01*
X9773753Y-12351793D02*
X9773753Y-12304174D01*
X9773753Y-12304174D02*
X9783277Y-12266079D01*
X9783277Y-12266079D02*
X9792801Y-12247031D01*
X9792801Y-12247031D02*
X9802324Y-12237508D01*
X9802324Y-12237508D02*
X9821372Y-12227984D01*
X9973753Y-12408936D02*
X9983277Y-12418460D01*
X9983277Y-12418460D02*
X9973753Y-12427984D01*
X9973753Y-12427984D02*
X9964229Y-12418460D01*
X9964229Y-12418460D02*
X9973753Y-12408936D01*
X9973753Y-12408936D02*
X9973753Y-12427984D01*
X10097563Y-12313698D02*
X10078515Y-12304174D01*
X10078515Y-12304174D02*
X10068991Y-12294650D01*
X10068991Y-12294650D02*
X10059467Y-12275603D01*
X10059467Y-12275603D02*
X10059467Y-12266079D01*
X10059467Y-12266079D02*
X10068991Y-12247031D01*
X10068991Y-12247031D02*
X10078515Y-12237508D01*
X10078515Y-12237508D02*
X10097563Y-12227984D01*
X10097563Y-12227984D02*
X10135658Y-12227984D01*
X10135658Y-12227984D02*
X10154705Y-12237508D01*
X10154705Y-12237508D02*
X10164229Y-12247031D01*
X10164229Y-12247031D02*
X10173753Y-12266079D01*
X10173753Y-12266079D02*
X10173753Y-12275603D01*
X10173753Y-12275603D02*
X10164229Y-12294650D01*
X10164229Y-12294650D02*
X10154705Y-12304174D01*
X10154705Y-12304174D02*
X10135658Y-12313698D01*
X10135658Y-12313698D02*
X10097563Y-12313698D01*
X10097563Y-12313698D02*
X10078515Y-12323222D01*
X10078515Y-12323222D02*
X10068991Y-12332746D01*
X10068991Y-12332746D02*
X10059467Y-12351793D01*
X10059467Y-12351793D02*
X10059467Y-12389888D01*
X10059467Y-12389888D02*
X10068991Y-12408936D01*
X10068991Y-12408936D02*
X10078515Y-12418460D01*
X10078515Y-12418460D02*
X10097563Y-12427984D01*
X10097563Y-12427984D02*
X10135658Y-12427984D01*
X10135658Y-12427984D02*
X10154705Y-12418460D01*
X10154705Y-12418460D02*
X10164229Y-12408936D01*
X10164229Y-12408936D02*
X10173753Y-12389888D01*
X10173753Y-12389888D02*
X10173753Y-12351793D01*
X10173753Y-12351793D02*
X10164229Y-12332746D01*
X10164229Y-12332746D02*
X10154705Y-12323222D01*
X10154705Y-12323222D02*
X10135658Y-12313698D01*
X10288039Y-12313698D02*
X10268991Y-12304174D01*
X10268991Y-12304174D02*
X10259467Y-12294650D01*
X10259467Y-12294650D02*
X10249944Y-12275603D01*
X10249944Y-12275603D02*
X10249944Y-12266079D01*
X10249944Y-12266079D02*
X10259467Y-12247031D01*
X10259467Y-12247031D02*
X10268991Y-12237508D01*
X10268991Y-12237508D02*
X10288039Y-12227984D01*
X10288039Y-12227984D02*
X10326134Y-12227984D01*
X10326134Y-12227984D02*
X10345182Y-12237508D01*
X10345182Y-12237508D02*
X10354705Y-12247031D01*
X10354705Y-12247031D02*
X10364229Y-12266079D01*
X10364229Y-12266079D02*
X10364229Y-12275603D01*
X10364229Y-12275603D02*
X10354705Y-12294650D01*
X10354705Y-12294650D02*
X10345182Y-12304174D01*
X10345182Y-12304174D02*
X10326134Y-12313698D01*
X10326134Y-12313698D02*
X10288039Y-12313698D01*
X10288039Y-12313698D02*
X10268991Y-12323222D01*
X10268991Y-12323222D02*
X10259467Y-12332746D01*
X10259467Y-12332746D02*
X10249944Y-12351793D01*
X10249944Y-12351793D02*
X10249944Y-12389888D01*
X10249944Y-12389888D02*
X10259467Y-12408936D01*
X10259467Y-12408936D02*
X10268991Y-12418460D01*
X10268991Y-12418460D02*
X10288039Y-12427984D01*
X10288039Y-12427984D02*
X10326134Y-12427984D01*
X10326134Y-12427984D02*
X10345182Y-12418460D01*
X10345182Y-12418460D02*
X10354705Y-12408936D01*
X10354705Y-12408936D02*
X10364229Y-12389888D01*
X10364229Y-12389888D02*
X10364229Y-12351793D01*
X10364229Y-12351793D02*
X10354705Y-12332746D01*
X10354705Y-12332746D02*
X10345182Y-12323222D01*
X10345182Y-12323222D02*
X10326134Y-12313698D01*
X10459467Y-12427984D02*
X10497563Y-12427984D01*
X10497563Y-12427984D02*
X10516610Y-12418460D01*
X10516610Y-12418460D02*
X10526134Y-12408936D01*
X10526134Y-12408936D02*
X10545182Y-12380365D01*
X10545182Y-12380365D02*
X10554705Y-12342269D01*
X10554705Y-12342269D02*
X10554705Y-12266079D01*
X10554705Y-12266079D02*
X10545182Y-12247031D01*
X10545182Y-12247031D02*
X10535658Y-12237508D01*
X10535658Y-12237508D02*
X10516610Y-12227984D01*
X10516610Y-12227984D02*
X10478515Y-12227984D01*
X10478515Y-12227984D02*
X10459467Y-12237508D01*
X10459467Y-12237508D02*
X10449944Y-12247031D01*
X10449944Y-12247031D02*
X10440420Y-12266079D01*
X10440420Y-12266079D02*
X10440420Y-12313698D01*
X10440420Y-12313698D02*
X10449944Y-12332746D01*
X10449944Y-12332746D02*
X10459467Y-12342269D01*
X10459467Y-12342269D02*
X10478515Y-12351793D01*
X10478515Y-12351793D02*
X10516610Y-12351793D01*
X10516610Y-12351793D02*
X10535658Y-12342269D01*
X10535658Y-12342269D02*
X10545182Y-12332746D01*
X10545182Y-12332746D02*
X10554705Y-12313698D01*
X10640420Y-12427984D02*
X10640420Y-12294650D01*
X10640420Y-12313698D02*
X10649944Y-12304174D01*
X10649944Y-12304174D02*
X10668991Y-12294650D01*
X10668991Y-12294650D02*
X10697563Y-12294650D01*
X10697563Y-12294650D02*
X10716610Y-12304174D01*
X10716610Y-12304174D02*
X10726134Y-12323222D01*
X10726134Y-12323222D02*
X10726134Y-12427984D01*
X10726134Y-12323222D02*
X10735658Y-12304174D01*
X10735658Y-12304174D02*
X10754705Y-12294650D01*
X10754705Y-12294650D02*
X10783277Y-12294650D01*
X10783277Y-12294650D02*
X10802325Y-12304174D01*
X10802325Y-12304174D02*
X10811848Y-12323222D01*
X10811848Y-12323222D02*
X10811848Y-12427984D01*
X10907086Y-12427984D02*
X10907086Y-12294650D01*
X10907086Y-12313698D02*
X10916610Y-12304174D01*
X10916610Y-12304174D02*
X10935658Y-12294650D01*
X10935658Y-12294650D02*
X10964229Y-12294650D01*
X10964229Y-12294650D02*
X10983277Y-12304174D01*
X10983277Y-12304174D02*
X10992801Y-12323222D01*
X10992801Y-12323222D02*
X10992801Y-12427984D01*
X10992801Y-12323222D02*
X11002325Y-12304174D01*
X11002325Y-12304174D02*
X11021372Y-12294650D01*
X11021372Y-12294650D02*
X11049944Y-12294650D01*
X11049944Y-12294650D02*
X11068991Y-12304174D01*
X11068991Y-12304174D02*
X11078515Y-12323222D01*
X11078515Y-12323222D02*
X11078515Y-12427984D01*
X11468991Y-12218460D02*
X11297563Y-12475603D01*
X11726134Y-12227984D02*
X11745182Y-12227984D01*
X11745182Y-12227984D02*
X11764229Y-12237508D01*
X11764229Y-12237508D02*
X11773753Y-12247031D01*
X11773753Y-12247031D02*
X11783277Y-12266079D01*
X11783277Y-12266079D02*
X11792801Y-12304174D01*
X11792801Y-12304174D02*
X11792801Y-12351793D01*
X11792801Y-12351793D02*
X11783277Y-12389888D01*
X11783277Y-12389888D02*
X11773753Y-12408936D01*
X11773753Y-12408936D02*
X11764229Y-12418460D01*
X11764229Y-12418460D02*
X11745182Y-12427984D01*
X11745182Y-12427984D02*
X11726134Y-12427984D01*
X11726134Y-12427984D02*
X11707086Y-12418460D01*
X11707086Y-12418460D02*
X11697563Y-12408936D01*
X11697563Y-12408936D02*
X11688039Y-12389888D01*
X11688039Y-12389888D02*
X11678515Y-12351793D01*
X11678515Y-12351793D02*
X11678515Y-12304174D01*
X11678515Y-12304174D02*
X11688039Y-12266079D01*
X11688039Y-12266079D02*
X11697563Y-12247031D01*
X11697563Y-12247031D02*
X11707086Y-12237508D01*
X11707086Y-12237508D02*
X11726134Y-12227984D01*
X11878515Y-12408936D02*
X11888039Y-12418460D01*
X11888039Y-12418460D02*
X11878515Y-12427984D01*
X11878515Y-12427984D02*
X11868991Y-12418460D01*
X11868991Y-12418460D02*
X11878515Y-12408936D01*
X11878515Y-12408936D02*
X11878515Y-12427984D01*
X12011848Y-12227984D02*
X12030896Y-12227984D01*
X12030896Y-12227984D02*
X12049944Y-12237508D01*
X12049944Y-12237508D02*
X12059467Y-12247031D01*
X12059467Y-12247031D02*
X12068991Y-12266079D01*
X12068991Y-12266079D02*
X12078515Y-12304174D01*
X12078515Y-12304174D02*
X12078515Y-12351793D01*
X12078515Y-12351793D02*
X12068991Y-12389888D01*
X12068991Y-12389888D02*
X12059467Y-12408936D01*
X12059467Y-12408936D02*
X12049944Y-12418460D01*
X12049944Y-12418460D02*
X12030896Y-12427984D01*
X12030896Y-12427984D02*
X12011848Y-12427984D01*
X12011848Y-12427984D02*
X11992801Y-12418460D01*
X11992801Y-12418460D02*
X11983277Y-12408936D01*
X11983277Y-12408936D02*
X11973753Y-12389888D01*
X11973753Y-12389888D02*
X11964229Y-12351793D01*
X11964229Y-12351793D02*
X11964229Y-12304174D01*
X11964229Y-12304174D02*
X11973753Y-12266079D01*
X11973753Y-12266079D02*
X11983277Y-12247031D01*
X11983277Y-12247031D02*
X11992801Y-12237508D01*
X11992801Y-12237508D02*
X12011848Y-12227984D01*
X12145182Y-12227984D02*
X12268991Y-12227984D01*
X12268991Y-12227984D02*
X12202325Y-12304174D01*
X12202325Y-12304174D02*
X12230896Y-12304174D01*
X12230896Y-12304174D02*
X12249944Y-12313698D01*
X12249944Y-12313698D02*
X12259467Y-12323222D01*
X12259467Y-12323222D02*
X12268991Y-12342269D01*
X12268991Y-12342269D02*
X12268991Y-12389888D01*
X12268991Y-12389888D02*
X12259467Y-12408936D01*
X12259467Y-12408936D02*
X12249944Y-12418460D01*
X12249944Y-12418460D02*
X12230896Y-12427984D01*
X12230896Y-12427984D02*
X12173753Y-12427984D01*
X12173753Y-12427984D02*
X12154706Y-12418460D01*
X12154706Y-12418460D02*
X12145182Y-12408936D01*
X12449944Y-12227984D02*
X12354706Y-12227984D01*
X12354706Y-12227984D02*
X12345182Y-12323222D01*
X12345182Y-12323222D02*
X12354706Y-12313698D01*
X12354706Y-12313698D02*
X12373753Y-12304174D01*
X12373753Y-12304174D02*
X12421372Y-12304174D01*
X12421372Y-12304174D02*
X12440420Y-12313698D01*
X12440420Y-12313698D02*
X12449944Y-12323222D01*
X12449944Y-12323222D02*
X12459467Y-12342269D01*
X12459467Y-12342269D02*
X12459467Y-12389888D01*
X12459467Y-12389888D02*
X12449944Y-12408936D01*
X12449944Y-12408936D02*
X12440420Y-12418460D01*
X12440420Y-12418460D02*
X12421372Y-12427984D01*
X12421372Y-12427984D02*
X12373753Y-12427984D01*
X12373753Y-12427984D02*
X12354706Y-12418460D01*
X12354706Y-12418460D02*
X12345182Y-12408936D01*
X12583277Y-12227984D02*
X12602325Y-12227984D01*
X12602325Y-12227984D02*
X12621372Y-12237508D01*
X12621372Y-12237508D02*
X12630896Y-12247031D01*
X12630896Y-12247031D02*
X12640420Y-12266079D01*
X12640420Y-12266079D02*
X12649944Y-12304174D01*
X12649944Y-12304174D02*
X12649944Y-12351793D01*
X12649944Y-12351793D02*
X12640420Y-12389888D01*
X12640420Y-12389888D02*
X12630896Y-12408936D01*
X12630896Y-12408936D02*
X12621372Y-12418460D01*
X12621372Y-12418460D02*
X12602325Y-12427984D01*
X12602325Y-12427984D02*
X12583277Y-12427984D01*
X12583277Y-12427984D02*
X12564229Y-12418460D01*
X12564229Y-12418460D02*
X12554706Y-12408936D01*
X12554706Y-12408936D02*
X12545182Y-12389888D01*
X12545182Y-12389888D02*
X12535658Y-12351793D01*
X12535658Y-12351793D02*
X12535658Y-12304174D01*
X12535658Y-12304174D02*
X12545182Y-12266079D01*
X12545182Y-12266079D02*
X12554706Y-12247031D01*
X12554706Y-12247031D02*
X12564229Y-12237508D01*
X12564229Y-12237508D02*
X12583277Y-12227984D01*
X12726134Y-12227984D02*
X12726134Y-12266079D01*
X12802325Y-12227984D02*
X12802325Y-12266079D01*
X13097563Y-12504174D02*
X13088039Y-12494650D01*
X13088039Y-12494650D02*
X13068991Y-12466079D01*
X13068991Y-12466079D02*
X13059468Y-12447031D01*
X13059468Y-12447031D02*
X13049944Y-12418460D01*
X13049944Y-12418460D02*
X13040420Y-12370841D01*
X13040420Y-12370841D02*
X13040420Y-12332746D01*
X13040420Y-12332746D02*
X13049944Y-12285127D01*
X13049944Y-12285127D02*
X13059468Y-12256555D01*
X13059468Y-12256555D02*
X13068991Y-12237508D01*
X13068991Y-12237508D02*
X13088039Y-12208936D01*
X13088039Y-12208936D02*
X13097563Y-12199412D01*
X13278515Y-12427984D02*
X13164229Y-12427984D01*
X13221372Y-12427984D02*
X13221372Y-12227984D01*
X13221372Y-12227984D02*
X13202325Y-12256555D01*
X13202325Y-12256555D02*
X13183277Y-12275603D01*
X13183277Y-12275603D02*
X13164229Y-12285127D01*
X13449944Y-12294650D02*
X13449944Y-12427984D01*
X13402325Y-12218460D02*
X13354706Y-12361317D01*
X13354706Y-12361317D02*
X13478515Y-12361317D01*
X13707087Y-12427984D02*
X13707087Y-12227984D01*
X13792801Y-12427984D02*
X13792801Y-12323222D01*
X13792801Y-12323222D02*
X13783277Y-12304174D01*
X13783277Y-12304174D02*
X13764230Y-12294650D01*
X13764230Y-12294650D02*
X13735658Y-12294650D01*
X13735658Y-12294650D02*
X13716610Y-12304174D01*
X13716610Y-12304174D02*
X13707087Y-12313698D01*
X13916610Y-12427984D02*
X13897563Y-12418460D01*
X13897563Y-12418460D02*
X13888039Y-12408936D01*
X13888039Y-12408936D02*
X13878515Y-12389888D01*
X13878515Y-12389888D02*
X13878515Y-12332746D01*
X13878515Y-12332746D02*
X13888039Y-12313698D01*
X13888039Y-12313698D02*
X13897563Y-12304174D01*
X13897563Y-12304174D02*
X13916610Y-12294650D01*
X13916610Y-12294650D02*
X13945182Y-12294650D01*
X13945182Y-12294650D02*
X13964230Y-12304174D01*
X13964230Y-12304174D02*
X13973753Y-12313698D01*
X13973753Y-12313698D02*
X13983277Y-12332746D01*
X13983277Y-12332746D02*
X13983277Y-12389888D01*
X13983277Y-12389888D02*
X13973753Y-12408936D01*
X13973753Y-12408936D02*
X13964230Y-12418460D01*
X13964230Y-12418460D02*
X13945182Y-12427984D01*
X13945182Y-12427984D02*
X13916610Y-12427984D01*
X14097563Y-12427984D02*
X14078515Y-12418460D01*
X14078515Y-12418460D02*
X14068991Y-12399412D01*
X14068991Y-12399412D02*
X14068991Y-12227984D01*
X14249944Y-12418460D02*
X14230896Y-12427984D01*
X14230896Y-12427984D02*
X14192801Y-12427984D01*
X14192801Y-12427984D02*
X14173753Y-12418460D01*
X14173753Y-12418460D02*
X14164230Y-12399412D01*
X14164230Y-12399412D02*
X14164230Y-12323222D01*
X14164230Y-12323222D02*
X14173753Y-12304174D01*
X14173753Y-12304174D02*
X14192801Y-12294650D01*
X14192801Y-12294650D02*
X14230896Y-12294650D01*
X14230896Y-12294650D02*
X14249944Y-12304174D01*
X14249944Y-12304174D02*
X14259468Y-12323222D01*
X14259468Y-12323222D02*
X14259468Y-12342269D01*
X14259468Y-12342269D02*
X14164230Y-12361317D01*
X14335658Y-12418460D02*
X14354706Y-12427984D01*
X14354706Y-12427984D02*
X14392801Y-12427984D01*
X14392801Y-12427984D02*
X14411849Y-12418460D01*
X14411849Y-12418460D02*
X14421372Y-12399412D01*
X14421372Y-12399412D02*
X14421372Y-12389888D01*
X14421372Y-12389888D02*
X14411849Y-12370841D01*
X14411849Y-12370841D02*
X14392801Y-12361317D01*
X14392801Y-12361317D02*
X14364230Y-12361317D01*
X14364230Y-12361317D02*
X14345182Y-12351793D01*
X14345182Y-12351793D02*
X14335658Y-12332746D01*
X14335658Y-12332746D02*
X14335658Y-12323222D01*
X14335658Y-12323222D02*
X14345182Y-12304174D01*
X14345182Y-12304174D02*
X14364230Y-12294650D01*
X14364230Y-12294650D02*
X14392801Y-12294650D01*
X14392801Y-12294650D02*
X14411849Y-12304174D01*
X14488039Y-12504174D02*
X14497563Y-12494650D01*
X14497563Y-12494650D02*
X14516611Y-12466079D01*
X14516611Y-12466079D02*
X14526134Y-12447031D01*
X14526134Y-12447031D02*
X14535658Y-12418460D01*
X14535658Y-12418460D02*
X14545182Y-12370841D01*
X14545182Y-12370841D02*
X14545182Y-12332746D01*
X14545182Y-12332746D02*
X14535658Y-12285127D01*
X14535658Y-12285127D02*
X14526134Y-12256555D01*
X14526134Y-12256555D02*
X14516611Y-12237508D01*
X14516611Y-12237508D02*
X14497563Y-12208936D01*
X14497563Y-12208936D02*
X14488039Y-12199412D01*
D12*
X9472500Y-12550500D02*
X9472500Y-12650500D01*
X9422500Y-12600500D02*
X9522500Y-12600500D01*
D11*
X9888039Y-12691984D02*
X9773753Y-12691984D01*
X9830896Y-12691984D02*
X9830896Y-12491984D01*
X9830896Y-12491984D02*
X9811848Y-12520555D01*
X9811848Y-12520555D02*
X9792801Y-12539603D01*
X9792801Y-12539603D02*
X9773753Y-12549127D01*
X9973753Y-12672936D02*
X9983277Y-12682460D01*
X9983277Y-12682460D02*
X9973753Y-12691984D01*
X9973753Y-12691984D02*
X9964229Y-12682460D01*
X9964229Y-12682460D02*
X9973753Y-12672936D01*
X9973753Y-12672936D02*
X9973753Y-12691984D01*
X10107086Y-12491984D02*
X10126134Y-12491984D01*
X10126134Y-12491984D02*
X10145182Y-12501508D01*
X10145182Y-12501508D02*
X10154705Y-12511031D01*
X10154705Y-12511031D02*
X10164229Y-12530079D01*
X10164229Y-12530079D02*
X10173753Y-12568174D01*
X10173753Y-12568174D02*
X10173753Y-12615793D01*
X10173753Y-12615793D02*
X10164229Y-12653888D01*
X10164229Y-12653888D02*
X10154705Y-12672936D01*
X10154705Y-12672936D02*
X10145182Y-12682460D01*
X10145182Y-12682460D02*
X10126134Y-12691984D01*
X10126134Y-12691984D02*
X10107086Y-12691984D01*
X10107086Y-12691984D02*
X10088039Y-12682460D01*
X10088039Y-12682460D02*
X10078515Y-12672936D01*
X10078515Y-12672936D02*
X10068991Y-12653888D01*
X10068991Y-12653888D02*
X10059467Y-12615793D01*
X10059467Y-12615793D02*
X10059467Y-12568174D01*
X10059467Y-12568174D02*
X10068991Y-12530079D01*
X10068991Y-12530079D02*
X10078515Y-12511031D01*
X10078515Y-12511031D02*
X10088039Y-12501508D01*
X10088039Y-12501508D02*
X10107086Y-12491984D01*
X10297563Y-12491984D02*
X10316610Y-12491984D01*
X10316610Y-12491984D02*
X10335658Y-12501508D01*
X10335658Y-12501508D02*
X10345182Y-12511031D01*
X10345182Y-12511031D02*
X10354705Y-12530079D01*
X10354705Y-12530079D02*
X10364229Y-12568174D01*
X10364229Y-12568174D02*
X10364229Y-12615793D01*
X10364229Y-12615793D02*
X10354705Y-12653888D01*
X10354705Y-12653888D02*
X10345182Y-12672936D01*
X10345182Y-12672936D02*
X10335658Y-12682460D01*
X10335658Y-12682460D02*
X10316610Y-12691984D01*
X10316610Y-12691984D02*
X10297563Y-12691984D01*
X10297563Y-12691984D02*
X10278515Y-12682460D01*
X10278515Y-12682460D02*
X10268991Y-12672936D01*
X10268991Y-12672936D02*
X10259467Y-12653888D01*
X10259467Y-12653888D02*
X10249944Y-12615793D01*
X10249944Y-12615793D02*
X10249944Y-12568174D01*
X10249944Y-12568174D02*
X10259467Y-12530079D01*
X10259467Y-12530079D02*
X10268991Y-12511031D01*
X10268991Y-12511031D02*
X10278515Y-12501508D01*
X10278515Y-12501508D02*
X10297563Y-12491984D01*
X10488039Y-12491984D02*
X10507086Y-12491984D01*
X10507086Y-12491984D02*
X10526134Y-12501508D01*
X10526134Y-12501508D02*
X10535658Y-12511031D01*
X10535658Y-12511031D02*
X10545182Y-12530079D01*
X10545182Y-12530079D02*
X10554705Y-12568174D01*
X10554705Y-12568174D02*
X10554705Y-12615793D01*
X10554705Y-12615793D02*
X10545182Y-12653888D01*
X10545182Y-12653888D02*
X10535658Y-12672936D01*
X10535658Y-12672936D02*
X10526134Y-12682460D01*
X10526134Y-12682460D02*
X10507086Y-12691984D01*
X10507086Y-12691984D02*
X10488039Y-12691984D01*
X10488039Y-12691984D02*
X10468991Y-12682460D01*
X10468991Y-12682460D02*
X10459467Y-12672936D01*
X10459467Y-12672936D02*
X10449944Y-12653888D01*
X10449944Y-12653888D02*
X10440420Y-12615793D01*
X10440420Y-12615793D02*
X10440420Y-12568174D01*
X10440420Y-12568174D02*
X10449944Y-12530079D01*
X10449944Y-12530079D02*
X10459467Y-12511031D01*
X10459467Y-12511031D02*
X10468991Y-12501508D01*
X10468991Y-12501508D02*
X10488039Y-12491984D01*
X10640420Y-12691984D02*
X10640420Y-12558650D01*
X10640420Y-12577698D02*
X10649944Y-12568174D01*
X10649944Y-12568174D02*
X10668991Y-12558650D01*
X10668991Y-12558650D02*
X10697563Y-12558650D01*
X10697563Y-12558650D02*
X10716610Y-12568174D01*
X10716610Y-12568174D02*
X10726134Y-12587222D01*
X10726134Y-12587222D02*
X10726134Y-12691984D01*
X10726134Y-12587222D02*
X10735658Y-12568174D01*
X10735658Y-12568174D02*
X10754705Y-12558650D01*
X10754705Y-12558650D02*
X10783277Y-12558650D01*
X10783277Y-12558650D02*
X10802325Y-12568174D01*
X10802325Y-12568174D02*
X10811848Y-12587222D01*
X10811848Y-12587222D02*
X10811848Y-12691984D01*
X10907086Y-12691984D02*
X10907086Y-12558650D01*
X10907086Y-12577698D02*
X10916610Y-12568174D01*
X10916610Y-12568174D02*
X10935658Y-12558650D01*
X10935658Y-12558650D02*
X10964229Y-12558650D01*
X10964229Y-12558650D02*
X10983277Y-12568174D01*
X10983277Y-12568174D02*
X10992801Y-12587222D01*
X10992801Y-12587222D02*
X10992801Y-12691984D01*
X10992801Y-12587222D02*
X11002325Y-12568174D01*
X11002325Y-12568174D02*
X11021372Y-12558650D01*
X11021372Y-12558650D02*
X11049944Y-12558650D01*
X11049944Y-12558650D02*
X11068991Y-12568174D01*
X11068991Y-12568174D02*
X11078515Y-12587222D01*
X11078515Y-12587222D02*
X11078515Y-12691984D01*
X11468991Y-12482460D02*
X11297563Y-12739603D01*
X11726134Y-12491984D02*
X11745182Y-12491984D01*
X11745182Y-12491984D02*
X11764229Y-12501508D01*
X11764229Y-12501508D02*
X11773753Y-12511031D01*
X11773753Y-12511031D02*
X11783277Y-12530079D01*
X11783277Y-12530079D02*
X11792801Y-12568174D01*
X11792801Y-12568174D02*
X11792801Y-12615793D01*
X11792801Y-12615793D02*
X11783277Y-12653888D01*
X11783277Y-12653888D02*
X11773753Y-12672936D01*
X11773753Y-12672936D02*
X11764229Y-12682460D01*
X11764229Y-12682460D02*
X11745182Y-12691984D01*
X11745182Y-12691984D02*
X11726134Y-12691984D01*
X11726134Y-12691984D02*
X11707086Y-12682460D01*
X11707086Y-12682460D02*
X11697563Y-12672936D01*
X11697563Y-12672936D02*
X11688039Y-12653888D01*
X11688039Y-12653888D02*
X11678515Y-12615793D01*
X11678515Y-12615793D02*
X11678515Y-12568174D01*
X11678515Y-12568174D02*
X11688039Y-12530079D01*
X11688039Y-12530079D02*
X11697563Y-12511031D01*
X11697563Y-12511031D02*
X11707086Y-12501508D01*
X11707086Y-12501508D02*
X11726134Y-12491984D01*
X11878515Y-12672936D02*
X11888039Y-12682460D01*
X11888039Y-12682460D02*
X11878515Y-12691984D01*
X11878515Y-12691984D02*
X11868991Y-12682460D01*
X11868991Y-12682460D02*
X11878515Y-12672936D01*
X11878515Y-12672936D02*
X11878515Y-12691984D01*
X12011848Y-12491984D02*
X12030896Y-12491984D01*
X12030896Y-12491984D02*
X12049944Y-12501508D01*
X12049944Y-12501508D02*
X12059467Y-12511031D01*
X12059467Y-12511031D02*
X12068991Y-12530079D01*
X12068991Y-12530079D02*
X12078515Y-12568174D01*
X12078515Y-12568174D02*
X12078515Y-12615793D01*
X12078515Y-12615793D02*
X12068991Y-12653888D01*
X12068991Y-12653888D02*
X12059467Y-12672936D01*
X12059467Y-12672936D02*
X12049944Y-12682460D01*
X12049944Y-12682460D02*
X12030896Y-12691984D01*
X12030896Y-12691984D02*
X12011848Y-12691984D01*
X12011848Y-12691984D02*
X11992801Y-12682460D01*
X11992801Y-12682460D02*
X11983277Y-12672936D01*
X11983277Y-12672936D02*
X11973753Y-12653888D01*
X11973753Y-12653888D02*
X11964229Y-12615793D01*
X11964229Y-12615793D02*
X11964229Y-12568174D01*
X11964229Y-12568174D02*
X11973753Y-12530079D01*
X11973753Y-12530079D02*
X11983277Y-12511031D01*
X11983277Y-12511031D02*
X11992801Y-12501508D01*
X11992801Y-12501508D02*
X12011848Y-12491984D01*
X12145182Y-12491984D02*
X12268991Y-12491984D01*
X12268991Y-12491984D02*
X12202325Y-12568174D01*
X12202325Y-12568174D02*
X12230896Y-12568174D01*
X12230896Y-12568174D02*
X12249944Y-12577698D01*
X12249944Y-12577698D02*
X12259467Y-12587222D01*
X12259467Y-12587222D02*
X12268991Y-12606269D01*
X12268991Y-12606269D02*
X12268991Y-12653888D01*
X12268991Y-12653888D02*
X12259467Y-12672936D01*
X12259467Y-12672936D02*
X12249944Y-12682460D01*
X12249944Y-12682460D02*
X12230896Y-12691984D01*
X12230896Y-12691984D02*
X12173753Y-12691984D01*
X12173753Y-12691984D02*
X12154706Y-12682460D01*
X12154706Y-12682460D02*
X12145182Y-12672936D01*
X12364229Y-12691984D02*
X12402325Y-12691984D01*
X12402325Y-12691984D02*
X12421372Y-12682460D01*
X12421372Y-12682460D02*
X12430896Y-12672936D01*
X12430896Y-12672936D02*
X12449944Y-12644365D01*
X12449944Y-12644365D02*
X12459467Y-12606269D01*
X12459467Y-12606269D02*
X12459467Y-12530079D01*
X12459467Y-12530079D02*
X12449944Y-12511031D01*
X12449944Y-12511031D02*
X12440420Y-12501508D01*
X12440420Y-12501508D02*
X12421372Y-12491984D01*
X12421372Y-12491984D02*
X12383277Y-12491984D01*
X12383277Y-12491984D02*
X12364229Y-12501508D01*
X12364229Y-12501508D02*
X12354706Y-12511031D01*
X12354706Y-12511031D02*
X12345182Y-12530079D01*
X12345182Y-12530079D02*
X12345182Y-12577698D01*
X12345182Y-12577698D02*
X12354706Y-12596746D01*
X12354706Y-12596746D02*
X12364229Y-12606269D01*
X12364229Y-12606269D02*
X12383277Y-12615793D01*
X12383277Y-12615793D02*
X12421372Y-12615793D01*
X12421372Y-12615793D02*
X12440420Y-12606269D01*
X12440420Y-12606269D02*
X12449944Y-12596746D01*
X12449944Y-12596746D02*
X12459467Y-12577698D01*
X12630896Y-12558650D02*
X12630896Y-12691984D01*
X12583277Y-12482460D02*
X12535658Y-12625317D01*
X12535658Y-12625317D02*
X12659467Y-12625317D01*
X12726134Y-12491984D02*
X12726134Y-12530079D01*
X12802325Y-12491984D02*
X12802325Y-12530079D01*
X13097563Y-12768174D02*
X13088039Y-12758650D01*
X13088039Y-12758650D02*
X13068991Y-12730079D01*
X13068991Y-12730079D02*
X13059468Y-12711031D01*
X13059468Y-12711031D02*
X13049944Y-12682460D01*
X13049944Y-12682460D02*
X13040420Y-12634841D01*
X13040420Y-12634841D02*
X13040420Y-12596746D01*
X13040420Y-12596746D02*
X13049944Y-12549127D01*
X13049944Y-12549127D02*
X13059468Y-12520555D01*
X13059468Y-12520555D02*
X13068991Y-12501508D01*
X13068991Y-12501508D02*
X13088039Y-12472936D01*
X13088039Y-12472936D02*
X13097563Y-12463412D01*
X13183277Y-12691984D02*
X13221372Y-12691984D01*
X13221372Y-12691984D02*
X13240420Y-12682460D01*
X13240420Y-12682460D02*
X13249944Y-12672936D01*
X13249944Y-12672936D02*
X13268991Y-12644365D01*
X13268991Y-12644365D02*
X13278515Y-12606269D01*
X13278515Y-12606269D02*
X13278515Y-12530079D01*
X13278515Y-12530079D02*
X13268991Y-12511031D01*
X13268991Y-12511031D02*
X13259468Y-12501508D01*
X13259468Y-12501508D02*
X13240420Y-12491984D01*
X13240420Y-12491984D02*
X13202325Y-12491984D01*
X13202325Y-12491984D02*
X13183277Y-12501508D01*
X13183277Y-12501508D02*
X13173753Y-12511031D01*
X13173753Y-12511031D02*
X13164229Y-12530079D01*
X13164229Y-12530079D02*
X13164229Y-12577698D01*
X13164229Y-12577698D02*
X13173753Y-12596746D01*
X13173753Y-12596746D02*
X13183277Y-12606269D01*
X13183277Y-12606269D02*
X13202325Y-12615793D01*
X13202325Y-12615793D02*
X13240420Y-12615793D01*
X13240420Y-12615793D02*
X13259468Y-12606269D01*
X13259468Y-12606269D02*
X13268991Y-12596746D01*
X13268991Y-12596746D02*
X13278515Y-12577698D01*
X13516610Y-12691984D02*
X13516610Y-12491984D01*
X13602325Y-12691984D02*
X13602325Y-12587222D01*
X13602325Y-12587222D02*
X13592801Y-12568174D01*
X13592801Y-12568174D02*
X13573753Y-12558650D01*
X13573753Y-12558650D02*
X13545182Y-12558650D01*
X13545182Y-12558650D02*
X13526134Y-12568174D01*
X13526134Y-12568174D02*
X13516610Y-12577698D01*
X13726134Y-12691984D02*
X13707087Y-12682460D01*
X13707087Y-12682460D02*
X13697563Y-12672936D01*
X13697563Y-12672936D02*
X13688039Y-12653888D01*
X13688039Y-12653888D02*
X13688039Y-12596746D01*
X13688039Y-12596746D02*
X13697563Y-12577698D01*
X13697563Y-12577698D02*
X13707087Y-12568174D01*
X13707087Y-12568174D02*
X13726134Y-12558650D01*
X13726134Y-12558650D02*
X13754706Y-12558650D01*
X13754706Y-12558650D02*
X13773753Y-12568174D01*
X13773753Y-12568174D02*
X13783277Y-12577698D01*
X13783277Y-12577698D02*
X13792801Y-12596746D01*
X13792801Y-12596746D02*
X13792801Y-12653888D01*
X13792801Y-12653888D02*
X13783277Y-12672936D01*
X13783277Y-12672936D02*
X13773753Y-12682460D01*
X13773753Y-12682460D02*
X13754706Y-12691984D01*
X13754706Y-12691984D02*
X13726134Y-12691984D01*
X13907087Y-12691984D02*
X13888039Y-12682460D01*
X13888039Y-12682460D02*
X13878515Y-12663412D01*
X13878515Y-12663412D02*
X13878515Y-12491984D01*
X14059468Y-12682460D02*
X14040420Y-12691984D01*
X14040420Y-12691984D02*
X14002325Y-12691984D01*
X14002325Y-12691984D02*
X13983277Y-12682460D01*
X13983277Y-12682460D02*
X13973753Y-12663412D01*
X13973753Y-12663412D02*
X13973753Y-12587222D01*
X13973753Y-12587222D02*
X13983277Y-12568174D01*
X13983277Y-12568174D02*
X14002325Y-12558650D01*
X14002325Y-12558650D02*
X14040420Y-12558650D01*
X14040420Y-12558650D02*
X14059468Y-12568174D01*
X14059468Y-12568174D02*
X14068991Y-12587222D01*
X14068991Y-12587222D02*
X14068991Y-12606269D01*
X14068991Y-12606269D02*
X13973753Y-12625317D01*
X14145182Y-12682460D02*
X14164230Y-12691984D01*
X14164230Y-12691984D02*
X14202325Y-12691984D01*
X14202325Y-12691984D02*
X14221372Y-12682460D01*
X14221372Y-12682460D02*
X14230896Y-12663412D01*
X14230896Y-12663412D02*
X14230896Y-12653888D01*
X14230896Y-12653888D02*
X14221372Y-12634841D01*
X14221372Y-12634841D02*
X14202325Y-12625317D01*
X14202325Y-12625317D02*
X14173753Y-12625317D01*
X14173753Y-12625317D02*
X14154706Y-12615793D01*
X14154706Y-12615793D02*
X14145182Y-12596746D01*
X14145182Y-12596746D02*
X14145182Y-12587222D01*
X14145182Y-12587222D02*
X14154706Y-12568174D01*
X14154706Y-12568174D02*
X14173753Y-12558650D01*
X14173753Y-12558650D02*
X14202325Y-12558650D01*
X14202325Y-12558650D02*
X14221372Y-12568174D01*
X14297563Y-12768174D02*
X14307087Y-12758650D01*
X14307087Y-12758650D02*
X14326134Y-12730079D01*
X14326134Y-12730079D02*
X14335658Y-12711031D01*
X14335658Y-12711031D02*
X14345182Y-12682460D01*
X14345182Y-12682460D02*
X14354706Y-12634841D01*
X14354706Y-12634841D02*
X14354706Y-12596746D01*
X14354706Y-12596746D02*
X14345182Y-12549127D01*
X14345182Y-12549127D02*
X14335658Y-12520555D01*
X14335658Y-12520555D02*
X14326134Y-12501508D01*
X14326134Y-12501508D02*
X14307087Y-12472936D01*
X14307087Y-12472936D02*
X14297563Y-12463412D01*
D13*
X9500534Y-12917533D02*
X9500534Y-12811466D01*
X9394467Y-12811466D01*
X9394467Y-12917533D01*
X9500534Y-12917533D01*
D11*
X9888039Y-12955984D02*
X9773753Y-12955984D01*
X9830896Y-12955984D02*
X9830896Y-12755984D01*
X9830896Y-12755984D02*
X9811848Y-12784555D01*
X9811848Y-12784555D02*
X9792801Y-12803603D01*
X9792801Y-12803603D02*
X9773753Y-12813127D01*
X9973753Y-12936936D02*
X9983277Y-12946460D01*
X9983277Y-12946460D02*
X9973753Y-12955984D01*
X9973753Y-12955984D02*
X9964229Y-12946460D01*
X9964229Y-12946460D02*
X9973753Y-12936936D01*
X9973753Y-12936936D02*
X9973753Y-12955984D01*
X10164229Y-12755984D02*
X10068991Y-12755984D01*
X10068991Y-12755984D02*
X10059467Y-12851222D01*
X10059467Y-12851222D02*
X10068991Y-12841698D01*
X10068991Y-12841698D02*
X10088039Y-12832174D01*
X10088039Y-12832174D02*
X10135658Y-12832174D01*
X10135658Y-12832174D02*
X10154705Y-12841698D01*
X10154705Y-12841698D02*
X10164229Y-12851222D01*
X10164229Y-12851222D02*
X10173753Y-12870269D01*
X10173753Y-12870269D02*
X10173753Y-12917888D01*
X10173753Y-12917888D02*
X10164229Y-12936936D01*
X10164229Y-12936936D02*
X10154705Y-12946460D01*
X10154705Y-12946460D02*
X10135658Y-12955984D01*
X10135658Y-12955984D02*
X10088039Y-12955984D01*
X10088039Y-12955984D02*
X10068991Y-12946460D01*
X10068991Y-12946460D02*
X10059467Y-12936936D01*
X10297563Y-12755984D02*
X10316610Y-12755984D01*
X10316610Y-12755984D02*
X10335658Y-12765508D01*
X10335658Y-12765508D02*
X10345182Y-12775031D01*
X10345182Y-12775031D02*
X10354705Y-12794079D01*
X10354705Y-12794079D02*
X10364229Y-12832174D01*
X10364229Y-12832174D02*
X10364229Y-12879793D01*
X10364229Y-12879793D02*
X10354705Y-12917888D01*
X10354705Y-12917888D02*
X10345182Y-12936936D01*
X10345182Y-12936936D02*
X10335658Y-12946460D01*
X10335658Y-12946460D02*
X10316610Y-12955984D01*
X10316610Y-12955984D02*
X10297563Y-12955984D01*
X10297563Y-12955984D02*
X10278515Y-12946460D01*
X10278515Y-12946460D02*
X10268991Y-12936936D01*
X10268991Y-12936936D02*
X10259467Y-12917888D01*
X10259467Y-12917888D02*
X10249944Y-12879793D01*
X10249944Y-12879793D02*
X10249944Y-12832174D01*
X10249944Y-12832174D02*
X10259467Y-12794079D01*
X10259467Y-12794079D02*
X10268991Y-12775031D01*
X10268991Y-12775031D02*
X10278515Y-12765508D01*
X10278515Y-12765508D02*
X10297563Y-12755984D01*
X10488039Y-12755984D02*
X10507086Y-12755984D01*
X10507086Y-12755984D02*
X10526134Y-12765508D01*
X10526134Y-12765508D02*
X10535658Y-12775031D01*
X10535658Y-12775031D02*
X10545182Y-12794079D01*
X10545182Y-12794079D02*
X10554705Y-12832174D01*
X10554705Y-12832174D02*
X10554705Y-12879793D01*
X10554705Y-12879793D02*
X10545182Y-12917888D01*
X10545182Y-12917888D02*
X10535658Y-12936936D01*
X10535658Y-12936936D02*
X10526134Y-12946460D01*
X10526134Y-12946460D02*
X10507086Y-12955984D01*
X10507086Y-12955984D02*
X10488039Y-12955984D01*
X10488039Y-12955984D02*
X10468991Y-12946460D01*
X10468991Y-12946460D02*
X10459467Y-12936936D01*
X10459467Y-12936936D02*
X10449944Y-12917888D01*
X10449944Y-12917888D02*
X10440420Y-12879793D01*
X10440420Y-12879793D02*
X10440420Y-12832174D01*
X10440420Y-12832174D02*
X10449944Y-12794079D01*
X10449944Y-12794079D02*
X10459467Y-12775031D01*
X10459467Y-12775031D02*
X10468991Y-12765508D01*
X10468991Y-12765508D02*
X10488039Y-12755984D01*
X10640420Y-12955984D02*
X10640420Y-12822650D01*
X10640420Y-12841698D02*
X10649944Y-12832174D01*
X10649944Y-12832174D02*
X10668991Y-12822650D01*
X10668991Y-12822650D02*
X10697563Y-12822650D01*
X10697563Y-12822650D02*
X10716610Y-12832174D01*
X10716610Y-12832174D02*
X10726134Y-12851222D01*
X10726134Y-12851222D02*
X10726134Y-12955984D01*
X10726134Y-12851222D02*
X10735658Y-12832174D01*
X10735658Y-12832174D02*
X10754705Y-12822650D01*
X10754705Y-12822650D02*
X10783277Y-12822650D01*
X10783277Y-12822650D02*
X10802325Y-12832174D01*
X10802325Y-12832174D02*
X10811848Y-12851222D01*
X10811848Y-12851222D02*
X10811848Y-12955984D01*
X10907086Y-12955984D02*
X10907086Y-12822650D01*
X10907086Y-12841698D02*
X10916610Y-12832174D01*
X10916610Y-12832174D02*
X10935658Y-12822650D01*
X10935658Y-12822650D02*
X10964229Y-12822650D01*
X10964229Y-12822650D02*
X10983277Y-12832174D01*
X10983277Y-12832174D02*
X10992801Y-12851222D01*
X10992801Y-12851222D02*
X10992801Y-12955984D01*
X10992801Y-12851222D02*
X11002325Y-12832174D01*
X11002325Y-12832174D02*
X11021372Y-12822650D01*
X11021372Y-12822650D02*
X11049944Y-12822650D01*
X11049944Y-12822650D02*
X11068991Y-12832174D01*
X11068991Y-12832174D02*
X11078515Y-12851222D01*
X11078515Y-12851222D02*
X11078515Y-12955984D01*
X11468991Y-12746460D02*
X11297563Y-13003603D01*
X11726134Y-12755984D02*
X11745182Y-12755984D01*
X11745182Y-12755984D02*
X11764229Y-12765508D01*
X11764229Y-12765508D02*
X11773753Y-12775031D01*
X11773753Y-12775031D02*
X11783277Y-12794079D01*
X11783277Y-12794079D02*
X11792801Y-12832174D01*
X11792801Y-12832174D02*
X11792801Y-12879793D01*
X11792801Y-12879793D02*
X11783277Y-12917888D01*
X11783277Y-12917888D02*
X11773753Y-12936936D01*
X11773753Y-12936936D02*
X11764229Y-12946460D01*
X11764229Y-12946460D02*
X11745182Y-12955984D01*
X11745182Y-12955984D02*
X11726134Y-12955984D01*
X11726134Y-12955984D02*
X11707086Y-12946460D01*
X11707086Y-12946460D02*
X11697563Y-12936936D01*
X11697563Y-12936936D02*
X11688039Y-12917888D01*
X11688039Y-12917888D02*
X11678515Y-12879793D01*
X11678515Y-12879793D02*
X11678515Y-12832174D01*
X11678515Y-12832174D02*
X11688039Y-12794079D01*
X11688039Y-12794079D02*
X11697563Y-12775031D01*
X11697563Y-12775031D02*
X11707086Y-12765508D01*
X11707086Y-12765508D02*
X11726134Y-12755984D01*
X11878515Y-12936936D02*
X11888039Y-12946460D01*
X11888039Y-12946460D02*
X11878515Y-12955984D01*
X11878515Y-12955984D02*
X11868991Y-12946460D01*
X11868991Y-12946460D02*
X11878515Y-12936936D01*
X11878515Y-12936936D02*
X11878515Y-12955984D01*
X12011848Y-12755984D02*
X12030896Y-12755984D01*
X12030896Y-12755984D02*
X12049944Y-12765508D01*
X12049944Y-12765508D02*
X12059467Y-12775031D01*
X12059467Y-12775031D02*
X12068991Y-12794079D01*
X12068991Y-12794079D02*
X12078515Y-12832174D01*
X12078515Y-12832174D02*
X12078515Y-12879793D01*
X12078515Y-12879793D02*
X12068991Y-12917888D01*
X12068991Y-12917888D02*
X12059467Y-12936936D01*
X12059467Y-12936936D02*
X12049944Y-12946460D01*
X12049944Y-12946460D02*
X12030896Y-12955984D01*
X12030896Y-12955984D02*
X12011848Y-12955984D01*
X12011848Y-12955984D02*
X11992801Y-12946460D01*
X11992801Y-12946460D02*
X11983277Y-12936936D01*
X11983277Y-12936936D02*
X11973753Y-12917888D01*
X11973753Y-12917888D02*
X11964229Y-12879793D01*
X11964229Y-12879793D02*
X11964229Y-12832174D01*
X11964229Y-12832174D02*
X11973753Y-12794079D01*
X11973753Y-12794079D02*
X11983277Y-12775031D01*
X11983277Y-12775031D02*
X11992801Y-12765508D01*
X11992801Y-12765508D02*
X12011848Y-12755984D01*
X12259467Y-12755984D02*
X12164229Y-12755984D01*
X12164229Y-12755984D02*
X12154706Y-12851222D01*
X12154706Y-12851222D02*
X12164229Y-12841698D01*
X12164229Y-12841698D02*
X12183277Y-12832174D01*
X12183277Y-12832174D02*
X12230896Y-12832174D01*
X12230896Y-12832174D02*
X12249944Y-12841698D01*
X12249944Y-12841698D02*
X12259467Y-12851222D01*
X12259467Y-12851222D02*
X12268991Y-12870269D01*
X12268991Y-12870269D02*
X12268991Y-12917888D01*
X12268991Y-12917888D02*
X12259467Y-12936936D01*
X12259467Y-12936936D02*
X12249944Y-12946460D01*
X12249944Y-12946460D02*
X12230896Y-12955984D01*
X12230896Y-12955984D02*
X12183277Y-12955984D01*
X12183277Y-12955984D02*
X12164229Y-12946460D01*
X12164229Y-12946460D02*
X12154706Y-12936936D01*
X12364229Y-12955984D02*
X12402325Y-12955984D01*
X12402325Y-12955984D02*
X12421372Y-12946460D01*
X12421372Y-12946460D02*
X12430896Y-12936936D01*
X12430896Y-12936936D02*
X12449944Y-12908365D01*
X12449944Y-12908365D02*
X12459467Y-12870269D01*
X12459467Y-12870269D02*
X12459467Y-12794079D01*
X12459467Y-12794079D02*
X12449944Y-12775031D01*
X12449944Y-12775031D02*
X12440420Y-12765508D01*
X12440420Y-12765508D02*
X12421372Y-12755984D01*
X12421372Y-12755984D02*
X12383277Y-12755984D01*
X12383277Y-12755984D02*
X12364229Y-12765508D01*
X12364229Y-12765508D02*
X12354706Y-12775031D01*
X12354706Y-12775031D02*
X12345182Y-12794079D01*
X12345182Y-12794079D02*
X12345182Y-12841698D01*
X12345182Y-12841698D02*
X12354706Y-12860746D01*
X12354706Y-12860746D02*
X12364229Y-12870269D01*
X12364229Y-12870269D02*
X12383277Y-12879793D01*
X12383277Y-12879793D02*
X12421372Y-12879793D01*
X12421372Y-12879793D02*
X12440420Y-12870269D01*
X12440420Y-12870269D02*
X12449944Y-12860746D01*
X12449944Y-12860746D02*
X12459467Y-12841698D01*
X12649944Y-12955984D02*
X12535658Y-12955984D01*
X12592801Y-12955984D02*
X12592801Y-12755984D01*
X12592801Y-12755984D02*
X12573753Y-12784555D01*
X12573753Y-12784555D02*
X12554706Y-12803603D01*
X12554706Y-12803603D02*
X12535658Y-12813127D01*
X12726134Y-12755984D02*
X12726134Y-12794079D01*
X12802325Y-12755984D02*
X12802325Y-12794079D01*
X13097563Y-13032174D02*
X13088039Y-13022650D01*
X13088039Y-13022650D02*
X13068991Y-12994079D01*
X13068991Y-12994079D02*
X13059468Y-12975031D01*
X13059468Y-12975031D02*
X13049944Y-12946460D01*
X13049944Y-12946460D02*
X13040420Y-12898841D01*
X13040420Y-12898841D02*
X13040420Y-12860746D01*
X13040420Y-12860746D02*
X13049944Y-12813127D01*
X13049944Y-12813127D02*
X13059468Y-12784555D01*
X13059468Y-12784555D02*
X13068991Y-12765508D01*
X13068991Y-12765508D02*
X13088039Y-12736936D01*
X13088039Y-12736936D02*
X13097563Y-12727412D01*
X13164229Y-12775031D02*
X13173753Y-12765508D01*
X13173753Y-12765508D02*
X13192801Y-12755984D01*
X13192801Y-12755984D02*
X13240420Y-12755984D01*
X13240420Y-12755984D02*
X13259468Y-12765508D01*
X13259468Y-12765508D02*
X13268991Y-12775031D01*
X13268991Y-12775031D02*
X13278515Y-12794079D01*
X13278515Y-12794079D02*
X13278515Y-12813127D01*
X13278515Y-12813127D02*
X13268991Y-12841698D01*
X13268991Y-12841698D02*
X13154706Y-12955984D01*
X13154706Y-12955984D02*
X13278515Y-12955984D01*
X13516610Y-12955984D02*
X13516610Y-12755984D01*
X13602325Y-12955984D02*
X13602325Y-12851222D01*
X13602325Y-12851222D02*
X13592801Y-12832174D01*
X13592801Y-12832174D02*
X13573753Y-12822650D01*
X13573753Y-12822650D02*
X13545182Y-12822650D01*
X13545182Y-12822650D02*
X13526134Y-12832174D01*
X13526134Y-12832174D02*
X13516610Y-12841698D01*
X13726134Y-12955984D02*
X13707087Y-12946460D01*
X13707087Y-12946460D02*
X13697563Y-12936936D01*
X13697563Y-12936936D02*
X13688039Y-12917888D01*
X13688039Y-12917888D02*
X13688039Y-12860746D01*
X13688039Y-12860746D02*
X13697563Y-12841698D01*
X13697563Y-12841698D02*
X13707087Y-12832174D01*
X13707087Y-12832174D02*
X13726134Y-12822650D01*
X13726134Y-12822650D02*
X13754706Y-12822650D01*
X13754706Y-12822650D02*
X13773753Y-12832174D01*
X13773753Y-12832174D02*
X13783277Y-12841698D01*
X13783277Y-12841698D02*
X13792801Y-12860746D01*
X13792801Y-12860746D02*
X13792801Y-12917888D01*
X13792801Y-12917888D02*
X13783277Y-12936936D01*
X13783277Y-12936936D02*
X13773753Y-12946460D01*
X13773753Y-12946460D02*
X13754706Y-12955984D01*
X13754706Y-12955984D02*
X13726134Y-12955984D01*
X13907087Y-12955984D02*
X13888039Y-12946460D01*
X13888039Y-12946460D02*
X13878515Y-12927412D01*
X13878515Y-12927412D02*
X13878515Y-12755984D01*
X14059468Y-12946460D02*
X14040420Y-12955984D01*
X14040420Y-12955984D02*
X14002325Y-12955984D01*
X14002325Y-12955984D02*
X13983277Y-12946460D01*
X13983277Y-12946460D02*
X13973753Y-12927412D01*
X13973753Y-12927412D02*
X13973753Y-12851222D01*
X13973753Y-12851222D02*
X13983277Y-12832174D01*
X13983277Y-12832174D02*
X14002325Y-12822650D01*
X14002325Y-12822650D02*
X14040420Y-12822650D01*
X14040420Y-12822650D02*
X14059468Y-12832174D01*
X14059468Y-12832174D02*
X14068991Y-12851222D01*
X14068991Y-12851222D02*
X14068991Y-12870269D01*
X14068991Y-12870269D02*
X13973753Y-12889317D01*
X14145182Y-12946460D02*
X14164230Y-12955984D01*
X14164230Y-12955984D02*
X14202325Y-12955984D01*
X14202325Y-12955984D02*
X14221372Y-12946460D01*
X14221372Y-12946460D02*
X14230896Y-12927412D01*
X14230896Y-12927412D02*
X14230896Y-12917888D01*
X14230896Y-12917888D02*
X14221372Y-12898841D01*
X14221372Y-12898841D02*
X14202325Y-12889317D01*
X14202325Y-12889317D02*
X14173753Y-12889317D01*
X14173753Y-12889317D02*
X14154706Y-12879793D01*
X14154706Y-12879793D02*
X14145182Y-12860746D01*
X14145182Y-12860746D02*
X14145182Y-12851222D01*
X14145182Y-12851222D02*
X14154706Y-12832174D01*
X14154706Y-12832174D02*
X14173753Y-12822650D01*
X14173753Y-12822650D02*
X14202325Y-12822650D01*
X14202325Y-12822650D02*
X14221372Y-12832174D01*
X14468992Y-12879793D02*
X14621373Y-12879793D01*
X14545182Y-12955984D02*
X14545182Y-12803603D01*
X14859468Y-12775031D02*
X14868992Y-12765508D01*
X14868992Y-12765508D02*
X14888039Y-12755984D01*
X14888039Y-12755984D02*
X14935658Y-12755984D01*
X14935658Y-12755984D02*
X14954706Y-12765508D01*
X14954706Y-12765508D02*
X14964230Y-12775031D01*
X14964230Y-12775031D02*
X14973753Y-12794079D01*
X14973753Y-12794079D02*
X14973753Y-12813127D01*
X14973753Y-12813127D02*
X14964230Y-12841698D01*
X14964230Y-12841698D02*
X14849944Y-12955984D01*
X14849944Y-12955984D02*
X14973753Y-12955984D01*
X15202325Y-12946460D02*
X15221373Y-12955984D01*
X15221373Y-12955984D02*
X15259468Y-12955984D01*
X15259468Y-12955984D02*
X15278515Y-12946460D01*
X15278515Y-12946460D02*
X15288039Y-12927412D01*
X15288039Y-12927412D02*
X15288039Y-12917888D01*
X15288039Y-12917888D02*
X15278515Y-12898841D01*
X15278515Y-12898841D02*
X15259468Y-12889317D01*
X15259468Y-12889317D02*
X15230896Y-12889317D01*
X15230896Y-12889317D02*
X15211849Y-12879793D01*
X15211849Y-12879793D02*
X15202325Y-12860746D01*
X15202325Y-12860746D02*
X15202325Y-12851222D01*
X15202325Y-12851222D02*
X15211849Y-12832174D01*
X15211849Y-12832174D02*
X15230896Y-12822650D01*
X15230896Y-12822650D02*
X15259468Y-12822650D01*
X15259468Y-12822650D02*
X15278515Y-12832174D01*
X15402325Y-12955984D02*
X15383277Y-12946460D01*
X15383277Y-12946460D02*
X15373754Y-12927412D01*
X15373754Y-12927412D02*
X15373754Y-12755984D01*
X15507087Y-12955984D02*
X15488039Y-12946460D01*
X15488039Y-12946460D02*
X15478515Y-12936936D01*
X15478515Y-12936936D02*
X15468992Y-12917888D01*
X15468992Y-12917888D02*
X15468992Y-12860746D01*
X15468992Y-12860746D02*
X15478515Y-12841698D01*
X15478515Y-12841698D02*
X15488039Y-12832174D01*
X15488039Y-12832174D02*
X15507087Y-12822650D01*
X15507087Y-12822650D02*
X15535658Y-12822650D01*
X15535658Y-12822650D02*
X15554706Y-12832174D01*
X15554706Y-12832174D02*
X15564230Y-12841698D01*
X15564230Y-12841698D02*
X15573754Y-12860746D01*
X15573754Y-12860746D02*
X15573754Y-12917888D01*
X15573754Y-12917888D02*
X15564230Y-12936936D01*
X15564230Y-12936936D02*
X15554706Y-12946460D01*
X15554706Y-12946460D02*
X15535658Y-12955984D01*
X15535658Y-12955984D02*
X15507087Y-12955984D01*
X15630896Y-12822650D02*
X15707087Y-12822650D01*
X15659468Y-12755984D02*
X15659468Y-12927412D01*
X15659468Y-12927412D02*
X15668992Y-12946460D01*
X15668992Y-12946460D02*
X15688039Y-12955984D01*
X15688039Y-12955984D02*
X15707087Y-12955984D01*
X15764230Y-12946460D02*
X15783277Y-12955984D01*
X15783277Y-12955984D02*
X15821373Y-12955984D01*
X15821373Y-12955984D02*
X15840420Y-12946460D01*
X15840420Y-12946460D02*
X15849944Y-12927412D01*
X15849944Y-12927412D02*
X15849944Y-12917888D01*
X15849944Y-12917888D02*
X15840420Y-12898841D01*
X15840420Y-12898841D02*
X15821373Y-12889317D01*
X15821373Y-12889317D02*
X15792801Y-12889317D01*
X15792801Y-12889317D02*
X15773754Y-12879793D01*
X15773754Y-12879793D02*
X15764230Y-12860746D01*
X15764230Y-12860746D02*
X15764230Y-12851222D01*
X15764230Y-12851222D02*
X15773754Y-12832174D01*
X15773754Y-12832174D02*
X15792801Y-12822650D01*
X15792801Y-12822650D02*
X15821373Y-12822650D01*
X15821373Y-12822650D02*
X15840420Y-12832174D01*
X15916611Y-13032174D02*
X15926135Y-13022650D01*
X15926135Y-13022650D02*
X15945182Y-12994079D01*
X15945182Y-12994079D02*
X15954706Y-12975031D01*
X15954706Y-12975031D02*
X15964230Y-12946460D01*
X15964230Y-12946460D02*
X15973754Y-12898841D01*
X15973754Y-12898841D02*
X15973754Y-12860746D01*
X15973754Y-12860746D02*
X15964230Y-12813127D01*
X15964230Y-12813127D02*
X15954706Y-12784555D01*
X15954706Y-12784555D02*
X15945182Y-12765508D01*
X15945182Y-12765508D02*
X15926135Y-12736936D01*
X15926135Y-12736936D02*
X15916611Y-12727412D01*
M02*
