M48
; DRILL file {KiCad 9.0.2} date 2025-06-27T15:59:43-0400
; FORMAT={-:-/ absolute / metric / decimal}
; #@! TF.CreationDate,2025-06-27T15:59:43-04:00
; #@! TF.GenerationSoftware,Kicad,Pcbnew,9.0.2
; #@! TF.FileFunction,Plated,1,2,PTH
FMAT,2
METRIC
; #@! TA.AperFunction,Plated,PTH,ComponentDrill
T1C0.800
; #@! TA.AperFunction,Plated,PTH,ComponentDrill
T2C0.889
; #@! TA.AperFunction,Plated,PTH,ComponentDrill
T3C1.000
; #@! TA.AperFunction,Plated,PTH,ComponentDrill
T4C1.500
%
G90
G05
T1
X139.823Y-95.219
X147.443Y-95.219
X150.971Y-95.25
X158.591Y-95.25
T2
X142.969Y-71.894
X142.969Y-74.434
X142.969Y-76.974
X142.969Y-79.514
X142.969Y-82.054
X142.969Y-84.594
X142.969Y-87.134
X158.209Y-71.894
X158.209Y-74.434
X158.209Y-76.974
X158.209Y-79.514
X158.209Y-82.054
X158.209Y-84.594
X158.209Y-87.134
T3
X107.156Y-73.819
X109.696Y-73.819
X112.236Y-73.819
X114.776Y-73.819
X121.337Y-97.512
X121.337Y-100.012
X121.337Y-102.512
X135.838Y-97.512
X135.838Y-102.512
T4
X125.093Y-79.281
X131.443Y-76.741
T4
G00X128.188Y-94.412
M15
G01X129.487Y-94.412
M16
G05
G00X128.188Y-105.612
M15
G01X129.487Y-105.612
M16
G05
M30
