%TF.GenerationSoftware,KiCad,Pcbnew,9.0.2*%
%TF.CreationDate,2025-06-27T15:59:43-04:00*%
%TF.ProjectId,PassPad_KiCAD,50617373-5061-4645-9f4b-694341442e6b,rev?*%
%TF.SameCoordinates,Original*%
%TF.FileFunction,Drillmap*%
%TF.FilePolarity,Positive*%
%FSLAX45Y45*%
G04 Gerber Fmt 4.5, Leading zero omitted, Abs format (unit mm)*
G04 Created by KiCad (PCBNEW 9.0.2) date 2025-06-27 15:59:43*
%MOMM*%
%LPD*%
G01*
G04 APERTURE LIST*
%ADD10C,0.050000*%
%ADD11C,0.200000*%
%ADD12C,0.170000*%
%ADD13C,0.270000*%
%ADD14C,0.400000*%
G04 APERTURE END LIST*
D10*
X9825000Y-11430000D02*
G75*
G02*
X9525000Y-11130000I0J300000D01*
G01*
X16906875Y-11130000D02*
G75*
G02*
X16606875Y-11430005I-300005J0D01*
G01*
X9525000Y-7205625D02*
G75*
G02*
X9825000Y-6905630I300000J-5D01*
G01*
X16606875Y-6905625D02*
G75*
G02*
X16906875Y-7205625I-5J-300005D01*
G01*
X9525000Y-11130000D02*
X9525000Y-7205625D01*
X16606875Y-11430000D02*
X9825000Y-11430000D01*
X16906875Y-7205625D02*
X16906875Y-11130000D01*
X9825000Y-6905625D02*
X16606875Y-6905625D01*
D11*
D12*
X12297345Y-8097103D02*
X12467345Y-8267103D01*
X12467345Y-8097103D02*
X12297345Y-8267103D01*
X13313345Y-8097103D02*
X13483345Y-8267103D01*
X13483345Y-8097103D02*
X13313345Y-8267103D01*
D13*
X9936765Y-11150721D02*
G75*
G02*
X9666765Y-11150721I-135000J0D01*
G01*
X9666765Y-11150721D02*
G75*
G02*
X9936765Y-11150721I135000J0D01*
G01*
X9940683Y-7185855D02*
G75*
G02*
X9670683Y-7185855I-135000J0D01*
G01*
X9670683Y-7185855D02*
G75*
G02*
X9940683Y-7185855I135000J0D01*
G01*
X16753686Y-11147577D02*
G75*
G02*
X16483686Y-11147577I-135000J0D01*
G01*
X16483686Y-11147577D02*
G75*
G02*
X16753686Y-11147577I135000J0D01*
G01*
X16759155Y-7188947D02*
G75*
G02*
X16489155Y-7188947I-135000J0D01*
G01*
X16489155Y-7188947D02*
G75*
G02*
X16759155Y-7188947I135000J0D01*
G01*
D14*
X12890345Y-7982103D02*
X12890345Y-8382103D01*
X12690345Y-8182103D02*
X13090345Y-8182103D01*
D11*
X9783277Y-11743984D02*
X9783277Y-11543984D01*
X9783277Y-11543984D02*
X9830896Y-11543984D01*
X9830896Y-11543984D02*
X9859467Y-11553508D01*
X9859467Y-11553508D02*
X9878515Y-11572555D01*
X9878515Y-11572555D02*
X9888039Y-11591603D01*
X9888039Y-11591603D02*
X9897563Y-11629698D01*
X9897563Y-11629698D02*
X9897563Y-11658269D01*
X9897563Y-11658269D02*
X9888039Y-11696365D01*
X9888039Y-11696365D02*
X9878515Y-11715412D01*
X9878515Y-11715412D02*
X9859467Y-11734460D01*
X9859467Y-11734460D02*
X9830896Y-11743984D01*
X9830896Y-11743984D02*
X9783277Y-11743984D01*
X9983277Y-11743984D02*
X9983277Y-11610650D01*
X9983277Y-11648746D02*
X9992801Y-11629698D01*
X9992801Y-11629698D02*
X10002324Y-11620174D01*
X10002324Y-11620174D02*
X10021372Y-11610650D01*
X10021372Y-11610650D02*
X10040420Y-11610650D01*
X10107086Y-11743984D02*
X10107086Y-11610650D01*
X10107086Y-11543984D02*
X10097563Y-11553508D01*
X10097563Y-11553508D02*
X10107086Y-11563031D01*
X10107086Y-11563031D02*
X10116610Y-11553508D01*
X10116610Y-11553508D02*
X10107086Y-11543984D01*
X10107086Y-11543984D02*
X10107086Y-11563031D01*
X10230896Y-11743984D02*
X10211848Y-11734460D01*
X10211848Y-11734460D02*
X10202324Y-11715412D01*
X10202324Y-11715412D02*
X10202324Y-11543984D01*
X10335658Y-11743984D02*
X10316610Y-11734460D01*
X10316610Y-11734460D02*
X10307086Y-11715412D01*
X10307086Y-11715412D02*
X10307086Y-11543984D01*
X10564229Y-11743984D02*
X10564229Y-11543984D01*
X10564229Y-11543984D02*
X10630896Y-11686841D01*
X10630896Y-11686841D02*
X10697563Y-11543984D01*
X10697563Y-11543984D02*
X10697563Y-11743984D01*
X10878515Y-11743984D02*
X10878515Y-11639222D01*
X10878515Y-11639222D02*
X10868991Y-11620174D01*
X10868991Y-11620174D02*
X10849944Y-11610650D01*
X10849944Y-11610650D02*
X10811848Y-11610650D01*
X10811848Y-11610650D02*
X10792801Y-11620174D01*
X10878515Y-11734460D02*
X10859467Y-11743984D01*
X10859467Y-11743984D02*
X10811848Y-11743984D01*
X10811848Y-11743984D02*
X10792801Y-11734460D01*
X10792801Y-11734460D02*
X10783277Y-11715412D01*
X10783277Y-11715412D02*
X10783277Y-11696365D01*
X10783277Y-11696365D02*
X10792801Y-11677317D01*
X10792801Y-11677317D02*
X10811848Y-11667793D01*
X10811848Y-11667793D02*
X10859467Y-11667793D01*
X10859467Y-11667793D02*
X10878515Y-11658269D01*
X10973753Y-11610650D02*
X10973753Y-11810650D01*
X10973753Y-11620174D02*
X10992801Y-11610650D01*
X10992801Y-11610650D02*
X11030896Y-11610650D01*
X11030896Y-11610650D02*
X11049944Y-11620174D01*
X11049944Y-11620174D02*
X11059467Y-11629698D01*
X11059467Y-11629698D02*
X11068991Y-11648746D01*
X11068991Y-11648746D02*
X11068991Y-11705888D01*
X11068991Y-11705888D02*
X11059467Y-11724936D01*
X11059467Y-11724936D02*
X11049944Y-11734460D01*
X11049944Y-11734460D02*
X11030896Y-11743984D01*
X11030896Y-11743984D02*
X10992801Y-11743984D01*
X10992801Y-11743984D02*
X10973753Y-11734460D01*
X11154705Y-11724936D02*
X11164229Y-11734460D01*
X11164229Y-11734460D02*
X11154705Y-11743984D01*
X11154705Y-11743984D02*
X11145182Y-11734460D01*
X11145182Y-11734460D02*
X11154705Y-11724936D01*
X11154705Y-11724936D02*
X11154705Y-11743984D01*
X11154705Y-11620174D02*
X11164229Y-11629698D01*
X11164229Y-11629698D02*
X11154705Y-11639222D01*
X11154705Y-11639222D02*
X11145182Y-11629698D01*
X11145182Y-11629698D02*
X11154705Y-11620174D01*
X11154705Y-11620174D02*
X11154705Y-11639222D01*
D12*
X9352500Y-11987500D02*
X9522500Y-12157500D01*
X9522500Y-11987500D02*
X9352500Y-12157500D01*
D11*
X9888039Y-12163984D02*
X9773753Y-12163984D01*
X9830896Y-12163984D02*
X9830896Y-11963984D01*
X9830896Y-11963984D02*
X9811848Y-11992555D01*
X9811848Y-11992555D02*
X9792801Y-12011603D01*
X9792801Y-12011603D02*
X9773753Y-12021127D01*
X9973753Y-12144936D02*
X9983277Y-12154460D01*
X9983277Y-12154460D02*
X9973753Y-12163984D01*
X9973753Y-12163984D02*
X9964229Y-12154460D01*
X9964229Y-12154460D02*
X9973753Y-12144936D01*
X9973753Y-12144936D02*
X9973753Y-12163984D01*
X10049944Y-11963984D02*
X10183277Y-11963984D01*
X10183277Y-11963984D02*
X10097563Y-12163984D01*
X10297563Y-11963984D02*
X10316610Y-11963984D01*
X10316610Y-11963984D02*
X10335658Y-11973508D01*
X10335658Y-11973508D02*
X10345182Y-11983031D01*
X10345182Y-11983031D02*
X10354705Y-12002079D01*
X10354705Y-12002079D02*
X10364229Y-12040174D01*
X10364229Y-12040174D02*
X10364229Y-12087793D01*
X10364229Y-12087793D02*
X10354705Y-12125888D01*
X10354705Y-12125888D02*
X10345182Y-12144936D01*
X10345182Y-12144936D02*
X10335658Y-12154460D01*
X10335658Y-12154460D02*
X10316610Y-12163984D01*
X10316610Y-12163984D02*
X10297563Y-12163984D01*
X10297563Y-12163984D02*
X10278515Y-12154460D01*
X10278515Y-12154460D02*
X10268991Y-12144936D01*
X10268991Y-12144936D02*
X10259467Y-12125888D01*
X10259467Y-12125888D02*
X10249944Y-12087793D01*
X10249944Y-12087793D02*
X10249944Y-12040174D01*
X10249944Y-12040174D02*
X10259467Y-12002079D01*
X10259467Y-12002079D02*
X10268991Y-11983031D01*
X10268991Y-11983031D02*
X10278515Y-11973508D01*
X10278515Y-11973508D02*
X10297563Y-11963984D01*
X10488039Y-11963984D02*
X10507086Y-11963984D01*
X10507086Y-11963984D02*
X10526134Y-11973508D01*
X10526134Y-11973508D02*
X10535658Y-11983031D01*
X10535658Y-11983031D02*
X10545182Y-12002079D01*
X10545182Y-12002079D02*
X10554705Y-12040174D01*
X10554705Y-12040174D02*
X10554705Y-12087793D01*
X10554705Y-12087793D02*
X10545182Y-12125888D01*
X10545182Y-12125888D02*
X10535658Y-12144936D01*
X10535658Y-12144936D02*
X10526134Y-12154460D01*
X10526134Y-12154460D02*
X10507086Y-12163984D01*
X10507086Y-12163984D02*
X10488039Y-12163984D01*
X10488039Y-12163984D02*
X10468991Y-12154460D01*
X10468991Y-12154460D02*
X10459467Y-12144936D01*
X10459467Y-12144936D02*
X10449944Y-12125888D01*
X10449944Y-12125888D02*
X10440420Y-12087793D01*
X10440420Y-12087793D02*
X10440420Y-12040174D01*
X10440420Y-12040174D02*
X10449944Y-12002079D01*
X10449944Y-12002079D02*
X10459467Y-11983031D01*
X10459467Y-11983031D02*
X10468991Y-11973508D01*
X10468991Y-11973508D02*
X10488039Y-11963984D01*
X10640420Y-12163984D02*
X10640420Y-12030650D01*
X10640420Y-12049698D02*
X10649944Y-12040174D01*
X10649944Y-12040174D02*
X10668991Y-12030650D01*
X10668991Y-12030650D02*
X10697563Y-12030650D01*
X10697563Y-12030650D02*
X10716610Y-12040174D01*
X10716610Y-12040174D02*
X10726134Y-12059222D01*
X10726134Y-12059222D02*
X10726134Y-12163984D01*
X10726134Y-12059222D02*
X10735658Y-12040174D01*
X10735658Y-12040174D02*
X10754705Y-12030650D01*
X10754705Y-12030650D02*
X10783277Y-12030650D01*
X10783277Y-12030650D02*
X10802325Y-12040174D01*
X10802325Y-12040174D02*
X10811848Y-12059222D01*
X10811848Y-12059222D02*
X10811848Y-12163984D01*
X10907086Y-12163984D02*
X10907086Y-12030650D01*
X10907086Y-12049698D02*
X10916610Y-12040174D01*
X10916610Y-12040174D02*
X10935658Y-12030650D01*
X10935658Y-12030650D02*
X10964229Y-12030650D01*
X10964229Y-12030650D02*
X10983277Y-12040174D01*
X10983277Y-12040174D02*
X10992801Y-12059222D01*
X10992801Y-12059222D02*
X10992801Y-12163984D01*
X10992801Y-12059222D02*
X11002325Y-12040174D01*
X11002325Y-12040174D02*
X11021372Y-12030650D01*
X11021372Y-12030650D02*
X11049944Y-12030650D01*
X11049944Y-12030650D02*
X11068991Y-12040174D01*
X11068991Y-12040174D02*
X11078515Y-12059222D01*
X11078515Y-12059222D02*
X11078515Y-12163984D01*
X11468991Y-11954460D02*
X11297563Y-12211603D01*
X11726134Y-11963984D02*
X11745182Y-11963984D01*
X11745182Y-11963984D02*
X11764229Y-11973508D01*
X11764229Y-11973508D02*
X11773753Y-11983031D01*
X11773753Y-11983031D02*
X11783277Y-12002079D01*
X11783277Y-12002079D02*
X11792801Y-12040174D01*
X11792801Y-12040174D02*
X11792801Y-12087793D01*
X11792801Y-12087793D02*
X11783277Y-12125888D01*
X11783277Y-12125888D02*
X11773753Y-12144936D01*
X11773753Y-12144936D02*
X11764229Y-12154460D01*
X11764229Y-12154460D02*
X11745182Y-12163984D01*
X11745182Y-12163984D02*
X11726134Y-12163984D01*
X11726134Y-12163984D02*
X11707086Y-12154460D01*
X11707086Y-12154460D02*
X11697563Y-12144936D01*
X11697563Y-12144936D02*
X11688039Y-12125888D01*
X11688039Y-12125888D02*
X11678515Y-12087793D01*
X11678515Y-12087793D02*
X11678515Y-12040174D01*
X11678515Y-12040174D02*
X11688039Y-12002079D01*
X11688039Y-12002079D02*
X11697563Y-11983031D01*
X11697563Y-11983031D02*
X11707086Y-11973508D01*
X11707086Y-11973508D02*
X11726134Y-11963984D01*
X11878515Y-12144936D02*
X11888039Y-12154460D01*
X11888039Y-12154460D02*
X11878515Y-12163984D01*
X11878515Y-12163984D02*
X11868991Y-12154460D01*
X11868991Y-12154460D02*
X11878515Y-12144936D01*
X11878515Y-12144936D02*
X11878515Y-12163984D01*
X12011848Y-11963984D02*
X12030896Y-11963984D01*
X12030896Y-11963984D02*
X12049944Y-11973508D01*
X12049944Y-11973508D02*
X12059467Y-11983031D01*
X12059467Y-11983031D02*
X12068991Y-12002079D01*
X12068991Y-12002079D02*
X12078515Y-12040174D01*
X12078515Y-12040174D02*
X12078515Y-12087793D01*
X12078515Y-12087793D02*
X12068991Y-12125888D01*
X12068991Y-12125888D02*
X12059467Y-12144936D01*
X12059467Y-12144936D02*
X12049944Y-12154460D01*
X12049944Y-12154460D02*
X12030896Y-12163984D01*
X12030896Y-12163984D02*
X12011848Y-12163984D01*
X12011848Y-12163984D02*
X11992801Y-12154460D01*
X11992801Y-12154460D02*
X11983277Y-12144936D01*
X11983277Y-12144936D02*
X11973753Y-12125888D01*
X11973753Y-12125888D02*
X11964229Y-12087793D01*
X11964229Y-12087793D02*
X11964229Y-12040174D01*
X11964229Y-12040174D02*
X11973753Y-12002079D01*
X11973753Y-12002079D02*
X11983277Y-11983031D01*
X11983277Y-11983031D02*
X11992801Y-11973508D01*
X11992801Y-11973508D02*
X12011848Y-11963984D01*
X12249944Y-11963984D02*
X12211848Y-11963984D01*
X12211848Y-11963984D02*
X12192801Y-11973508D01*
X12192801Y-11973508D02*
X12183277Y-11983031D01*
X12183277Y-11983031D02*
X12164229Y-12011603D01*
X12164229Y-12011603D02*
X12154706Y-12049698D01*
X12154706Y-12049698D02*
X12154706Y-12125888D01*
X12154706Y-12125888D02*
X12164229Y-12144936D01*
X12164229Y-12144936D02*
X12173753Y-12154460D01*
X12173753Y-12154460D02*
X12192801Y-12163984D01*
X12192801Y-12163984D02*
X12230896Y-12163984D01*
X12230896Y-12163984D02*
X12249944Y-12154460D01*
X12249944Y-12154460D02*
X12259467Y-12144936D01*
X12259467Y-12144936D02*
X12268991Y-12125888D01*
X12268991Y-12125888D02*
X12268991Y-12078269D01*
X12268991Y-12078269D02*
X12259467Y-12059222D01*
X12259467Y-12059222D02*
X12249944Y-12049698D01*
X12249944Y-12049698D02*
X12230896Y-12040174D01*
X12230896Y-12040174D02*
X12192801Y-12040174D01*
X12192801Y-12040174D02*
X12173753Y-12049698D01*
X12173753Y-12049698D02*
X12164229Y-12059222D01*
X12164229Y-12059222D02*
X12154706Y-12078269D01*
X12440420Y-11963984D02*
X12402325Y-11963984D01*
X12402325Y-11963984D02*
X12383277Y-11973508D01*
X12383277Y-11973508D02*
X12373753Y-11983031D01*
X12373753Y-11983031D02*
X12354706Y-12011603D01*
X12354706Y-12011603D02*
X12345182Y-12049698D01*
X12345182Y-12049698D02*
X12345182Y-12125888D01*
X12345182Y-12125888D02*
X12354706Y-12144936D01*
X12354706Y-12144936D02*
X12364229Y-12154460D01*
X12364229Y-12154460D02*
X12383277Y-12163984D01*
X12383277Y-12163984D02*
X12421372Y-12163984D01*
X12421372Y-12163984D02*
X12440420Y-12154460D01*
X12440420Y-12154460D02*
X12449944Y-12144936D01*
X12449944Y-12144936D02*
X12459467Y-12125888D01*
X12459467Y-12125888D02*
X12459467Y-12078269D01*
X12459467Y-12078269D02*
X12449944Y-12059222D01*
X12449944Y-12059222D02*
X12440420Y-12049698D01*
X12440420Y-12049698D02*
X12421372Y-12040174D01*
X12421372Y-12040174D02*
X12383277Y-12040174D01*
X12383277Y-12040174D02*
X12364229Y-12049698D01*
X12364229Y-12049698D02*
X12354706Y-12059222D01*
X12354706Y-12059222D02*
X12345182Y-12078269D01*
X12554706Y-12163984D02*
X12592801Y-12163984D01*
X12592801Y-12163984D02*
X12611848Y-12154460D01*
X12611848Y-12154460D02*
X12621372Y-12144936D01*
X12621372Y-12144936D02*
X12640420Y-12116365D01*
X12640420Y-12116365D02*
X12649944Y-12078269D01*
X12649944Y-12078269D02*
X12649944Y-12002079D01*
X12649944Y-12002079D02*
X12640420Y-11983031D01*
X12640420Y-11983031D02*
X12630896Y-11973508D01*
X12630896Y-11973508D02*
X12611848Y-11963984D01*
X12611848Y-11963984D02*
X12573753Y-11963984D01*
X12573753Y-11963984D02*
X12554706Y-11973508D01*
X12554706Y-11973508D02*
X12545182Y-11983031D01*
X12545182Y-11983031D02*
X12535658Y-12002079D01*
X12535658Y-12002079D02*
X12535658Y-12049698D01*
X12535658Y-12049698D02*
X12545182Y-12068746D01*
X12545182Y-12068746D02*
X12554706Y-12078269D01*
X12554706Y-12078269D02*
X12573753Y-12087793D01*
X12573753Y-12087793D02*
X12611848Y-12087793D01*
X12611848Y-12087793D02*
X12630896Y-12078269D01*
X12630896Y-12078269D02*
X12640420Y-12068746D01*
X12640420Y-12068746D02*
X12649944Y-12049698D01*
X12726134Y-11963984D02*
X12726134Y-12002079D01*
X12802325Y-11963984D02*
X12802325Y-12002079D01*
X13097563Y-12240174D02*
X13088039Y-12230650D01*
X13088039Y-12230650D02*
X13068991Y-12202079D01*
X13068991Y-12202079D02*
X13059468Y-12183031D01*
X13059468Y-12183031D02*
X13049944Y-12154460D01*
X13049944Y-12154460D02*
X13040420Y-12106841D01*
X13040420Y-12106841D02*
X13040420Y-12068746D01*
X13040420Y-12068746D02*
X13049944Y-12021127D01*
X13049944Y-12021127D02*
X13059468Y-11992555D01*
X13059468Y-11992555D02*
X13068991Y-11973508D01*
X13068991Y-11973508D02*
X13088039Y-11944936D01*
X13088039Y-11944936D02*
X13097563Y-11935412D01*
X13164229Y-11983031D02*
X13173753Y-11973508D01*
X13173753Y-11973508D02*
X13192801Y-11963984D01*
X13192801Y-11963984D02*
X13240420Y-11963984D01*
X13240420Y-11963984D02*
X13259468Y-11973508D01*
X13259468Y-11973508D02*
X13268991Y-11983031D01*
X13268991Y-11983031D02*
X13278515Y-12002079D01*
X13278515Y-12002079D02*
X13278515Y-12021127D01*
X13278515Y-12021127D02*
X13268991Y-12049698D01*
X13268991Y-12049698D02*
X13154706Y-12163984D01*
X13154706Y-12163984D02*
X13278515Y-12163984D01*
X13516610Y-12163984D02*
X13516610Y-11963984D01*
X13602325Y-12163984D02*
X13602325Y-12059222D01*
X13602325Y-12059222D02*
X13592801Y-12040174D01*
X13592801Y-12040174D02*
X13573753Y-12030650D01*
X13573753Y-12030650D02*
X13545182Y-12030650D01*
X13545182Y-12030650D02*
X13526134Y-12040174D01*
X13526134Y-12040174D02*
X13516610Y-12049698D01*
X13726134Y-12163984D02*
X13707087Y-12154460D01*
X13707087Y-12154460D02*
X13697563Y-12144936D01*
X13697563Y-12144936D02*
X13688039Y-12125888D01*
X13688039Y-12125888D02*
X13688039Y-12068746D01*
X13688039Y-12068746D02*
X13697563Y-12049698D01*
X13697563Y-12049698D02*
X13707087Y-12040174D01*
X13707087Y-12040174D02*
X13726134Y-12030650D01*
X13726134Y-12030650D02*
X13754706Y-12030650D01*
X13754706Y-12030650D02*
X13773753Y-12040174D01*
X13773753Y-12040174D02*
X13783277Y-12049698D01*
X13783277Y-12049698D02*
X13792801Y-12068746D01*
X13792801Y-12068746D02*
X13792801Y-12125888D01*
X13792801Y-12125888D02*
X13783277Y-12144936D01*
X13783277Y-12144936D02*
X13773753Y-12154460D01*
X13773753Y-12154460D02*
X13754706Y-12163984D01*
X13754706Y-12163984D02*
X13726134Y-12163984D01*
X13907087Y-12163984D02*
X13888039Y-12154460D01*
X13888039Y-12154460D02*
X13878515Y-12135412D01*
X13878515Y-12135412D02*
X13878515Y-11963984D01*
X14059468Y-12154460D02*
X14040420Y-12163984D01*
X14040420Y-12163984D02*
X14002325Y-12163984D01*
X14002325Y-12163984D02*
X13983277Y-12154460D01*
X13983277Y-12154460D02*
X13973753Y-12135412D01*
X13973753Y-12135412D02*
X13973753Y-12059222D01*
X13973753Y-12059222D02*
X13983277Y-12040174D01*
X13983277Y-12040174D02*
X14002325Y-12030650D01*
X14002325Y-12030650D02*
X14040420Y-12030650D01*
X14040420Y-12030650D02*
X14059468Y-12040174D01*
X14059468Y-12040174D02*
X14068991Y-12059222D01*
X14068991Y-12059222D02*
X14068991Y-12078269D01*
X14068991Y-12078269D02*
X13973753Y-12097317D01*
X14145182Y-12154460D02*
X14164230Y-12163984D01*
X14164230Y-12163984D02*
X14202325Y-12163984D01*
X14202325Y-12163984D02*
X14221372Y-12154460D01*
X14221372Y-12154460D02*
X14230896Y-12135412D01*
X14230896Y-12135412D02*
X14230896Y-12125888D01*
X14230896Y-12125888D02*
X14221372Y-12106841D01*
X14221372Y-12106841D02*
X14202325Y-12097317D01*
X14202325Y-12097317D02*
X14173753Y-12097317D01*
X14173753Y-12097317D02*
X14154706Y-12087793D01*
X14154706Y-12087793D02*
X14145182Y-12068746D01*
X14145182Y-12068746D02*
X14145182Y-12059222D01*
X14145182Y-12059222D02*
X14154706Y-12040174D01*
X14154706Y-12040174D02*
X14173753Y-12030650D01*
X14173753Y-12030650D02*
X14202325Y-12030650D01*
X14202325Y-12030650D02*
X14221372Y-12040174D01*
X14297563Y-12240174D02*
X14307087Y-12230650D01*
X14307087Y-12230650D02*
X14326134Y-12202079D01*
X14326134Y-12202079D02*
X14335658Y-12183031D01*
X14335658Y-12183031D02*
X14345182Y-12154460D01*
X14345182Y-12154460D02*
X14354706Y-12106841D01*
X14354706Y-12106841D02*
X14354706Y-12068746D01*
X14354706Y-12068746D02*
X14345182Y-12021127D01*
X14345182Y-12021127D02*
X14335658Y-11992555D01*
X14335658Y-11992555D02*
X14326134Y-11973508D01*
X14326134Y-11973508D02*
X14307087Y-11944936D01*
X14307087Y-11944936D02*
X14297563Y-11935412D01*
X14659468Y-12240174D02*
X14649944Y-12230650D01*
X14649944Y-12230650D02*
X14630896Y-12202079D01*
X14630896Y-12202079D02*
X14621372Y-12183031D01*
X14621372Y-12183031D02*
X14611849Y-12154460D01*
X14611849Y-12154460D02*
X14602325Y-12106841D01*
X14602325Y-12106841D02*
X14602325Y-12068746D01*
X14602325Y-12068746D02*
X14611849Y-12021127D01*
X14611849Y-12021127D02*
X14621372Y-11992555D01*
X14621372Y-11992555D02*
X14630896Y-11973508D01*
X14630896Y-11973508D02*
X14649944Y-11944936D01*
X14649944Y-11944936D02*
X14659468Y-11935412D01*
X14735658Y-12030650D02*
X14735658Y-12163984D01*
X14735658Y-12049698D02*
X14745182Y-12040174D01*
X14745182Y-12040174D02*
X14764230Y-12030650D01*
X14764230Y-12030650D02*
X14792801Y-12030650D01*
X14792801Y-12030650D02*
X14811849Y-12040174D01*
X14811849Y-12040174D02*
X14821372Y-12059222D01*
X14821372Y-12059222D02*
X14821372Y-12163984D01*
X14945182Y-12163984D02*
X14926134Y-12154460D01*
X14926134Y-12154460D02*
X14916611Y-12144936D01*
X14916611Y-12144936D02*
X14907087Y-12125888D01*
X14907087Y-12125888D02*
X14907087Y-12068746D01*
X14907087Y-12068746D02*
X14916611Y-12049698D01*
X14916611Y-12049698D02*
X14926134Y-12040174D01*
X14926134Y-12040174D02*
X14945182Y-12030650D01*
X14945182Y-12030650D02*
X14973753Y-12030650D01*
X14973753Y-12030650D02*
X14992801Y-12040174D01*
X14992801Y-12040174D02*
X15002325Y-12049698D01*
X15002325Y-12049698D02*
X15011849Y-12068746D01*
X15011849Y-12068746D02*
X15011849Y-12125888D01*
X15011849Y-12125888D02*
X15002325Y-12144936D01*
X15002325Y-12144936D02*
X14992801Y-12154460D01*
X14992801Y-12154460D02*
X14973753Y-12163984D01*
X14973753Y-12163984D02*
X14945182Y-12163984D01*
X15068992Y-12030650D02*
X15145182Y-12030650D01*
X15097563Y-11963984D02*
X15097563Y-12135412D01*
X15097563Y-12135412D02*
X15107087Y-12154460D01*
X15107087Y-12154460D02*
X15126134Y-12163984D01*
X15126134Y-12163984D02*
X15145182Y-12163984D01*
X15364230Y-12030650D02*
X15364230Y-12230650D01*
X15364230Y-12040174D02*
X15383277Y-12030650D01*
X15383277Y-12030650D02*
X15421373Y-12030650D01*
X15421373Y-12030650D02*
X15440420Y-12040174D01*
X15440420Y-12040174D02*
X15449944Y-12049698D01*
X15449944Y-12049698D02*
X15459468Y-12068746D01*
X15459468Y-12068746D02*
X15459468Y-12125888D01*
X15459468Y-12125888D02*
X15449944Y-12144936D01*
X15449944Y-12144936D02*
X15440420Y-12154460D01*
X15440420Y-12154460D02*
X15421373Y-12163984D01*
X15421373Y-12163984D02*
X15383277Y-12163984D01*
X15383277Y-12163984D02*
X15364230Y-12154460D01*
X15573753Y-12163984D02*
X15554706Y-12154460D01*
X15554706Y-12154460D02*
X15545182Y-12135412D01*
X15545182Y-12135412D02*
X15545182Y-11963984D01*
X15735658Y-12163984D02*
X15735658Y-12059222D01*
X15735658Y-12059222D02*
X15726134Y-12040174D01*
X15726134Y-12040174D02*
X15707087Y-12030650D01*
X15707087Y-12030650D02*
X15668992Y-12030650D01*
X15668992Y-12030650D02*
X15649944Y-12040174D01*
X15735658Y-12154460D02*
X15716611Y-12163984D01*
X15716611Y-12163984D02*
X15668992Y-12163984D01*
X15668992Y-12163984D02*
X15649944Y-12154460D01*
X15649944Y-12154460D02*
X15640420Y-12135412D01*
X15640420Y-12135412D02*
X15640420Y-12116365D01*
X15640420Y-12116365D02*
X15649944Y-12097317D01*
X15649944Y-12097317D02*
X15668992Y-12087793D01*
X15668992Y-12087793D02*
X15716611Y-12087793D01*
X15716611Y-12087793D02*
X15735658Y-12078269D01*
X15802325Y-12030650D02*
X15878515Y-12030650D01*
X15830896Y-11963984D02*
X15830896Y-12135412D01*
X15830896Y-12135412D02*
X15840420Y-12154460D01*
X15840420Y-12154460D02*
X15859468Y-12163984D01*
X15859468Y-12163984D02*
X15878515Y-12163984D01*
X16021373Y-12154460D02*
X16002325Y-12163984D01*
X16002325Y-12163984D02*
X15964230Y-12163984D01*
X15964230Y-12163984D02*
X15945182Y-12154460D01*
X15945182Y-12154460D02*
X15935658Y-12135412D01*
X15935658Y-12135412D02*
X15935658Y-12059222D01*
X15935658Y-12059222D02*
X15945182Y-12040174D01*
X15945182Y-12040174D02*
X15964230Y-12030650D01*
X15964230Y-12030650D02*
X16002325Y-12030650D01*
X16002325Y-12030650D02*
X16021373Y-12040174D01*
X16021373Y-12040174D02*
X16030896Y-12059222D01*
X16030896Y-12059222D02*
X16030896Y-12078269D01*
X16030896Y-12078269D02*
X15935658Y-12097317D01*
X16202325Y-12163984D02*
X16202325Y-11963984D01*
X16202325Y-12154460D02*
X16183277Y-12163984D01*
X16183277Y-12163984D02*
X16145182Y-12163984D01*
X16145182Y-12163984D02*
X16126134Y-12154460D01*
X16126134Y-12154460D02*
X16116611Y-12144936D01*
X16116611Y-12144936D02*
X16107087Y-12125888D01*
X16107087Y-12125888D02*
X16107087Y-12068746D01*
X16107087Y-12068746D02*
X16116611Y-12049698D01*
X16116611Y-12049698D02*
X16126134Y-12040174D01*
X16126134Y-12040174D02*
X16145182Y-12030650D01*
X16145182Y-12030650D02*
X16183277Y-12030650D01*
X16183277Y-12030650D02*
X16202325Y-12040174D01*
X16278515Y-12240174D02*
X16288039Y-12230650D01*
X16288039Y-12230650D02*
X16307087Y-12202079D01*
X16307087Y-12202079D02*
X16316611Y-12183031D01*
X16316611Y-12183031D02*
X16326134Y-12154460D01*
X16326134Y-12154460D02*
X16335658Y-12106841D01*
X16335658Y-12106841D02*
X16335658Y-12068746D01*
X16335658Y-12068746D02*
X16326134Y-12021127D01*
X16326134Y-12021127D02*
X16316611Y-11992555D01*
X16316611Y-11992555D02*
X16307087Y-11973508D01*
X16307087Y-11973508D02*
X16288039Y-11944936D01*
X16288039Y-11944936D02*
X16278515Y-11935412D01*
X9522500Y-12362500D02*
G75*
G02*
X9322500Y-12362500I-100000J0D01*
G01*
X9322500Y-12362500D02*
G75*
G02*
X9522500Y-12362500I100000J0D01*
G01*
X9773753Y-12273031D02*
X9783277Y-12263508D01*
X9783277Y-12263508D02*
X9802324Y-12253984D01*
X9802324Y-12253984D02*
X9849944Y-12253984D01*
X9849944Y-12253984D02*
X9868991Y-12263508D01*
X9868991Y-12263508D02*
X9878515Y-12273031D01*
X9878515Y-12273031D02*
X9888039Y-12292079D01*
X9888039Y-12292079D02*
X9888039Y-12311127D01*
X9888039Y-12311127D02*
X9878515Y-12339698D01*
X9878515Y-12339698D02*
X9764229Y-12453984D01*
X9764229Y-12453984D02*
X9888039Y-12453984D01*
X9973753Y-12434936D02*
X9983277Y-12444460D01*
X9983277Y-12444460D02*
X9973753Y-12453984D01*
X9973753Y-12453984D02*
X9964229Y-12444460D01*
X9964229Y-12444460D02*
X9973753Y-12434936D01*
X9973753Y-12434936D02*
X9973753Y-12453984D01*
X10049944Y-12253984D02*
X10183277Y-12253984D01*
X10183277Y-12253984D02*
X10097563Y-12453984D01*
X10297563Y-12253984D02*
X10316610Y-12253984D01*
X10316610Y-12253984D02*
X10335658Y-12263508D01*
X10335658Y-12263508D02*
X10345182Y-12273031D01*
X10345182Y-12273031D02*
X10354705Y-12292079D01*
X10354705Y-12292079D02*
X10364229Y-12330174D01*
X10364229Y-12330174D02*
X10364229Y-12377793D01*
X10364229Y-12377793D02*
X10354705Y-12415888D01*
X10354705Y-12415888D02*
X10345182Y-12434936D01*
X10345182Y-12434936D02*
X10335658Y-12444460D01*
X10335658Y-12444460D02*
X10316610Y-12453984D01*
X10316610Y-12453984D02*
X10297563Y-12453984D01*
X10297563Y-12453984D02*
X10278515Y-12444460D01*
X10278515Y-12444460D02*
X10268991Y-12434936D01*
X10268991Y-12434936D02*
X10259467Y-12415888D01*
X10259467Y-12415888D02*
X10249944Y-12377793D01*
X10249944Y-12377793D02*
X10249944Y-12330174D01*
X10249944Y-12330174D02*
X10259467Y-12292079D01*
X10259467Y-12292079D02*
X10268991Y-12273031D01*
X10268991Y-12273031D02*
X10278515Y-12263508D01*
X10278515Y-12263508D02*
X10297563Y-12253984D01*
X10488039Y-12253984D02*
X10507086Y-12253984D01*
X10507086Y-12253984D02*
X10526134Y-12263508D01*
X10526134Y-12263508D02*
X10535658Y-12273031D01*
X10535658Y-12273031D02*
X10545182Y-12292079D01*
X10545182Y-12292079D02*
X10554705Y-12330174D01*
X10554705Y-12330174D02*
X10554705Y-12377793D01*
X10554705Y-12377793D02*
X10545182Y-12415888D01*
X10545182Y-12415888D02*
X10535658Y-12434936D01*
X10535658Y-12434936D02*
X10526134Y-12444460D01*
X10526134Y-12444460D02*
X10507086Y-12453984D01*
X10507086Y-12453984D02*
X10488039Y-12453984D01*
X10488039Y-12453984D02*
X10468991Y-12444460D01*
X10468991Y-12444460D02*
X10459467Y-12434936D01*
X10459467Y-12434936D02*
X10449944Y-12415888D01*
X10449944Y-12415888D02*
X10440420Y-12377793D01*
X10440420Y-12377793D02*
X10440420Y-12330174D01*
X10440420Y-12330174D02*
X10449944Y-12292079D01*
X10449944Y-12292079D02*
X10459467Y-12273031D01*
X10459467Y-12273031D02*
X10468991Y-12263508D01*
X10468991Y-12263508D02*
X10488039Y-12253984D01*
X10640420Y-12453984D02*
X10640420Y-12320650D01*
X10640420Y-12339698D02*
X10649944Y-12330174D01*
X10649944Y-12330174D02*
X10668991Y-12320650D01*
X10668991Y-12320650D02*
X10697563Y-12320650D01*
X10697563Y-12320650D02*
X10716610Y-12330174D01*
X10716610Y-12330174D02*
X10726134Y-12349222D01*
X10726134Y-12349222D02*
X10726134Y-12453984D01*
X10726134Y-12349222D02*
X10735658Y-12330174D01*
X10735658Y-12330174D02*
X10754705Y-12320650D01*
X10754705Y-12320650D02*
X10783277Y-12320650D01*
X10783277Y-12320650D02*
X10802325Y-12330174D01*
X10802325Y-12330174D02*
X10811848Y-12349222D01*
X10811848Y-12349222D02*
X10811848Y-12453984D01*
X10907086Y-12453984D02*
X10907086Y-12320650D01*
X10907086Y-12339698D02*
X10916610Y-12330174D01*
X10916610Y-12330174D02*
X10935658Y-12320650D01*
X10935658Y-12320650D02*
X10964229Y-12320650D01*
X10964229Y-12320650D02*
X10983277Y-12330174D01*
X10983277Y-12330174D02*
X10992801Y-12349222D01*
X10992801Y-12349222D02*
X10992801Y-12453984D01*
X10992801Y-12349222D02*
X11002325Y-12330174D01*
X11002325Y-12330174D02*
X11021372Y-12320650D01*
X11021372Y-12320650D02*
X11049944Y-12320650D01*
X11049944Y-12320650D02*
X11068991Y-12330174D01*
X11068991Y-12330174D02*
X11078515Y-12349222D01*
X11078515Y-12349222D02*
X11078515Y-12453984D01*
X11468991Y-12244460D02*
X11297563Y-12501603D01*
X11726134Y-12253984D02*
X11745182Y-12253984D01*
X11745182Y-12253984D02*
X11764229Y-12263508D01*
X11764229Y-12263508D02*
X11773753Y-12273031D01*
X11773753Y-12273031D02*
X11783277Y-12292079D01*
X11783277Y-12292079D02*
X11792801Y-12330174D01*
X11792801Y-12330174D02*
X11792801Y-12377793D01*
X11792801Y-12377793D02*
X11783277Y-12415888D01*
X11783277Y-12415888D02*
X11773753Y-12434936D01*
X11773753Y-12434936D02*
X11764229Y-12444460D01*
X11764229Y-12444460D02*
X11745182Y-12453984D01*
X11745182Y-12453984D02*
X11726134Y-12453984D01*
X11726134Y-12453984D02*
X11707086Y-12444460D01*
X11707086Y-12444460D02*
X11697563Y-12434936D01*
X11697563Y-12434936D02*
X11688039Y-12415888D01*
X11688039Y-12415888D02*
X11678515Y-12377793D01*
X11678515Y-12377793D02*
X11678515Y-12330174D01*
X11678515Y-12330174D02*
X11688039Y-12292079D01*
X11688039Y-12292079D02*
X11697563Y-12273031D01*
X11697563Y-12273031D02*
X11707086Y-12263508D01*
X11707086Y-12263508D02*
X11726134Y-12253984D01*
X11878515Y-12434936D02*
X11888039Y-12444460D01*
X11888039Y-12444460D02*
X11878515Y-12453984D01*
X11878515Y-12453984D02*
X11868991Y-12444460D01*
X11868991Y-12444460D02*
X11878515Y-12434936D01*
X11878515Y-12434936D02*
X11878515Y-12453984D01*
X12078515Y-12453984D02*
X11964229Y-12453984D01*
X12021372Y-12453984D02*
X12021372Y-12253984D01*
X12021372Y-12253984D02*
X12002325Y-12282555D01*
X12002325Y-12282555D02*
X11983277Y-12301603D01*
X11983277Y-12301603D02*
X11964229Y-12311127D01*
X12202325Y-12253984D02*
X12221372Y-12253984D01*
X12221372Y-12253984D02*
X12240420Y-12263508D01*
X12240420Y-12263508D02*
X12249944Y-12273031D01*
X12249944Y-12273031D02*
X12259467Y-12292079D01*
X12259467Y-12292079D02*
X12268991Y-12330174D01*
X12268991Y-12330174D02*
X12268991Y-12377793D01*
X12268991Y-12377793D02*
X12259467Y-12415888D01*
X12259467Y-12415888D02*
X12249944Y-12434936D01*
X12249944Y-12434936D02*
X12240420Y-12444460D01*
X12240420Y-12444460D02*
X12221372Y-12453984D01*
X12221372Y-12453984D02*
X12202325Y-12453984D01*
X12202325Y-12453984D02*
X12183277Y-12444460D01*
X12183277Y-12444460D02*
X12173753Y-12434936D01*
X12173753Y-12434936D02*
X12164229Y-12415888D01*
X12164229Y-12415888D02*
X12154706Y-12377793D01*
X12154706Y-12377793D02*
X12154706Y-12330174D01*
X12154706Y-12330174D02*
X12164229Y-12292079D01*
X12164229Y-12292079D02*
X12173753Y-12273031D01*
X12173753Y-12273031D02*
X12183277Y-12263508D01*
X12183277Y-12263508D02*
X12202325Y-12253984D01*
X12440420Y-12253984D02*
X12402325Y-12253984D01*
X12402325Y-12253984D02*
X12383277Y-12263508D01*
X12383277Y-12263508D02*
X12373753Y-12273031D01*
X12373753Y-12273031D02*
X12354706Y-12301603D01*
X12354706Y-12301603D02*
X12345182Y-12339698D01*
X12345182Y-12339698D02*
X12345182Y-12415888D01*
X12345182Y-12415888D02*
X12354706Y-12434936D01*
X12354706Y-12434936D02*
X12364229Y-12444460D01*
X12364229Y-12444460D02*
X12383277Y-12453984D01*
X12383277Y-12453984D02*
X12421372Y-12453984D01*
X12421372Y-12453984D02*
X12440420Y-12444460D01*
X12440420Y-12444460D02*
X12449944Y-12434936D01*
X12449944Y-12434936D02*
X12459467Y-12415888D01*
X12459467Y-12415888D02*
X12459467Y-12368269D01*
X12459467Y-12368269D02*
X12449944Y-12349222D01*
X12449944Y-12349222D02*
X12440420Y-12339698D01*
X12440420Y-12339698D02*
X12421372Y-12330174D01*
X12421372Y-12330174D02*
X12383277Y-12330174D01*
X12383277Y-12330174D02*
X12364229Y-12339698D01*
X12364229Y-12339698D02*
X12354706Y-12349222D01*
X12354706Y-12349222D02*
X12345182Y-12368269D01*
X12526134Y-12253984D02*
X12649944Y-12253984D01*
X12649944Y-12253984D02*
X12583277Y-12330174D01*
X12583277Y-12330174D02*
X12611848Y-12330174D01*
X12611848Y-12330174D02*
X12630896Y-12339698D01*
X12630896Y-12339698D02*
X12640420Y-12349222D01*
X12640420Y-12349222D02*
X12649944Y-12368269D01*
X12649944Y-12368269D02*
X12649944Y-12415888D01*
X12649944Y-12415888D02*
X12640420Y-12434936D01*
X12640420Y-12434936D02*
X12630896Y-12444460D01*
X12630896Y-12444460D02*
X12611848Y-12453984D01*
X12611848Y-12453984D02*
X12554706Y-12453984D01*
X12554706Y-12453984D02*
X12535658Y-12444460D01*
X12535658Y-12444460D02*
X12526134Y-12434936D01*
X12726134Y-12253984D02*
X12726134Y-12292079D01*
X12802325Y-12253984D02*
X12802325Y-12292079D01*
X13097563Y-12530174D02*
X13088039Y-12520650D01*
X13088039Y-12520650D02*
X13068991Y-12492079D01*
X13068991Y-12492079D02*
X13059468Y-12473031D01*
X13059468Y-12473031D02*
X13049944Y-12444460D01*
X13049944Y-12444460D02*
X13040420Y-12396841D01*
X13040420Y-12396841D02*
X13040420Y-12358746D01*
X13040420Y-12358746D02*
X13049944Y-12311127D01*
X13049944Y-12311127D02*
X13059468Y-12282555D01*
X13059468Y-12282555D02*
X13068991Y-12263508D01*
X13068991Y-12263508D02*
X13088039Y-12234936D01*
X13088039Y-12234936D02*
X13097563Y-12225412D01*
X13259468Y-12320650D02*
X13259468Y-12453984D01*
X13211848Y-12244460D02*
X13164229Y-12387317D01*
X13164229Y-12387317D02*
X13288039Y-12387317D01*
X13516610Y-12453984D02*
X13516610Y-12253984D01*
X13602325Y-12453984D02*
X13602325Y-12349222D01*
X13602325Y-12349222D02*
X13592801Y-12330174D01*
X13592801Y-12330174D02*
X13573753Y-12320650D01*
X13573753Y-12320650D02*
X13545182Y-12320650D01*
X13545182Y-12320650D02*
X13526134Y-12330174D01*
X13526134Y-12330174D02*
X13516610Y-12339698D01*
X13726134Y-12453984D02*
X13707087Y-12444460D01*
X13707087Y-12444460D02*
X13697563Y-12434936D01*
X13697563Y-12434936D02*
X13688039Y-12415888D01*
X13688039Y-12415888D02*
X13688039Y-12358746D01*
X13688039Y-12358746D02*
X13697563Y-12339698D01*
X13697563Y-12339698D02*
X13707087Y-12330174D01*
X13707087Y-12330174D02*
X13726134Y-12320650D01*
X13726134Y-12320650D02*
X13754706Y-12320650D01*
X13754706Y-12320650D02*
X13773753Y-12330174D01*
X13773753Y-12330174D02*
X13783277Y-12339698D01*
X13783277Y-12339698D02*
X13792801Y-12358746D01*
X13792801Y-12358746D02*
X13792801Y-12415888D01*
X13792801Y-12415888D02*
X13783277Y-12434936D01*
X13783277Y-12434936D02*
X13773753Y-12444460D01*
X13773753Y-12444460D02*
X13754706Y-12453984D01*
X13754706Y-12453984D02*
X13726134Y-12453984D01*
X13907087Y-12453984D02*
X13888039Y-12444460D01*
X13888039Y-12444460D02*
X13878515Y-12425412D01*
X13878515Y-12425412D02*
X13878515Y-12253984D01*
X14059468Y-12444460D02*
X14040420Y-12453984D01*
X14040420Y-12453984D02*
X14002325Y-12453984D01*
X14002325Y-12453984D02*
X13983277Y-12444460D01*
X13983277Y-12444460D02*
X13973753Y-12425412D01*
X13973753Y-12425412D02*
X13973753Y-12349222D01*
X13973753Y-12349222D02*
X13983277Y-12330174D01*
X13983277Y-12330174D02*
X14002325Y-12320650D01*
X14002325Y-12320650D02*
X14040420Y-12320650D01*
X14040420Y-12320650D02*
X14059468Y-12330174D01*
X14059468Y-12330174D02*
X14068991Y-12349222D01*
X14068991Y-12349222D02*
X14068991Y-12368269D01*
X14068991Y-12368269D02*
X13973753Y-12387317D01*
X14145182Y-12444460D02*
X14164230Y-12453984D01*
X14164230Y-12453984D02*
X14202325Y-12453984D01*
X14202325Y-12453984D02*
X14221372Y-12444460D01*
X14221372Y-12444460D02*
X14230896Y-12425412D01*
X14230896Y-12425412D02*
X14230896Y-12415888D01*
X14230896Y-12415888D02*
X14221372Y-12396841D01*
X14221372Y-12396841D02*
X14202325Y-12387317D01*
X14202325Y-12387317D02*
X14173753Y-12387317D01*
X14173753Y-12387317D02*
X14154706Y-12377793D01*
X14154706Y-12377793D02*
X14145182Y-12358746D01*
X14145182Y-12358746D02*
X14145182Y-12349222D01*
X14145182Y-12349222D02*
X14154706Y-12330174D01*
X14154706Y-12330174D02*
X14173753Y-12320650D01*
X14173753Y-12320650D02*
X14202325Y-12320650D01*
X14202325Y-12320650D02*
X14221372Y-12330174D01*
X14297563Y-12530174D02*
X14307087Y-12520650D01*
X14307087Y-12520650D02*
X14326134Y-12492079D01*
X14326134Y-12492079D02*
X14335658Y-12473031D01*
X14335658Y-12473031D02*
X14345182Y-12444460D01*
X14345182Y-12444460D02*
X14354706Y-12396841D01*
X14354706Y-12396841D02*
X14354706Y-12358746D01*
X14354706Y-12358746D02*
X14345182Y-12311127D01*
X14345182Y-12311127D02*
X14335658Y-12282555D01*
X14335658Y-12282555D02*
X14326134Y-12263508D01*
X14326134Y-12263508D02*
X14307087Y-12234936D01*
X14307087Y-12234936D02*
X14297563Y-12225412D01*
X14659468Y-12530174D02*
X14649944Y-12520650D01*
X14649944Y-12520650D02*
X14630896Y-12492079D01*
X14630896Y-12492079D02*
X14621372Y-12473031D01*
X14621372Y-12473031D02*
X14611849Y-12444460D01*
X14611849Y-12444460D02*
X14602325Y-12396841D01*
X14602325Y-12396841D02*
X14602325Y-12358746D01*
X14602325Y-12358746D02*
X14611849Y-12311127D01*
X14611849Y-12311127D02*
X14621372Y-12282555D01*
X14621372Y-12282555D02*
X14630896Y-12263508D01*
X14630896Y-12263508D02*
X14649944Y-12234936D01*
X14649944Y-12234936D02*
X14659468Y-12225412D01*
X14735658Y-12320650D02*
X14735658Y-12453984D01*
X14735658Y-12339698D02*
X14745182Y-12330174D01*
X14745182Y-12330174D02*
X14764230Y-12320650D01*
X14764230Y-12320650D02*
X14792801Y-12320650D01*
X14792801Y-12320650D02*
X14811849Y-12330174D01*
X14811849Y-12330174D02*
X14821372Y-12349222D01*
X14821372Y-12349222D02*
X14821372Y-12453984D01*
X14945182Y-12453984D02*
X14926134Y-12444460D01*
X14926134Y-12444460D02*
X14916611Y-12434936D01*
X14916611Y-12434936D02*
X14907087Y-12415888D01*
X14907087Y-12415888D02*
X14907087Y-12358746D01*
X14907087Y-12358746D02*
X14916611Y-12339698D01*
X14916611Y-12339698D02*
X14926134Y-12330174D01*
X14926134Y-12330174D02*
X14945182Y-12320650D01*
X14945182Y-12320650D02*
X14973753Y-12320650D01*
X14973753Y-12320650D02*
X14992801Y-12330174D01*
X14992801Y-12330174D02*
X15002325Y-12339698D01*
X15002325Y-12339698D02*
X15011849Y-12358746D01*
X15011849Y-12358746D02*
X15011849Y-12415888D01*
X15011849Y-12415888D02*
X15002325Y-12434936D01*
X15002325Y-12434936D02*
X14992801Y-12444460D01*
X14992801Y-12444460D02*
X14973753Y-12453984D01*
X14973753Y-12453984D02*
X14945182Y-12453984D01*
X15068992Y-12320650D02*
X15145182Y-12320650D01*
X15097563Y-12253984D02*
X15097563Y-12425412D01*
X15097563Y-12425412D02*
X15107087Y-12444460D01*
X15107087Y-12444460D02*
X15126134Y-12453984D01*
X15126134Y-12453984D02*
X15145182Y-12453984D01*
X15364230Y-12320650D02*
X15364230Y-12520650D01*
X15364230Y-12330174D02*
X15383277Y-12320650D01*
X15383277Y-12320650D02*
X15421373Y-12320650D01*
X15421373Y-12320650D02*
X15440420Y-12330174D01*
X15440420Y-12330174D02*
X15449944Y-12339698D01*
X15449944Y-12339698D02*
X15459468Y-12358746D01*
X15459468Y-12358746D02*
X15459468Y-12415888D01*
X15459468Y-12415888D02*
X15449944Y-12434936D01*
X15449944Y-12434936D02*
X15440420Y-12444460D01*
X15440420Y-12444460D02*
X15421373Y-12453984D01*
X15421373Y-12453984D02*
X15383277Y-12453984D01*
X15383277Y-12453984D02*
X15364230Y-12444460D01*
X15573753Y-12453984D02*
X15554706Y-12444460D01*
X15554706Y-12444460D02*
X15545182Y-12425412D01*
X15545182Y-12425412D02*
X15545182Y-12253984D01*
X15735658Y-12453984D02*
X15735658Y-12349222D01*
X15735658Y-12349222D02*
X15726134Y-12330174D01*
X15726134Y-12330174D02*
X15707087Y-12320650D01*
X15707087Y-12320650D02*
X15668992Y-12320650D01*
X15668992Y-12320650D02*
X15649944Y-12330174D01*
X15735658Y-12444460D02*
X15716611Y-12453984D01*
X15716611Y-12453984D02*
X15668992Y-12453984D01*
X15668992Y-12453984D02*
X15649944Y-12444460D01*
X15649944Y-12444460D02*
X15640420Y-12425412D01*
X15640420Y-12425412D02*
X15640420Y-12406365D01*
X15640420Y-12406365D02*
X15649944Y-12387317D01*
X15649944Y-12387317D02*
X15668992Y-12377793D01*
X15668992Y-12377793D02*
X15716611Y-12377793D01*
X15716611Y-12377793D02*
X15735658Y-12368269D01*
X15802325Y-12320650D02*
X15878515Y-12320650D01*
X15830896Y-12253984D02*
X15830896Y-12425412D01*
X15830896Y-12425412D02*
X15840420Y-12444460D01*
X15840420Y-12444460D02*
X15859468Y-12453984D01*
X15859468Y-12453984D02*
X15878515Y-12453984D01*
X16021373Y-12444460D02*
X16002325Y-12453984D01*
X16002325Y-12453984D02*
X15964230Y-12453984D01*
X15964230Y-12453984D02*
X15945182Y-12444460D01*
X15945182Y-12444460D02*
X15935658Y-12425412D01*
X15935658Y-12425412D02*
X15935658Y-12349222D01*
X15935658Y-12349222D02*
X15945182Y-12330174D01*
X15945182Y-12330174D02*
X15964230Y-12320650D01*
X15964230Y-12320650D02*
X16002325Y-12320650D01*
X16002325Y-12320650D02*
X16021373Y-12330174D01*
X16021373Y-12330174D02*
X16030896Y-12349222D01*
X16030896Y-12349222D02*
X16030896Y-12368269D01*
X16030896Y-12368269D02*
X15935658Y-12387317D01*
X16202325Y-12453984D02*
X16202325Y-12253984D01*
X16202325Y-12444460D02*
X16183277Y-12453984D01*
X16183277Y-12453984D02*
X16145182Y-12453984D01*
X16145182Y-12453984D02*
X16126134Y-12444460D01*
X16126134Y-12444460D02*
X16116611Y-12434936D01*
X16116611Y-12434936D02*
X16107087Y-12415888D01*
X16107087Y-12415888D02*
X16107087Y-12358746D01*
X16107087Y-12358746D02*
X16116611Y-12339698D01*
X16116611Y-12339698D02*
X16126134Y-12330174D01*
X16126134Y-12330174D02*
X16145182Y-12320650D01*
X16145182Y-12320650D02*
X16183277Y-12320650D01*
X16183277Y-12320650D02*
X16202325Y-12330174D01*
X16278515Y-12530174D02*
X16288039Y-12520650D01*
X16288039Y-12520650D02*
X16307087Y-12492079D01*
X16307087Y-12492079D02*
X16316611Y-12473031D01*
X16316611Y-12473031D02*
X16326134Y-12444460D01*
X16326134Y-12444460D02*
X16335658Y-12396841D01*
X16335658Y-12396841D02*
X16335658Y-12358746D01*
X16335658Y-12358746D02*
X16326134Y-12311127D01*
X16326134Y-12311127D02*
X16316611Y-12282555D01*
X16316611Y-12282555D02*
X16307087Y-12263508D01*
X16307087Y-12263508D02*
X16288039Y-12234936D01*
X16288039Y-12234936D02*
X16278515Y-12225412D01*
X9422500Y-12582500D02*
X9422500Y-12782500D01*
X9322500Y-12682500D02*
X9522500Y-12682500D01*
X9868991Y-12640650D02*
X9868991Y-12773984D01*
X9821372Y-12564460D02*
X9773753Y-12707317D01*
X9773753Y-12707317D02*
X9897563Y-12707317D01*
X9973753Y-12754936D02*
X9983277Y-12764460D01*
X9983277Y-12764460D02*
X9973753Y-12773984D01*
X9973753Y-12773984D02*
X9964229Y-12764460D01*
X9964229Y-12764460D02*
X9973753Y-12754936D01*
X9973753Y-12754936D02*
X9973753Y-12773984D01*
X10107086Y-12573984D02*
X10126134Y-12573984D01*
X10126134Y-12573984D02*
X10145182Y-12583508D01*
X10145182Y-12583508D02*
X10154705Y-12593031D01*
X10154705Y-12593031D02*
X10164229Y-12612079D01*
X10164229Y-12612079D02*
X10173753Y-12650174D01*
X10173753Y-12650174D02*
X10173753Y-12697793D01*
X10173753Y-12697793D02*
X10164229Y-12735888D01*
X10164229Y-12735888D02*
X10154705Y-12754936D01*
X10154705Y-12754936D02*
X10145182Y-12764460D01*
X10145182Y-12764460D02*
X10126134Y-12773984D01*
X10126134Y-12773984D02*
X10107086Y-12773984D01*
X10107086Y-12773984D02*
X10088039Y-12764460D01*
X10088039Y-12764460D02*
X10078515Y-12754936D01*
X10078515Y-12754936D02*
X10068991Y-12735888D01*
X10068991Y-12735888D02*
X10059467Y-12697793D01*
X10059467Y-12697793D02*
X10059467Y-12650174D01*
X10059467Y-12650174D02*
X10068991Y-12612079D01*
X10068991Y-12612079D02*
X10078515Y-12593031D01*
X10078515Y-12593031D02*
X10088039Y-12583508D01*
X10088039Y-12583508D02*
X10107086Y-12573984D01*
X10297563Y-12573984D02*
X10316610Y-12573984D01*
X10316610Y-12573984D02*
X10335658Y-12583508D01*
X10335658Y-12583508D02*
X10345182Y-12593031D01*
X10345182Y-12593031D02*
X10354705Y-12612079D01*
X10354705Y-12612079D02*
X10364229Y-12650174D01*
X10364229Y-12650174D02*
X10364229Y-12697793D01*
X10364229Y-12697793D02*
X10354705Y-12735888D01*
X10354705Y-12735888D02*
X10345182Y-12754936D01*
X10345182Y-12754936D02*
X10335658Y-12764460D01*
X10335658Y-12764460D02*
X10316610Y-12773984D01*
X10316610Y-12773984D02*
X10297563Y-12773984D01*
X10297563Y-12773984D02*
X10278515Y-12764460D01*
X10278515Y-12764460D02*
X10268991Y-12754936D01*
X10268991Y-12754936D02*
X10259467Y-12735888D01*
X10259467Y-12735888D02*
X10249944Y-12697793D01*
X10249944Y-12697793D02*
X10249944Y-12650174D01*
X10249944Y-12650174D02*
X10259467Y-12612079D01*
X10259467Y-12612079D02*
X10268991Y-12593031D01*
X10268991Y-12593031D02*
X10278515Y-12583508D01*
X10278515Y-12583508D02*
X10297563Y-12573984D01*
X10488039Y-12573984D02*
X10507086Y-12573984D01*
X10507086Y-12573984D02*
X10526134Y-12583508D01*
X10526134Y-12583508D02*
X10535658Y-12593031D01*
X10535658Y-12593031D02*
X10545182Y-12612079D01*
X10545182Y-12612079D02*
X10554705Y-12650174D01*
X10554705Y-12650174D02*
X10554705Y-12697793D01*
X10554705Y-12697793D02*
X10545182Y-12735888D01*
X10545182Y-12735888D02*
X10535658Y-12754936D01*
X10535658Y-12754936D02*
X10526134Y-12764460D01*
X10526134Y-12764460D02*
X10507086Y-12773984D01*
X10507086Y-12773984D02*
X10488039Y-12773984D01*
X10488039Y-12773984D02*
X10468991Y-12764460D01*
X10468991Y-12764460D02*
X10459467Y-12754936D01*
X10459467Y-12754936D02*
X10449944Y-12735888D01*
X10449944Y-12735888D02*
X10440420Y-12697793D01*
X10440420Y-12697793D02*
X10440420Y-12650174D01*
X10440420Y-12650174D02*
X10449944Y-12612079D01*
X10449944Y-12612079D02*
X10459467Y-12593031D01*
X10459467Y-12593031D02*
X10468991Y-12583508D01*
X10468991Y-12583508D02*
X10488039Y-12573984D01*
X10640420Y-12773984D02*
X10640420Y-12640650D01*
X10640420Y-12659698D02*
X10649944Y-12650174D01*
X10649944Y-12650174D02*
X10668991Y-12640650D01*
X10668991Y-12640650D02*
X10697563Y-12640650D01*
X10697563Y-12640650D02*
X10716610Y-12650174D01*
X10716610Y-12650174D02*
X10726134Y-12669222D01*
X10726134Y-12669222D02*
X10726134Y-12773984D01*
X10726134Y-12669222D02*
X10735658Y-12650174D01*
X10735658Y-12650174D02*
X10754705Y-12640650D01*
X10754705Y-12640650D02*
X10783277Y-12640650D01*
X10783277Y-12640650D02*
X10802325Y-12650174D01*
X10802325Y-12650174D02*
X10811848Y-12669222D01*
X10811848Y-12669222D02*
X10811848Y-12773984D01*
X10907086Y-12773984D02*
X10907086Y-12640650D01*
X10907086Y-12659698D02*
X10916610Y-12650174D01*
X10916610Y-12650174D02*
X10935658Y-12640650D01*
X10935658Y-12640650D02*
X10964229Y-12640650D01*
X10964229Y-12640650D02*
X10983277Y-12650174D01*
X10983277Y-12650174D02*
X10992801Y-12669222D01*
X10992801Y-12669222D02*
X10992801Y-12773984D01*
X10992801Y-12669222D02*
X11002325Y-12650174D01*
X11002325Y-12650174D02*
X11021372Y-12640650D01*
X11021372Y-12640650D02*
X11049944Y-12640650D01*
X11049944Y-12640650D02*
X11068991Y-12650174D01*
X11068991Y-12650174D02*
X11078515Y-12669222D01*
X11078515Y-12669222D02*
X11078515Y-12773984D01*
X11468991Y-12564460D02*
X11297563Y-12821603D01*
X11726134Y-12573984D02*
X11745182Y-12573984D01*
X11745182Y-12573984D02*
X11764229Y-12583508D01*
X11764229Y-12583508D02*
X11773753Y-12593031D01*
X11773753Y-12593031D02*
X11783277Y-12612079D01*
X11783277Y-12612079D02*
X11792801Y-12650174D01*
X11792801Y-12650174D02*
X11792801Y-12697793D01*
X11792801Y-12697793D02*
X11783277Y-12735888D01*
X11783277Y-12735888D02*
X11773753Y-12754936D01*
X11773753Y-12754936D02*
X11764229Y-12764460D01*
X11764229Y-12764460D02*
X11745182Y-12773984D01*
X11745182Y-12773984D02*
X11726134Y-12773984D01*
X11726134Y-12773984D02*
X11707086Y-12764460D01*
X11707086Y-12764460D02*
X11697563Y-12754936D01*
X11697563Y-12754936D02*
X11688039Y-12735888D01*
X11688039Y-12735888D02*
X11678515Y-12697793D01*
X11678515Y-12697793D02*
X11678515Y-12650174D01*
X11678515Y-12650174D02*
X11688039Y-12612079D01*
X11688039Y-12612079D02*
X11697563Y-12593031D01*
X11697563Y-12593031D02*
X11707086Y-12583508D01*
X11707086Y-12583508D02*
X11726134Y-12573984D01*
X11878515Y-12754936D02*
X11888039Y-12764460D01*
X11888039Y-12764460D02*
X11878515Y-12773984D01*
X11878515Y-12773984D02*
X11868991Y-12764460D01*
X11868991Y-12764460D02*
X11878515Y-12754936D01*
X11878515Y-12754936D02*
X11878515Y-12773984D01*
X12078515Y-12773984D02*
X11964229Y-12773984D01*
X12021372Y-12773984D02*
X12021372Y-12573984D01*
X12021372Y-12573984D02*
X12002325Y-12602555D01*
X12002325Y-12602555D02*
X11983277Y-12621603D01*
X11983277Y-12621603D02*
X11964229Y-12631127D01*
X12259467Y-12573984D02*
X12164229Y-12573984D01*
X12164229Y-12573984D02*
X12154706Y-12669222D01*
X12154706Y-12669222D02*
X12164229Y-12659698D01*
X12164229Y-12659698D02*
X12183277Y-12650174D01*
X12183277Y-12650174D02*
X12230896Y-12650174D01*
X12230896Y-12650174D02*
X12249944Y-12659698D01*
X12249944Y-12659698D02*
X12259467Y-12669222D01*
X12259467Y-12669222D02*
X12268991Y-12688269D01*
X12268991Y-12688269D02*
X12268991Y-12735888D01*
X12268991Y-12735888D02*
X12259467Y-12754936D01*
X12259467Y-12754936D02*
X12249944Y-12764460D01*
X12249944Y-12764460D02*
X12230896Y-12773984D01*
X12230896Y-12773984D02*
X12183277Y-12773984D01*
X12183277Y-12773984D02*
X12164229Y-12764460D01*
X12164229Y-12764460D02*
X12154706Y-12754936D01*
X12335658Y-12573984D02*
X12468991Y-12573984D01*
X12468991Y-12573984D02*
X12383277Y-12773984D01*
X12640420Y-12573984D02*
X12545182Y-12573984D01*
X12545182Y-12573984D02*
X12535658Y-12669222D01*
X12535658Y-12669222D02*
X12545182Y-12659698D01*
X12545182Y-12659698D02*
X12564229Y-12650174D01*
X12564229Y-12650174D02*
X12611848Y-12650174D01*
X12611848Y-12650174D02*
X12630896Y-12659698D01*
X12630896Y-12659698D02*
X12640420Y-12669222D01*
X12640420Y-12669222D02*
X12649944Y-12688269D01*
X12649944Y-12688269D02*
X12649944Y-12735888D01*
X12649944Y-12735888D02*
X12640420Y-12754936D01*
X12640420Y-12754936D02*
X12630896Y-12764460D01*
X12630896Y-12764460D02*
X12611848Y-12773984D01*
X12611848Y-12773984D02*
X12564229Y-12773984D01*
X12564229Y-12773984D02*
X12545182Y-12764460D01*
X12545182Y-12764460D02*
X12535658Y-12754936D01*
X12726134Y-12573984D02*
X12726134Y-12612079D01*
X12802325Y-12573984D02*
X12802325Y-12612079D01*
X13097563Y-12850174D02*
X13088039Y-12840650D01*
X13088039Y-12840650D02*
X13068991Y-12812079D01*
X13068991Y-12812079D02*
X13059468Y-12793031D01*
X13059468Y-12793031D02*
X13049944Y-12764460D01*
X13049944Y-12764460D02*
X13040420Y-12716841D01*
X13040420Y-12716841D02*
X13040420Y-12678746D01*
X13040420Y-12678746D02*
X13049944Y-12631127D01*
X13049944Y-12631127D02*
X13059468Y-12602555D01*
X13059468Y-12602555D02*
X13068991Y-12583508D01*
X13068991Y-12583508D02*
X13088039Y-12554936D01*
X13088039Y-12554936D02*
X13097563Y-12545412D01*
X13278515Y-12773984D02*
X13164229Y-12773984D01*
X13221372Y-12773984D02*
X13221372Y-12573984D01*
X13221372Y-12573984D02*
X13202325Y-12602555D01*
X13202325Y-12602555D02*
X13183277Y-12621603D01*
X13183277Y-12621603D02*
X13164229Y-12631127D01*
X13516610Y-12773984D02*
X13516610Y-12573984D01*
X13602325Y-12773984D02*
X13602325Y-12669222D01*
X13602325Y-12669222D02*
X13592801Y-12650174D01*
X13592801Y-12650174D02*
X13573753Y-12640650D01*
X13573753Y-12640650D02*
X13545182Y-12640650D01*
X13545182Y-12640650D02*
X13526134Y-12650174D01*
X13526134Y-12650174D02*
X13516610Y-12659698D01*
X13726134Y-12773984D02*
X13707087Y-12764460D01*
X13707087Y-12764460D02*
X13697563Y-12754936D01*
X13697563Y-12754936D02*
X13688039Y-12735888D01*
X13688039Y-12735888D02*
X13688039Y-12678746D01*
X13688039Y-12678746D02*
X13697563Y-12659698D01*
X13697563Y-12659698D02*
X13707087Y-12650174D01*
X13707087Y-12650174D02*
X13726134Y-12640650D01*
X13726134Y-12640650D02*
X13754706Y-12640650D01*
X13754706Y-12640650D02*
X13773753Y-12650174D01*
X13773753Y-12650174D02*
X13783277Y-12659698D01*
X13783277Y-12659698D02*
X13792801Y-12678746D01*
X13792801Y-12678746D02*
X13792801Y-12735888D01*
X13792801Y-12735888D02*
X13783277Y-12754936D01*
X13783277Y-12754936D02*
X13773753Y-12764460D01*
X13773753Y-12764460D02*
X13754706Y-12773984D01*
X13754706Y-12773984D02*
X13726134Y-12773984D01*
X13907087Y-12773984D02*
X13888039Y-12764460D01*
X13888039Y-12764460D02*
X13878515Y-12745412D01*
X13878515Y-12745412D02*
X13878515Y-12573984D01*
X14059468Y-12764460D02*
X14040420Y-12773984D01*
X14040420Y-12773984D02*
X14002325Y-12773984D01*
X14002325Y-12773984D02*
X13983277Y-12764460D01*
X13983277Y-12764460D02*
X13973753Y-12745412D01*
X13973753Y-12745412D02*
X13973753Y-12669222D01*
X13973753Y-12669222D02*
X13983277Y-12650174D01*
X13983277Y-12650174D02*
X14002325Y-12640650D01*
X14002325Y-12640650D02*
X14040420Y-12640650D01*
X14040420Y-12640650D02*
X14059468Y-12650174D01*
X14059468Y-12650174D02*
X14068991Y-12669222D01*
X14068991Y-12669222D02*
X14068991Y-12688269D01*
X14068991Y-12688269D02*
X13973753Y-12707317D01*
X14135658Y-12850174D02*
X14145182Y-12840650D01*
X14145182Y-12840650D02*
X14164230Y-12812079D01*
X14164230Y-12812079D02*
X14173753Y-12793031D01*
X14173753Y-12793031D02*
X14183277Y-12764460D01*
X14183277Y-12764460D02*
X14192801Y-12716841D01*
X14192801Y-12716841D02*
X14192801Y-12678746D01*
X14192801Y-12678746D02*
X14183277Y-12631127D01*
X14183277Y-12631127D02*
X14173753Y-12602555D01*
X14173753Y-12602555D02*
X14164230Y-12583508D01*
X14164230Y-12583508D02*
X14145182Y-12554936D01*
X14145182Y-12554936D02*
X14135658Y-12545412D01*
X14497563Y-12850174D02*
X14488039Y-12840650D01*
X14488039Y-12840650D02*
X14468991Y-12812079D01*
X14468991Y-12812079D02*
X14459468Y-12793031D01*
X14459468Y-12793031D02*
X14449944Y-12764460D01*
X14449944Y-12764460D02*
X14440420Y-12716841D01*
X14440420Y-12716841D02*
X14440420Y-12678746D01*
X14440420Y-12678746D02*
X14449944Y-12631127D01*
X14449944Y-12631127D02*
X14459468Y-12602555D01*
X14459468Y-12602555D02*
X14468991Y-12583508D01*
X14468991Y-12583508D02*
X14488039Y-12554936D01*
X14488039Y-12554936D02*
X14497563Y-12545412D01*
X14573753Y-12640650D02*
X14573753Y-12773984D01*
X14573753Y-12659698D02*
X14583277Y-12650174D01*
X14583277Y-12650174D02*
X14602325Y-12640650D01*
X14602325Y-12640650D02*
X14630896Y-12640650D01*
X14630896Y-12640650D02*
X14649944Y-12650174D01*
X14649944Y-12650174D02*
X14659468Y-12669222D01*
X14659468Y-12669222D02*
X14659468Y-12773984D01*
X14783277Y-12773984D02*
X14764230Y-12764460D01*
X14764230Y-12764460D02*
X14754706Y-12754936D01*
X14754706Y-12754936D02*
X14745182Y-12735888D01*
X14745182Y-12735888D02*
X14745182Y-12678746D01*
X14745182Y-12678746D02*
X14754706Y-12659698D01*
X14754706Y-12659698D02*
X14764230Y-12650174D01*
X14764230Y-12650174D02*
X14783277Y-12640650D01*
X14783277Y-12640650D02*
X14811849Y-12640650D01*
X14811849Y-12640650D02*
X14830896Y-12650174D01*
X14830896Y-12650174D02*
X14840420Y-12659698D01*
X14840420Y-12659698D02*
X14849944Y-12678746D01*
X14849944Y-12678746D02*
X14849944Y-12735888D01*
X14849944Y-12735888D02*
X14840420Y-12754936D01*
X14840420Y-12754936D02*
X14830896Y-12764460D01*
X14830896Y-12764460D02*
X14811849Y-12773984D01*
X14811849Y-12773984D02*
X14783277Y-12773984D01*
X14907087Y-12640650D02*
X14983277Y-12640650D01*
X14935658Y-12573984D02*
X14935658Y-12745412D01*
X14935658Y-12745412D02*
X14945182Y-12764460D01*
X14945182Y-12764460D02*
X14964230Y-12773984D01*
X14964230Y-12773984D02*
X14983277Y-12773984D01*
X15202325Y-12640650D02*
X15202325Y-12840650D01*
X15202325Y-12650174D02*
X15221372Y-12640650D01*
X15221372Y-12640650D02*
X15259468Y-12640650D01*
X15259468Y-12640650D02*
X15278515Y-12650174D01*
X15278515Y-12650174D02*
X15288039Y-12659698D01*
X15288039Y-12659698D02*
X15297563Y-12678746D01*
X15297563Y-12678746D02*
X15297563Y-12735888D01*
X15297563Y-12735888D02*
X15288039Y-12754936D01*
X15288039Y-12754936D02*
X15278515Y-12764460D01*
X15278515Y-12764460D02*
X15259468Y-12773984D01*
X15259468Y-12773984D02*
X15221372Y-12773984D01*
X15221372Y-12773984D02*
X15202325Y-12764460D01*
X15411849Y-12773984D02*
X15392801Y-12764460D01*
X15392801Y-12764460D02*
X15383277Y-12745412D01*
X15383277Y-12745412D02*
X15383277Y-12573984D01*
X15573753Y-12773984D02*
X15573753Y-12669222D01*
X15573753Y-12669222D02*
X15564230Y-12650174D01*
X15564230Y-12650174D02*
X15545182Y-12640650D01*
X15545182Y-12640650D02*
X15507087Y-12640650D01*
X15507087Y-12640650D02*
X15488039Y-12650174D01*
X15573753Y-12764460D02*
X15554706Y-12773984D01*
X15554706Y-12773984D02*
X15507087Y-12773984D01*
X15507087Y-12773984D02*
X15488039Y-12764460D01*
X15488039Y-12764460D02*
X15478515Y-12745412D01*
X15478515Y-12745412D02*
X15478515Y-12726365D01*
X15478515Y-12726365D02*
X15488039Y-12707317D01*
X15488039Y-12707317D02*
X15507087Y-12697793D01*
X15507087Y-12697793D02*
X15554706Y-12697793D01*
X15554706Y-12697793D02*
X15573753Y-12688269D01*
X15640420Y-12640650D02*
X15716611Y-12640650D01*
X15668992Y-12573984D02*
X15668992Y-12745412D01*
X15668992Y-12745412D02*
X15678515Y-12764460D01*
X15678515Y-12764460D02*
X15697563Y-12773984D01*
X15697563Y-12773984D02*
X15716611Y-12773984D01*
X15859468Y-12764460D02*
X15840420Y-12773984D01*
X15840420Y-12773984D02*
X15802325Y-12773984D01*
X15802325Y-12773984D02*
X15783277Y-12764460D01*
X15783277Y-12764460D02*
X15773753Y-12745412D01*
X15773753Y-12745412D02*
X15773753Y-12669222D01*
X15773753Y-12669222D02*
X15783277Y-12650174D01*
X15783277Y-12650174D02*
X15802325Y-12640650D01*
X15802325Y-12640650D02*
X15840420Y-12640650D01*
X15840420Y-12640650D02*
X15859468Y-12650174D01*
X15859468Y-12650174D02*
X15868992Y-12669222D01*
X15868992Y-12669222D02*
X15868992Y-12688269D01*
X15868992Y-12688269D02*
X15773753Y-12707317D01*
X16040420Y-12773984D02*
X16040420Y-12573984D01*
X16040420Y-12764460D02*
X16021373Y-12773984D01*
X16021373Y-12773984D02*
X15983277Y-12773984D01*
X15983277Y-12773984D02*
X15964230Y-12764460D01*
X15964230Y-12764460D02*
X15954706Y-12754936D01*
X15954706Y-12754936D02*
X15945182Y-12735888D01*
X15945182Y-12735888D02*
X15945182Y-12678746D01*
X15945182Y-12678746D02*
X15954706Y-12659698D01*
X15954706Y-12659698D02*
X15964230Y-12650174D01*
X15964230Y-12650174D02*
X15983277Y-12640650D01*
X15983277Y-12640650D02*
X16021373Y-12640650D01*
X16021373Y-12640650D02*
X16040420Y-12650174D01*
X16116611Y-12850174D02*
X16126134Y-12840650D01*
X16126134Y-12840650D02*
X16145182Y-12812079D01*
X16145182Y-12812079D02*
X16154706Y-12793031D01*
X16154706Y-12793031D02*
X16164230Y-12764460D01*
X16164230Y-12764460D02*
X16173753Y-12716841D01*
X16173753Y-12716841D02*
X16173753Y-12678746D01*
X16173753Y-12678746D02*
X16164230Y-12631127D01*
X16164230Y-12631127D02*
X16154706Y-12602555D01*
X16154706Y-12602555D02*
X16145182Y-12583508D01*
X16145182Y-12583508D02*
X16126134Y-12554936D01*
X16126134Y-12554936D02*
X16116611Y-12545412D01*
M02*
