%TF.GenerationSoftware,KiCad,Pcbnew,9.0.2*%
%TF.CreationDate,2025-06-27T15:59:54-04:00*%
%TF.ProjectId,PassPad_KiCAD,50617373-5061-4645-9f4b-694341442e6b,rev?*%
%TF.SameCoordinates,Original*%
%TF.FileFunction,Copper,L1,Top*%
%TF.FilePolarity,Positive*%
%FSLAX46Y46*%
G04 Gerber Fmt 4.6, Leading zero omitted, Abs format (unit mm)*
G04 Created by KiCad (PCBNEW 9.0.2) date 2025-06-27 15:59:54*
%MOMM*%
%LPD*%
G01*
G04 APERTURE LIST*
G04 Aperture macros list*
%AMRoundRect*
0 Rectangle with rounded corners*
0 $1 Rounding radius*
0 $2 $3 $4 $5 $6 $7 $8 $9 X,Y pos of 4 corners*
0 Add a 4 corners polygon primitive as box body*
4,1,4,$2,$3,$4,$5,$6,$7,$8,$9,$2,$3,0*
0 Add four circle primitives for the rounded corners*
1,1,$1+$1,$2,$3*
1,1,$1+$1,$4,$5*
1,1,$1+$1,$6,$7*
1,1,$1+$1,$8,$9*
0 Add four rect primitives between the rounded corners*
20,1,$1+$1,$2,$3,$4,$5,0*
20,1,$1+$1,$4,$5,$6,$7,0*
20,1,$1+$1,$6,$7,$8,$9,0*
20,1,$1+$1,$8,$9,$2,$3,0*%
G04 Aperture macros list end*
%TA.AperFunction,SMDPad,CuDef*%
%ADD10RoundRect,0.152400X1.063600X0.609600X-1.063600X0.609600X-1.063600X-0.609600X1.063600X-0.609600X0*%
%TD*%
%TA.AperFunction,ComponentPad*%
%ADD11C,1.524000*%
%TD*%
%TA.AperFunction,SMDPad,CuDef*%
%ADD12RoundRect,0.152400X-1.063600X-0.609600X1.063600X-0.609600X1.063600X0.609600X-1.063600X0.609600X0*%
%TD*%
%TA.AperFunction,ComponentPad*%
%ADD13C,2.200000*%
%TD*%
%TA.AperFunction,ComponentPad*%
%ADD14C,2.000000*%
%TD*%
%TA.AperFunction,ComponentPad*%
%ADD15R,3.200000X2.000000*%
%TD*%
%TA.AperFunction,ComponentPad*%
%ADD16R,2.000000X2.000000*%
%TD*%
%TA.AperFunction,ComponentPad*%
%ADD17R,1.700000X1.700000*%
%TD*%
%TA.AperFunction,ComponentPad*%
%ADD18O,1.700000X1.700000*%
%TD*%
%TA.AperFunction,ComponentPad*%
%ADD19RoundRect,0.250000X0.550000X0.550000X-0.550000X0.550000X-0.550000X-0.550000X0.550000X-0.550000X0*%
%TD*%
%TA.AperFunction,ComponentPad*%
%ADD20C,1.600000*%
%TD*%
%TA.AperFunction,ComponentPad*%
%ADD21RoundRect,0.250000X-0.550000X-0.550000X0.550000X-0.550000X0.550000X0.550000X-0.550000X0.550000X0*%
%TD*%
%TA.AperFunction,Conductor*%
%ADD22C,0.200000*%
%TD*%
G04 APERTURE END LIST*
D10*
%TO.P,U1,1,P26/A0/D0*%
%TO.N,Net-(U1-P26{slash}A0{slash}D0)*%
X142134086Y-71894350D03*
D11*
X142969086Y-71894350D03*
D10*
%TO.P,U1,2,P27/A1/D1*%
%TO.N,Net-(D3-A)*%
X142134086Y-74434350D03*
D11*
X142969086Y-74434350D03*
D10*
%TO.P,U1,3,P28/A2/D2*%
%TO.N,Net-(U1-P28{slash}A2{slash}D2)*%
X142134086Y-76974350D03*
D11*
X142969086Y-76974350D03*
D10*
%TO.P,U1,4,P29/A3/D3*%
%TO.N,Net-(J1-Pin_3)*%
X142134086Y-79514350D03*
D11*
X142969086Y-79514350D03*
D10*
%TO.P,U1,5,P6/SDA/D4*%
%TO.N,Net-(J1-Pin_4)*%
X142134086Y-82054350D03*
D11*
X142969086Y-82054350D03*
D10*
%TO.P,U1,6,P7/SCL/D5*%
%TO.N,unconnected-(U1-P7{slash}SCL{slash}D5-Pad6)*%
X142134086Y-84594350D03*
D11*
%TO.N,unconnected-(U1-P7{slash}SCL{slash}D5-Pad6)_1*%
X142969086Y-84594350D03*
D10*
%TO.P,U1,7,P0//TX/D6*%
%TO.N,unconnected-(U1-P0{slash}{slash}TX{slash}D6-Pad7)_1*%
X142134086Y-87134350D03*
D11*
%TO.N,unconnected-(U1-P0{slash}{slash}TX{slash}D6-Pad7)*%
X142969086Y-87134350D03*
%TO.P,U1,8,D7/CSB/P1/RX*%
%TO.N,Net-(D1-A)*%
X158209086Y-87134350D03*
D12*
X159044086Y-87134350D03*
D11*
%TO.P,U1,9,D8/SCK/P2*%
%TO.N,unconnected-(U1-D8{slash}SCK{slash}P2-Pad9)*%
X158209086Y-84594350D03*
D12*
%TO.N,unconnected-(U1-D8{slash}SCK{slash}P2-Pad9)_1*%
X159044086Y-84594350D03*
D11*
%TO.P,U1,10,D9/MISO/P4*%
%TO.N,unconnected-(U1-D9{slash}MISO{slash}P4-Pad10)*%
X158209086Y-82054350D03*
D12*
%TO.N,unconnected-(U1-D9{slash}MISO{slash}P4-Pad10)_1*%
X159044086Y-82054350D03*
D11*
%TO.P,U1,11,D10/MOSI/P3*%
%TO.N,unconnected-(U1-D10{slash}MOSI{slash}P3-Pad11)*%
X158209086Y-79514350D03*
D12*
%TO.N,unconnected-(U1-D10{slash}MOSI{slash}P3-Pad11)_1*%
X159044086Y-79514350D03*
D11*
%TO.P,U1,12,3V3*%
%TO.N,+3V3*%
X158209086Y-76974350D03*
D12*
X159044086Y-76974350D03*
D11*
%TO.P,U1,13,GND*%
%TO.N,GND*%
X158209086Y-74434350D03*
D12*
X159044086Y-74434350D03*
D11*
%TO.P,U1,14,5V*%
%TO.N,unconnected-(U1-5V-Pad14)*%
X158209086Y-71894350D03*
D12*
%TO.N,unconnected-(U1-5V-Pad14)_1*%
X159044086Y-71894350D03*
%TD*%
D13*
%TO.P,SW2,1,1*%
%TO.N,GND*%
X131443450Y-76741028D03*
%TO.P,SW2,2,2*%
%TO.N,Net-(D1-K)*%
X125093450Y-79281028D03*
%TD*%
D14*
%TO.P,SW1,S1,S1*%
%TO.N,Net-(D3-K)*%
X135837500Y-102512500D03*
%TO.P,SW1,S2,S2*%
%TO.N,GND*%
X135837500Y-97512500D03*
D15*
%TO.P,SW1,MP*%
%TO.N,N/C*%
X128837500Y-105612500D03*
X128837500Y-94412500D03*
D14*
%TO.P,SW1,B,B*%
%TO.N,Net-(U1-P28{slash}A2{slash}D2)*%
X121337500Y-102512500D03*
%TO.P,SW1,C,C*%
%TO.N,GND*%
X121337500Y-100012500D03*
D16*
%TO.P,SW1,A,A*%
%TO.N,Net-(U1-P26{slash}A0{slash}D0)*%
X121337500Y-97512500D03*
%TD*%
D17*
%TO.P,J1,1,Pin_1*%
%TO.N,GND*%
X107156250Y-73818750D03*
D18*
%TO.P,J1,2,Pin_2*%
%TO.N,+3V3*%
X109696250Y-73818750D03*
%TO.P,J1,3,Pin_3*%
%TO.N,Net-(J1-Pin_3)*%
X112236250Y-73818750D03*
%TO.P,J1,4,Pin_4*%
%TO.N,Net-(J1-Pin_4)*%
X114776250Y-73818750D03*
%TD*%
D19*
%TO.P,D3,1,K*%
%TO.N,Net-(D3-K)*%
X147442889Y-95218922D03*
D20*
%TO.P,D3,2,A*%
%TO.N,Net-(D3-A)*%
X139822889Y-95218922D03*
%TD*%
D21*
%TO.P,D1,1,K*%
%TO.N,Net-(D1-K)*%
X150971250Y-95250000D03*
D20*
%TO.P,D1,2,A*%
%TO.N,Net-(D1-A)*%
X158591250Y-95250000D03*
%TD*%
D22*
%TO.N,GND*%
X121337500Y-100012500D02*
X136586361Y-100012500D01*
X143752500Y-92846361D02*
X147433411Y-92846361D01*
X136586361Y-100012500D02*
X143752500Y-92846361D01*
X152473250Y-88826876D02*
X157768776Y-83531350D01*
X157768776Y-83531350D02*
X159885712Y-83531350D01*
X147433411Y-92846361D02*
X149469250Y-94882200D01*
X149469250Y-94882200D02*
X149469250Y-96201260D01*
X149469250Y-96201260D02*
X150019990Y-96752000D01*
X150019990Y-96752000D02*
X151922510Y-96752000D01*
X151922510Y-96752000D02*
X152473250Y-96201260D01*
X152473250Y-96201260D02*
X152473250Y-88826876D01*
X159885712Y-83531350D02*
X160561086Y-82855976D01*
X160561086Y-82855976D02*
X160561086Y-76172724D01*
X160561086Y-76172724D02*
X158822712Y-74434350D01*
X158822712Y-74434350D02*
X158209086Y-74434350D01*
%TO.N,Net-(U1-P26{slash}A0{slash}D0)*%
X121337500Y-97512500D02*
X121337500Y-81055664D01*
X121337500Y-81055664D02*
X130498814Y-71894350D01*
X130498814Y-71894350D02*
X142969086Y-71894350D01*
%TO.N,Net-(D3-A)*%
X139822889Y-95218922D02*
X139822889Y-92527961D01*
X139822889Y-92527961D02*
X143752500Y-88598350D01*
X143752500Y-88598350D02*
X149870250Y-94716100D01*
X149870250Y-94716100D02*
X149870250Y-96035160D01*
X149870250Y-96035160D02*
X150186090Y-96351000D01*
X150186090Y-96351000D02*
X151756410Y-96351000D01*
X151756410Y-96351000D02*
X152072250Y-96035160D01*
X152072250Y-83537514D02*
X142969086Y-74434350D01*
X152072250Y-96035160D02*
X152072250Y-83537514D01*
%TO.N,Net-(D3-K)*%
X147442889Y-95218922D02*
X143131078Y-95218922D01*
X143131078Y-95218922D02*
X135837500Y-102512500D01*
%TO.N,Net-(D1-K)*%
X150971250Y-95250000D02*
X143918600Y-88197350D01*
X143918600Y-88197350D02*
X131954956Y-88197350D01*
X125093450Y-81335844D02*
X125093450Y-79281028D01*
X131954956Y-88197350D02*
X125093450Y-81335844D01*
%TO.N,Net-(D1-A)*%
X158591250Y-95250000D02*
X158591250Y-87516514D01*
X158591250Y-87516514D02*
X158209086Y-87134350D01*
%TO.N,+3V3*%
X109696250Y-73818750D02*
X112683650Y-70831350D01*
X112683650Y-70831350D02*
X152066086Y-70831350D01*
X152066086Y-70831350D02*
X158209086Y-76974350D01*
%TD*%
M02*
