%TF.GenerationSoftware,KiCad,Pcbnew,9.0.2*%
%TF.CreationDate,2025-07-02T04:02:22-04:00*%
%TF.ProjectId,PassPad_KiCAD,50617373-5061-4645-9f4b-694341442e6b,rev?*%
%TF.SameCoordinates,Original*%
%TF.FileFunction,Copper,L2,Bot*%
%TF.FilePolarity,Positive*%
%FSLAX46Y46*%
G04 Gerber Fmt 4.6, Leading zero omitted, Abs format (unit mm)*
G04 Created by KiCad (PCBNEW 9.0.2) date 2025-07-02 04:02:22*
%MOMM*%
%LPD*%
G01*
G04 APERTURE LIST*
%TA.AperFunction,ComponentPad*%
%ADD10R,1.700000X1.700000*%
%TD*%
%TA.AperFunction,ComponentPad*%
%ADD11O,1.700000X1.700000*%
%TD*%
%TA.AperFunction,ComponentPad*%
%ADD12C,2.200000*%
%TD*%
%TA.AperFunction,ComponentPad*%
%ADD13R,2.000000X2.000000*%
%TD*%
%TA.AperFunction,ComponentPad*%
%ADD14C,2.000000*%
%TD*%
%TA.AperFunction,ComponentPad*%
%ADD15R,3.200000X2.000000*%
%TD*%
%TA.AperFunction,ComponentPad*%
%ADD16C,1.524000*%
%TD*%
%TA.AperFunction,Conductor*%
%ADD17C,0.200000*%
%TD*%
G04 APERTURE END LIST*
D10*
%TO.P,J1,1,Pin_1*%
%TO.N,GND*%
X107156250Y-73818750D03*
D11*
%TO.P,J1,2,Pin_2*%
%TO.N,+3V3*%
X109696250Y-73818750D03*
%TO.P,J1,3,Pin_3*%
%TO.N,Net-(J1-Pin_3)*%
X112236250Y-73818750D03*
%TO.P,J1,4,Pin_4*%
%TO.N,Net-(J1-Pin_4)*%
X114776250Y-73818750D03*
%TD*%
D12*
%TO.P,SW2,1,1*%
%TO.N,GND*%
X131443450Y-76741028D03*
%TO.P,SW2,2,2*%
%TO.N,Net-(U1-D7{slash}CSB{slash}P1{slash}RX)*%
X125093450Y-79281028D03*
%TD*%
D13*
%TO.P,SW1,A,A*%
%TO.N,Net-(U1-P26{slash}A0{slash}D0)*%
X121337500Y-97512500D03*
D14*
%TO.P,SW1,B,B*%
%TO.N,Net-(U1-P28{slash}A2{slash}D2)*%
X121337500Y-102512500D03*
%TO.P,SW1,C,C*%
%TO.N,GND*%
X121337500Y-100012500D03*
D15*
%TO.P,SW1,MP*%
%TO.N,N/C*%
X128837500Y-94412500D03*
X128837500Y-105612500D03*
D14*
%TO.P,SW1,S1,S1*%
%TO.N,Net-(U1-P27{slash}A1{slash}D1)*%
X135837500Y-102512500D03*
%TO.P,SW1,S2,S2*%
%TO.N,GND*%
X135837500Y-97512500D03*
%TD*%
D16*
%TO.P,U1,1,P26/A0/D0*%
%TO.N,Net-(U1-P26{slash}A0{slash}D0)*%
X142969086Y-71894350D03*
%TO.P,U1,2,P27/A1/D1*%
%TO.N,Net-(U1-P27{slash}A1{slash}D1)*%
X142969086Y-74434350D03*
%TO.P,U1,3,P28/A2/D2*%
%TO.N,Net-(U1-P28{slash}A2{slash}D2)*%
X142969086Y-76974350D03*
%TO.P,U1,4,P29/A3/D3*%
%TO.N,unconnected-(U1-P29{slash}A3{slash}D3-Pad4)*%
X142969086Y-79514350D03*
%TO.P,U1,5,P6/SDA/D4*%
%TO.N,Net-(J1-Pin_4)*%
X142969086Y-82054350D03*
%TO.P,U1,6,P7/SCL/D5*%
%TO.N,Net-(J1-Pin_3)*%
X142969086Y-84594350D03*
%TO.P,U1,7,P0//TX/D6*%
%TO.N,unconnected-(U1-P0{slash}{slash}TX{slash}D6-Pad7)_1*%
X142969086Y-87134350D03*
%TO.P,U1,8,D7/CSB/P1/RX*%
%TO.N,Net-(U1-D7{slash}CSB{slash}P1{slash}RX)*%
X158209086Y-87134350D03*
%TO.P,U1,9,D8/SCK/P2*%
%TO.N,unconnected-(U1-D8{slash}SCK{slash}P2-Pad9)*%
X158209086Y-84594350D03*
%TO.P,U1,10,D9/MISO/P4*%
%TO.N,unconnected-(U1-D9{slash}MISO{slash}P4-Pad10)*%
X158209086Y-82054350D03*
%TO.P,U1,11,D10/MOSI/P3*%
%TO.N,unconnected-(U1-D10{slash}MOSI{slash}P3-Pad11)_1*%
X158209086Y-79514350D03*
%TO.P,U1,12,3V3*%
%TO.N,+3V3*%
X158209086Y-76974350D03*
%TO.P,U1,13,GND*%
%TO.N,GND*%
X158209086Y-74434350D03*
%TO.P,U1,14,5V*%
%TO.N,unconnected-(U1-5V-Pad14)*%
X158209086Y-71894350D03*
%TD*%
D17*
%TO.N,GND*%
X135837500Y-97512500D02*
X129536500Y-103813500D01*
X120798608Y-103813500D02*
X120036500Y-103051392D01*
X129536500Y-103813500D02*
X120798608Y-103813500D01*
X120036500Y-103051392D02*
X120036500Y-94069508D01*
X120036500Y-94069508D02*
X131443450Y-82662558D01*
X131443450Y-82662558D02*
X131443450Y-76741028D01*
X131443450Y-76741028D02*
X110078528Y-76741028D01*
X110078528Y-76741028D02*
X107156250Y-73818750D01*
X158209086Y-74434350D02*
X154606086Y-70831350D01*
X154606086Y-70831350D02*
X137353128Y-70831350D01*
X137353128Y-70831350D02*
X131443450Y-76741028D01*
%TO.N,Net-(U1-P26{slash}A0{slash}D0)*%
X121337500Y-97512500D02*
X141906086Y-76943914D01*
X141906086Y-76943914D02*
X141906086Y-72957350D01*
X141906086Y-72957350D02*
X142969086Y-71894350D01*
%TO.N,Net-(U1-P28{slash}A2{slash}D2)*%
X121337500Y-102512500D02*
X126936500Y-96913500D01*
X126936500Y-96913500D02*
X126936500Y-93006936D01*
X126936500Y-93006936D02*
X142969086Y-76974350D01*
%TO.N,Net-(U1-P27{slash}A1{slash}D1)*%
X135837500Y-102512500D02*
X144032086Y-94317914D01*
X144032086Y-75497350D02*
X142969086Y-74434350D01*
X144032086Y-94317914D02*
X144032086Y-75497350D01*
%TO.N,Net-(U1-P28{slash}A2{slash}D2)*%
X121337500Y-102500000D02*
X121443750Y-102393750D01*
X121337500Y-102512500D02*
X121337500Y-102500000D01*
%TD*%
M02*
