%TF.GenerationSoftware,KiCad,Pcbnew,9.0.2*%
%TF.CreationDate,2025-07-02T04:02:23-04:00*%
%TF.ProjectId,PassPad_KiCAD,50617373-5061-4645-9f4b-694341442e6b,rev?*%
%TF.SameCoordinates,Original*%
%TF.FileFunction,Soldermask,Top*%
%TF.FilePolarity,Negative*%
%FSLAX46Y46*%
G04 Gerber Fmt 4.6, Leading zero omitted, Abs format (unit mm)*
G04 Created by KiCad (PCBNEW 9.0.2) date 2025-07-02 04:02:23*
%MOMM*%
%LPD*%
G01*
G04 APERTURE LIST*
G04 Aperture macros list*
%AMRoundRect*
0 Rectangle with rounded corners*
0 $1 Rounding radius*
0 $2 $3 $4 $5 $6 $7 $8 $9 X,Y pos of 4 corners*
0 Add a 4 corners polygon primitive as box body*
4,1,4,$2,$3,$4,$5,$6,$7,$8,$9,$2,$3,0*
0 Add four circle primitives for the rounded corners*
1,1,$1+$1,$2,$3*
1,1,$1+$1,$4,$5*
1,1,$1+$1,$6,$7*
1,1,$1+$1,$8,$9*
0 Add four rect primitives between the rounded corners*
20,1,$1+$1,$2,$3,$4,$5,0*
20,1,$1+$1,$4,$5,$6,$7,0*
20,1,$1+$1,$6,$7,$8,$9,0*
20,1,$1+$1,$8,$9,$2,$3,0*%
G04 Aperture macros list end*
%ADD10C,2.700000*%
%ADD11R,1.700000X1.700000*%
%ADD12O,1.700000X1.700000*%
%ADD13C,1.700000*%
%ADD14C,4.000000*%
%ADD15C,2.200000*%
%ADD16R,2.000000X2.000000*%
%ADD17C,2.000000*%
%ADD18R,3.200000X2.000000*%
%ADD19RoundRect,0.152400X1.063600X0.609600X-1.063600X0.609600X-1.063600X-0.609600X1.063600X-0.609600X0*%
%ADD20C,1.524000*%
%ADD21RoundRect,0.152400X-1.063600X-0.609600X1.063600X-0.609600X1.063600X0.609600X-1.063600X0.609600X0*%
G04 APERTURE END LIST*
D10*
%TO.C,H4*%
X166241551Y-71889468D03*
%TD*%
D11*
%TO.C,J1*%
X107156250Y-73818750D03*
D12*
X109696250Y-73818750D03*
X112236250Y-73818750D03*
X114776250Y-73818750D03*
%TD*%
D13*
%TO.C,SW2*%
X123823450Y-81821028D03*
D14*
X128903450Y-81821028D03*
D13*
X133983450Y-81821028D03*
D15*
X131443450Y-76741028D03*
X125093450Y-79281028D03*
%TD*%
D10*
%TO.C,H1*%
X98056834Y-71858552D03*
%TD*%
%TO.C,H3*%
X166186859Y-111475774D03*
%TD*%
%TO.C,H2*%
X98017649Y-111507208D03*
%TD*%
D16*
%TO.C,SW1*%
X121337500Y-97512500D03*
D17*
X121337500Y-102512500D03*
X121337500Y-100012500D03*
D18*
X128837500Y-94412500D03*
X128837500Y-105612500D03*
D17*
X135837500Y-102512500D03*
X135837500Y-97512500D03*
%TD*%
D19*
%TO.C,U1*%
X142134086Y-71894350D03*
D20*
X142969086Y-71894350D03*
D19*
X142134086Y-74434350D03*
D20*
X142969086Y-74434350D03*
D19*
X142134086Y-76974350D03*
D20*
X142969086Y-76974350D03*
D19*
X142134086Y-79514350D03*
D20*
X142969086Y-79514350D03*
D19*
X142134086Y-82054350D03*
D20*
X142969086Y-82054350D03*
D19*
X142134086Y-84594350D03*
D20*
X142969086Y-84594350D03*
D19*
X142134086Y-87134350D03*
D20*
X142969086Y-87134350D03*
X158209086Y-87134350D03*
D21*
X159044086Y-87134350D03*
D20*
X158209086Y-84594350D03*
D21*
X159044086Y-84594350D03*
D20*
X158209086Y-82054350D03*
D21*
X159044086Y-82054350D03*
D20*
X158209086Y-79514350D03*
D21*
X159044086Y-79514350D03*
D20*
X158209086Y-76974350D03*
D21*
X159044086Y-76974350D03*
D20*
X158209086Y-74434350D03*
D21*
X159044086Y-74434350D03*
D20*
X158209086Y-71894350D03*
D21*
X159044086Y-71894350D03*
%TD*%
M02*
